<?xml version="1.0" encoding="UTF-8"?>
<svg width="614px" height="365px" viewBox="0 0 614 365" version="1.1" xmlns="http://www.w3.org/2000/svg" xmlns:xlink="http://www.w3.org/1999/xlink">
    <!-- Generator: Sketch 51.3 (57544) - http://www.bohemiancoding.com/sketch -->
    <title>assoc</title>
    <desc>Created with Sketch.</desc>
    <defs></defs>
    <g id="assoc" stroke="none" stroke-width="1" fill="none" fill-rule="evenodd">
        <rect fill="#FFFFFF" x="0" y="0" width="614" height="365"></rect>
        <g id="Group-3" transform="translate(136.000000, 11.000000)">
            <g id="Group" transform="translate(0.712712, 0.712712)">
                <g id="Variable-segments-circle" transform="translate(45.329325, 45.405417)">
                    <path d="M125.025207,0 C169.696713,0 210.967534,23.8298044 233.297036,62.5126034 C255.626538,101.195402 255.626538,148.855011 233.297036,187.53781 C210.967534,226.220609 169.696713,250.050414 125.025207,250.050414 C80.3537005,250.050414 39.0828797,226.220609 16.7533777,187.53781 C-5.57612423,148.855011 -5.57612423,101.195402 16.7533777,62.5126034 C39.0828797,23.8298044 80.3537005,0 125.025207,0 L125.025207,25.0050414 C89.2930028,25.0050414 56.2738456,44.0713854 38.4077436,75.0151241 C20.5416415,105.958863 20.5416415,144.091551 38.4077436,175.03529 C56.2738456,205.979028 89.2930028,225.045372 125.025207,225.045372 C160.757411,225.045372 193.776568,205.979028 211.64267,175.03529 C229.508772,144.091551 229.508772,105.958863 211.64267,75.0151241 C193.776568,44.0713854 160.757411,25.0050414 125.025207,25.0050414 L125.025207,0 Z" id="Base-plate" fill-opacity="0.002" fill="#455A64"></path>
                    <path d="M125.150207,0.125061674 L125.150207,24.8801186 C157.814766,24.9207258 188.391838,40.87618 207.106703,67.6545628 C227.574962,96.9503059 230.883533,134.926 215.797069,167.310901 L238.225174,177.794679 C255.441949,140.862524 253.564426,97.8612759 233.188778,62.575095 C210.902,23.9663089 169.728164,0.169469329 125.150207,0.12506226 Z" id="Segment-31.2" stroke="#FFFFFF" stroke-width="0.25" fill="#70C5F6"></path>
                    <path d="M238.119315,178.021161 L215.691231,167.537393 C201.683185,197.421893 173.861129,218.477056 141.296936,223.835757 L145.282499,248.26899 C185.917251,241.585745 220.645708,215.306946 238.119315,178.021161 Z" id="Segment-15.6" stroke="#FFFFFF" stroke-width="0.25" fill="#A9E07E"></path>
                    <path d="M145.035771,248.309305 L141.05021,223.876081 C117.40415,227.714012 93.1615252,222.947156 72.730829,210.439256 L59.7839735,231.530501 C85.2800955,247.147015 115.526275,253.099702 145.035771,248.309305 Z" id="Segment-11.6" stroke="#FFFFFF" stroke-width="0.25" fill="#E98E35"></path>
                    <path d="M59.5709324,231.399682 L72.5177861,210.308441 C54.0207116,198.916808 39.7308554,181.814993 31.7980535,161.581944 L8.73871616,170.592785 C18.6367134,195.843721 36.4750753,217.181838 59.5709324,231.399682 Z" id="Segment-10.9" stroke="#FFFFFF" stroke-width="0.25" fill="#F8D31B"></path>
                    <path d="M8.64775707,170.359919 L31.7070718,161.349087 C26.2215315,147.260752 23.9945332,132.112719 25.1955047,117.050547 L0.527106241,115.045389 C-0.982299938,133.845861 1.7962928,152.757425 8.64775708,170.359919 Z" id="Segment-7.6" stroke="#FFFFFF" stroke-width="0.25" fill="#B22831"></path>
                    <path d="M0.547345124,114.796209 L25.215723,116.801366 C26.4332291,102.051273 30.9021844,87.7513357 38.2994915,74.9526222 C56.1677643,44.0051238 89.1727046,24.9245262 124.900207,24.8801191 L124.900207,0.125062533 C106.439289,0.143537633 88.2116085,4.25460277 71.5304486,12.1653843 C31.2479543,31.2583882 4.19713113,70.3732866 0.547345706,114.796209 Z" id="Segment-23.1" stroke="#FFFFFF" stroke-width="0.25" fill="#D0CFD0"></path>
                </g>
                <g id="Variable-segments-circle" transform="translate(69.230854, 69.306946)">
                    <path d="M101.025831,0 C137.12236,0 170.470986,19.2555233 188.5142,50.5129153 C206.557413,81.7703072 206.557413,120.281354 188.5142,151.538746 C170.470986,182.796138 137.12236,202.051661 101.025831,202.051661 C64.9293013,202.051661 31.5806746,182.796138 13.5374613,151.538746 C-4.50575204,120.281354 -4.50575204,81.7703072 13.5374613,50.5129153 C31.5806746,19.2555233 64.9293013,0 101.025831,0 L101.025831,70.7180814 C90.1958615,70.7180814 80.1943043,76.4967589 74.7793197,85.8719559 C69.3643352,95.247153 69.3643352,106.804508 74.7793197,116.179705 C80.1943043,125.554902 90.1958615,131.33358 101.025831,131.33358 C111.8558,131.33358 121.857357,125.554902 127.272341,116.179705 C132.687326,106.804508 132.687326,95.247153 127.272341,85.8719559 C121.857357,76.4967589 111.8558,70.7180814 101.025831,70.7180814 L101.025831,0 Z" id="Base-plate" fill-opacity="0.002" fill="#455A64"></path>
                    <path d="M101.150831,0.125076344 L101.150831,70.5933369 C111.046776,70.633801 120.304376,75.4774929 125.970557,83.5879092 C132.17649,92.4722984 133.194677,103.972425 128.650603,113.795701 L192.484749,143.633961 C206.382464,113.803133 204.862439,79.0744729 188.405942,50.5754068 C170.405536,19.3921728 137.153975,0.169473159 101.150831,0.125077069 Z" id="Segment-31.2" stroke="#FFFFFF" stroke-width="0.25" fill="#494949"></path>
                    <path d="M192.37889,143.860443 L128.544704,114.022163 C124.284288,123.035149 115.884692,129.393678 106.058944,131.042511 L117.414401,200.584618 C150.223159,195.180534 178.262895,173.963051 192.37889,143.860442 Z" id="Segment-15.6" stroke="#FFFFFF" stroke-width="0.25" fill="#494949"></path>
                    <path d="M117.167673,200.624933 L105.812215,131.082821 C98.6760157,132.21714 91.3733047,130.78179 85.2060337,127.029849 L48.3410837,187.078846 C68.9270482,199.681131 93.3437969,204.486542 117.167673,200.624933 Z" id="Segment-11.6" stroke="#FFFFFF" stroke-width="0.25" fill="#494949"></path>
                    <path d="M48.1280425,186.948028 L84.992988,126.899038 C79.4330952,123.453724 75.1379418,118.311484 72.7285191,112.219667 L7.09237766,137.860043 C15.087333,158.241831 29.4867574,175.466315 48.1280426,186.948028 Z" id="Segment-10.9" stroke="#FFFFFF" stroke-width="0.25" fill="#494949"></path>
                    <path d="M7.00141852,137.627177 L72.6374521,111.986843 C71.0022386,107.758771 70.3346251,103.209815 70.6846194,98.6854033 L0.447924755,92.9875433 C-0.766537764,108.159683 1.47570748,123.420785 7.00141854,137.627177 Z" id="Segment-7.6" stroke="#FFFFFF" stroke-width="0.25" fill="#494949"></path>
                    <path d="M0.468163445,92.7383639 L70.704897,98.436227 C71.0846173,93.9899293 72.4381114,89.6819232 74.6710776,85.8094368 C80.0888288,76.4294497 90.0768347,70.6376061 100.900831,70.593337 L100.900831,0.125077407 C85.9953583,0.143542361 71.2786749,3.46453659 57.8100052,9.85184446 C25.2749692,25.2727258 3.42440345,56.8611293 0.468164166,92.738364 Z" id="Segment-23.1" stroke="#FFFFFF" stroke-width="0.25" fill="#494949"></path>
                </g>
                <g id="Variable-segments-circle" transform="translate(20.124076, 20.634741)">
                    <path d="M150.569789,3.9667e-06 C204.071143,3.9667e-06 253.499626,28.5400491 280.242816,74.8689576 C306.986007,121.197866 306.986007,178.277956 280.242816,224.606865 C253.499626,270.935773 204.071143,299.475819 150.569789,299.475819 C97.0684343,299.475819 47.6399511,270.935773 20.8967608,224.606865 C-5.84642941,178.277956 -5.84642941,121.197866 20.8967608,74.8689576 C47.6399511,28.5400491 97.0684343,3.9667e-06 150.569789,3.9667e-06 L150.569789,17.9685528 C103.492191,17.9685528 59.9933284,43.0795999 36.4545294,83.8532321 C12.9157304,124.626864 12.9157304,174.848958 36.4545294,215.62259 C59.9933284,256.396223 103.492191,281.50727 150.569789,281.50727 C197.647387,281.50727 241.146249,256.396223 264.685048,215.62259 C288.223847,174.848958 288.223847,124.626864 264.685048,83.8532321 C241.146249,43.0795999 197.647387,17.9685528 150.569789,17.9685528 L150.569789,3.9667e-06 Z" id="Base-plate" stroke="#F2F2F2" fill-opacity="0.002" fill="#455A64"></path>
                    <path d="M150.694789,0.125055453 L150.694789,17.8436121 C168.640982,17.8606304 186.38855,21.5424423 202.877899,28.6648831 C246.097734,47.3395659 276.086464,87.634197 281.565361,134.385904 L299.165764,132.333508 C296.788775,112.095208 290.312346,92.5560349 280.134558,74.9314492 C253.434006,28.6764044 204.102424,0.169470637 150.694789,0.125055942 Z" id="Segment-22.8" stroke="#FFFFFF" stroke-width="0.25" fill="#70C5F6"></path>
                    <path d="M299.194687,132.58183 L281.594204,134.634235 C284.261039,157.804572 280.749041,181.247283 271.408183,202.605965 L287.635466,209.722935 C298.244523,185.488764 302.231151,158.871771 299.194687,132.58183 Z" id="Segment-8.4" stroke="#F2F2F2" stroke-width="0.25"></path>
                    <path d="M287.535021,209.951869 L271.307766,202.834911 C263.110135,221.470922 250.707459,237.962142 235.078185,251.006678 L246.418061,264.620435 C264.161148,249.816869 278.231193,231.110014 287.535021,209.951869 Z" id="Segment-7.9" stroke="#FFFFFF" stroke-width="0.25" fill="#A9E07E"></path>
                    <path d="M246.225966,264.780434 L234.8861,251.166688 C219.236187,264.178157 200.775902,273.389262 180.952172,278.081369 L185.012665,295.327391 C207.515876,289.998686 228.470055,279.544404 246.225966,264.780434 Z" id="Segment-7.7" stroke="#FFFFFF" stroke-width="0.25"></path>
                    <path d="M184.769328,295.384723 L180.70884,278.138722 C163.74773,282.119645 146.178305,282.702136 128.990431,279.854194 L126.066857,297.336578 C145.557543,300.565786 165.504357,299.90076 184.769328,295.384723 Z" id="Segment-6.0" stroke="#FFFFFF" stroke-width="0.25" fill="#E98E35"></path>
                    <path d="M125.820262,297.295457 L128.743836,279.813074 C114.454866,277.415156 100.657053,272.676628 87.9100446,265.789504 L79.4789333,281.381892 C93.9564327,289.20084 109.600311,294.573259 125.820262,297.295457 Z" id="Segment-5.6" stroke="#FFFFFF" stroke-width="0.25"></path>
                    <path d="M79.2590672,281.2629 L87.6902527,265.670375 C82.6098417,262.908174 77.7401802,259.84566 73.1381117,256.510874 L62.7284954,270.84809 C68.0266856,274.685254 73.5527381,278.168184 79.2590672,281.2629 Z" id="Segment-2.7" stroke="#FFFFFF" stroke-width="0.25" fill="#F8D319"></path>
                    <path d="M62.5262048,270.701193 L72.93585,256.363937 C54.0780761,242.630107 39.2106831,224.170346 29.8317839,202.834923 L13.6045593,209.951868 C24.2544394,234.169043 41.1310438,255.123279 62.5262049,270.701193 Z" id="Segment-8.2" stroke="#FFFFFF" stroke-width="0.25"></path>
                    <path d="M13.5041143,209.722934 L29.7313667,202.605977 C21.5696807,183.9558 17.8384303,163.658554 18.8341242,143.327939 L1.13025268,142.442007 C0.00154925015,165.522143 4.23626206,188.550722 13.5041143,209.722934 Z" id="Segment-7.1" stroke="#FFFFFF" stroke-width="0.25" fill="#B22831"></path>
                </g>
                <g id="Variable-segments-circle" transform="translate(0.133707, 0.209799)">
                    <path d="M170.219008,4.50724804e-06 C231.011071,4.50724804e-06 287.175246,32.4292435 317.56277,85.0714605 C347.950294,137.713677 347.950294,202.572155 317.56277,255.214372 C287.175246,307.856589 231.011071,340.285828 170.219008,340.285828 C109.426946,340.285828 53.2627707,307.856589 22.8752466,255.214372 C-7.51227745,202.572155 -7.51227745,137.713677 22.8752466,85.0714605 C53.2627707,32.4292435 109.426946,4.50724804e-06 170.219008,4.50724804e-06 L170.219008,20.4171539 C116.726077,20.4171539 67.2995609,48.9501203 40.5530952,95.2800352 C13.8066294,141.60995 13.8066294,198.675883 40.5530952,245.005798 C67.2995609,291.335713 116.726077,319.868679 170.219008,319.868679 C223.71194,319.868679 273.138456,291.335713 299.884922,245.005798 C326.631387,198.675883 326.631387,141.60995 299.884922,95.2800352 C273.138456,48.9501203 223.71194,20.4171539 170.219008,20.4171539 L170.219008,4.50724804e-06 Z" id="Base-plate" stroke="#F2F2F2"></path>
                    <path d="M170.344008,0.125049815 L170.344008,20.2922061 C190.739235,20.3092292 210.909006,24.4923674 229.648465,32.5867256 C278.75756,53.8060745 312.831046,99.5939748 319.050603,152.71776 L339.083281,150.381735 C336.38373,127.377197 329.023239,105.167187 317.454512,85.133952 C287.109555,32.5654757 231.042211,0.169469564 170.344008,0.125050245 Z" id="Segment-22.8" stroke="#F2F2F2" stroke-width="0.25"></path>
                    <path d="M339.112204,150.630056 L319.079445,152.966091 C322.113652,179.302032 318.121728,205.948265 307.501802,230.224142 L325.971595,238.324633 C338.034976,210.775889 342.567119,180.516712 339.112204,150.630056 Z" id="Segment-8.4" stroke="#FFFFFF" stroke-width="0.25" fill="#40AEEC"></path>
                    <path d="M325.87115,238.553567 L307.401385,230.453088 C298.085486,251.63783 283.987096,270.383757 266.219508,285.209553 L279.126488,300.704651 C299.300004,283.876736 315.296186,262.608983 325.87115,238.553567 Z" id="Segment-7.9" stroke="#FFFFFF" stroke-width="0.25"></path>
                    <path d="M278.934393,300.864649 L266.027423,285.369563 C248.239745,300.16181 227.255547,310.632269 204.721164,315.963267 L209.342795,335.592593 C234.926941,329.537032 258.749674,317.651595 278.934393,300.864649 Z" id="Segment-7.7" stroke="#FFFFFF" stroke-width="0.25" fill="#7ECF3E"></path>
                    <path d="M209.099457,335.649925 L204.477832,316.020621 C185.196949,320.548323 165.22382,321.210506 145.685005,317.970751 L142.357412,337.869086 C164.517287,341.54281 187.196348,340.786692 209.099457,335.649925 Z" id="Segment-6.0" stroke="#FFFFFF" stroke-width="0.25"></path>
                    <path d="M142.110817,337.827965 L145.43841,317.92963 C129.192529,315.205211 113.505221,309.817781 99.0136451,301.985948 L89.4174084,319.733104 C105.878618,328.625532 123.667102,334.734451 142.110817,337.827965 Z" id="Segment-5.6" stroke="#FFFFFF" stroke-width="0.25" fill="#CC7826"></path>
                    <path d="M89.1975423,319.614113 L98.7938534,301.866819 C93.0113044,298.723682 87.4689851,295.238136 82.2318183,291.442207 L70.3836499,307.760749 C76.4132747,312.128552 82.7026799,316.092603 89.1975423,319.614113 Z" id="Segment-2.7" stroke="#FFFFFF" stroke-width="0.25"></path>
                    <path d="M70.1813593,307.613852 L82.0295568,291.295271 C60.593325,275.687301 43.6942565,254.704954 33.036604,230.4531 L14.5668701,238.553566 C26.6711366,266.085416 45.8570802,289.906959 70.1813593,307.613852 Z" id="Segment-8.2" stroke="#FFFFFF" stroke-width="0.25" fill="#E3BE07"></path>
                    <path d="M14.4664251,238.324632 L32.9361867,230.224154 C23.6563316,209.025425 19.4149379,185.953104 20.5493784,162.843285 L0.398947603,161.834923 C-0.886889529,188.07423 3.92753945,214.255341 14.4664251,238.324632 Z" id="Segment-7.1" stroke="#FFFFFF" stroke-width="0.25"></path>
                </g>
            </g>
            <text id="Recovery-Work" transform="translate(231.979342, 146.460793) rotate(-21.000000) translate(-231.979342, -146.460793) " font-family="PTSans-Regular, PT Sans" font-size="9" font-weight="normal" letter-spacing="0.152553" fill="#F2F2F2">
                <tspan x="207.02364" y="144.460793">Recovery </tspan>
                <tspan x="207.02364" y="154.460793">Work</tspan>
            </text>
            <text id="Customer-Support" transform="translate(209.499689, 219.481405) rotate(51.000000) translate(-209.499689, -219.481405) " font-family="PTSans-Regular, PT Sans" font-size="9" font-weight="normal" letter-spacing="0.152553" fill="#F2F2F2">
                <tspan x="190.718477" y="217.481405">Customer </tspan>
                <tspan x="193.679253" y="227.481405">Support</tspan>
            </text>
            <text id="Merchandise" transform="translate(158.434386, 240.989234) rotate(98.000000) translate(-158.434386, -240.989234) " font-family="PTSans-Regular, PT Sans" font-size="9" font-weight="normal" letter-spacing="0.152553" fill="#F2F2F2">
                <tspan x="131.552551" y="243.989234">Merchandise</tspan>
            </text>
            <text id="POS" transform="translate(126.899336, 209.083303) rotate(138.000000) translate(-126.899336, -209.083303) " font-family="PTSans-Regular, PT Sans" font-size="9" font-weight="normal" letter-spacing="0.152553" fill="#F2F2F2">
                <tspan x="118.399336" y="212.083303">POS</tspan>
            </text>
            <text id="Replenish" transform="translate(110.223947, 179.421556) rotate(352.000000) translate(-110.223947, -179.421556) " font-family="PTSans-Regular, PT Sans" font-size="9" font-weight="normal" letter-spacing="0.152553" fill="#F2F2F2">
                <tspan x="85.2682447" y="182.421556">Replenish</tspan>
            </text>
            <text id="Additional-Tasks" transform="translate(130.328512, 123.065895) rotate(414.000000) translate(-130.328512, -123.065895) " font-family="PTSans-Regular, PT Sans" font-size="9" font-weight="normal" letter-spacing="0.152553" fill="#F2F2F2">
                <tspan x="109.734247" y="121.065895">Additional </tspan>
                <tspan x="119.74563" y="131.065895">Tasks</tspan>
            </text>
            <g id="Group-2" transform="translate(152.000000, 153.000000)">
                <g id="Group-7" transform="translate(1.134887, 0.000000)" fill="#FFFFFF" stroke="#494949">
                    <rect id="Rectangle" x="3.92376248" y="8.29821063" width="27.3513298" height="18.7465823" rx="2"></rect>
                    <path d="M11.2951082,27.0447929 L23.9037466,27.0447929 L23.9037466,20.4723674 C23.9037466,19.6439403 23.2321737,18.9723674 22.4037466,18.9723674 L12.7951082,18.9723674 C11.9666811,18.9723674 11.2951082,19.6439403 11.2951082,20.4723674 L11.2951082,27.0447929 Z" id="Rectangle"></path>
                    <path d="M11.2961169,27.0447929 L17.5540575,27.0447929 L17.5540575,18.9723674 L12.7961169,18.9723674 C11.9676898,18.9723674 11.2961169,19.6439403 11.2961169,20.4723674 L11.2961169,27.0447929 Z" id="Rectangle"></path>
                    <path d="M27.2478154,11.7378332 C26.9317788,13.6449089 25.5563997,15.0802062 23.9075847,15.0802062 C22.3259302,15.0802062 20.9958898,13.7594543 20.6111927,11.9684603 C20.5415484,11.9697667 20.4718217,11.971045 20.4020177,11.9722951 C20.0162469,13.7613392 18.6869764,15.0802062 17.106451,15.0802062 C15.5359719,15.0802062 14.2135639,13.7780523 13.8183547,12.0063532 C13.7434176,12.0057864 13.6685689,12.0051862 13.5938149,12.0045525 C13.1991003,13.7771699 11.8763284,15.0802062 10.3053173,15.0802062 C8.68700168,15.0802062 7.33209965,13.6975173 6.98370699,11.8431727 C6.93130615,11.8408459 6.8791072,11.838495 6.82711373,11.83612 C6.48083519,13.6940103 5.12455026,15.0802062 3.50418362,15.0802062 C1.6217042,15.0802062 0.0956531006,13.2092721 0.0956531006,10.9013579 C0.0956531006,10.7956277 0.0988558823,10.6908147 0.10514899,10.5870566 C0.154034643,9.36961316 0.927703722,6.48676217 2.42615623,1.93850367 C2.69633314,1.11842892 3.4622867,0.564325365 4.32572064,0.564325365 L29.7477561,0.564324427 C30.6067518,0.564324427 31.3698115,1.11283859 31.6435144,1.92706234 C32.8309181,5.4594033 33.5858985,7.96970543 33.9084556,9.45796875 C34.04351,9.90782961 34.1172489,10.3940363 34.1172489,10.9013579 C34.1172489,13.2092721 32.5911978,15.0802062 30.7087184,15.0802062 C29.0579975,15.0802062 27.6813451,13.6415889 27.367396,11.7312182 C27.3276552,11.733436 27.2877945,11.735641 27.2478154,11.7378332 Z" id="Combined-Shape"></path>
                </g>
                <text id="12-STORES" font-family="PTSans-Bold, PT Sans" font-size="7" font-weight="bold" letter-spacing="0.1186523" fill="#494949">
                    <tspan x="0.634887206" y="36">12 STORES</tspan>
                </text>
            </g>
        </g>
    </g>
</svg>