<?xml version="1.0" encoding="UTF-8"?>
<svg width="1024px" height="293px" viewBox="0 0 1024 293" version="1.1" xmlns="http://www.w3.org/2000/svg" xmlns:xlink="http://www.w3.org/1999/xlink">
    <!-- Generator: Sketch 51.3 (57544) - http://www.bohemiancoding.com/sketch -->
    <title>Artboard</title>
    <desc>Created with Sketch.</desc>
    <defs></defs>
    <g id="Artboard" stroke="none" stroke-width="1" fill="none" fill-rule="evenodd">
        <rect fill="#FFFFFF" x="0" y="0" width="1024" height="293"></rect>
        <g id="Group-20" transform="translate(66.000000, 59.000000)">
            <text id="4" font-family="PTSans-Bold, PT Sans" font-size="32" font-weight="bold" letter-spacing="0.3013393" fill="#000000">
                <tspan x="56" y="126.246714">4</tspan>
            </text>
            <text id="Territories" font-family="PTSans-Bold, PT Sans" font-size="20" font-weight="bold" letter-spacing="0.3013393" fill="#000000">
                <tspan x="20" y="153.246714">Territories</tspan>
            </text>
            <text id="Location-Samples" font-family="PTSans-Regular, PT Sans" font-size="12" font-weight="normal" letter-spacing="0.2582908" fill="#000000">
                <tspan x="18.4396736" y="170.246714">Location Samples</tspan>
            </text>
            <g id="Group-17">
                <polygon id="Path-5" stroke="#000000" stroke-linecap="round" stroke-linejoin="round" points="67.0210877 4.93363764 77.3360734 7.94217513 79.0552377 10.5209216 87.6510591 10.5209216 90.6595966 13.099668 90.6595966 14.8188323 94.5277162 16.5379965 94.5277162 19.546534 101.404373 19.546534 106.132075 14.8188323 113.008732 14.8188323 117.306643 7.94217513 126.332255 9.23154834 126.332255 14.8188323 130.200375 21.6954894 120.744971 25.9934001 123.753509 30.2913108 114.298105 32.4402661 109.570404 42.3254607 109.570404 48.7723268 99.685209 55.6489839 99.685209 58.6575214 101.404373 67.6831339 101.404373 75.8491642 94.5277162 75.8491642 87.6510591 66.3937607 87.6510591 64.2448053 85.9318948 64.2448053 82.4935662 62.9554321 82.4935662 66.3937607 71.3189984 64.2448053 65.7317145 67.6831339 67.0210877 75.8491642 55.4167288 71.9810446 51.9784003 64.2448053 49.3996538 66.3937607 43.3825789 62.9554321 41.6634146 58.6575214 32.6378021 59.9468946 25.761145 55.6489839 20.6036521 56.9383571 11.1482486 50.4914911 3.41200933 38.02755 0.833262912 25.9934001 3.41200933 14.8188323 0.833262912 6.65280192 5.13117361 7.94217513 3.41200933 3.64426443"></polygon>
                <g id="Group-2-Copy-2" opacity="0.939732143" transform="translate(86.189643, 65.605931)">
                    <circle id="Oval" fill="#F89186" cx="8.1008773" cy="8.10350348" r="7.13739329"></circle>
                    <circle id="Oval" fill="#D25E52" cx="8.1008773" cy="8.10350348" r="4.28661296"></circle>
                </g>
                <g id="Group-2-Copy-3" opacity="0.94" transform="translate(11.358170, 45.646169)">
                    <circle id="Oval" fill="#F89186" cx="9.40314715" cy="9.40643769" r="8.94295608"></circle>
                    <circle id="Oval" fill="#D25E52" cx="9.40314715" cy="9.40643769" r="5.3710073"></circle>
                </g>
                <g id="Group-Copy" transform="translate(18.366517, 32.815528)" stroke-linecap="round" stroke-linejoin="round">
                    <path d="M2.24234059,5.23212803 L2.24234059,23.9182996" id="Path-7" stroke="#000000"></path>
                    <path d="M2.24234059,1.49489372 L2.24234059,11.2117029 C8.22191548,9.7168092 12.4574477,9.7168092 14.9489372,11.2117029 C17.4404268,12.7065967 19.6827674,12.9557456 21.675959,11.9591498 L17.1912778,5.23212803 L20.1810653,1.49489372 C17.1912778,0.498297908 14.2014904,0 11.2117029,0 C8.22191548,0 5.23212803,0.498297908 2.24234059,1.49489372 Z" id="Path-8" stroke="#D25E52" fill="#D25E52"></path>
                </g>
                <g id="Group-2" opacity="0.94" transform="translate(61.643048, 18.622944)">
                    <circle id="Oval" fill="#F89186" cx="9.40314715" cy="9.40643769" r="8.94295608"></circle>
                    <circle id="Oval" fill="#D25E52" cx="9.40314715" cy="9.40643769" r="5.3710073"></circle>
                </g>
                <g id="Group-2-Copy" opacity="0.939732143" transform="translate(99.138859, 32.146169)">
                    <circle id="Oval" fill="#F89186" cx="8.1008773" cy="8.10350348" r="7.13739329"></circle>
                    <circle id="Oval" fill="#D25E52" cx="8.1008773" cy="8.10350348" r="4.28661296"></circle>
                </g>
                <g id="Group-Copy-2" transform="translate(68.674163, 4.663794)" stroke-linecap="round" stroke-linejoin="round">
                    <path d="M2.24234059,5.23212803 L2.24234059,23.9182996" id="Path-7" stroke="#000000"></path>
                    <path d="M2.24234059,1.49489372 L2.24234059,11.2117029 C8.22191548,9.7168092 12.4574477,9.7168092 14.9489372,11.2117029 C17.4404268,12.7065967 19.6827674,12.9557456 21.675959,11.9591498 L17.1912778,5.23212803 L20.1810653,1.49489372 C17.1912778,0.498297908 14.2014904,0 11.2117029,0 C8.22191548,0 5.23212803,0.498297908 2.24234059,1.49489372 Z" id="Path-8" stroke="#D25E52" fill="#D25E52"></path>
                </g>
                <g id="Group" transform="translate(92.189643, 50.187632)" stroke-linecap="round" stroke-linejoin="round">
                    <path d="M2.24234059,5.23212803 L2.24234059,23.9182996" id="Path-7" stroke="#000000"></path>
                    <path d="M2.24234059,1.49489372 L2.24234059,11.2117029 C8.22191548,9.7168092 12.4574477,9.7168092 14.9489372,11.2117029 C17.4404268,12.7065967 19.6827674,12.9557456 21.675959,11.9591498 L17.1912778,5.23212803 L20.1810653,1.49489372 C17.1912778,0.498297908 14.2014904,0 11.2117029,0 C8.22191548,0 5.23212803,0.498297908 2.24234059,1.49489372 Z" id="Path-8" stroke="#D25E52" fill="#D25E52"></path>
                </g>
                <g id="Group-Copy-3" transform="translate(104.962460, 15.856378)" stroke-linecap="round" stroke-linejoin="round">
                    <path d="M2.24234059,5.23212803 L2.24234059,23.9182996" id="Path-7" stroke="#000000"></path>
                    <path d="M2.24234059,1.49489372 L2.24234059,11.2117029 C8.22191548,9.7168092 12.4574477,9.7168092 14.9489372,11.2117029 C17.4404268,12.7065967 19.6827674,12.9557456 21.675959,11.9591498 L17.1912778,5.23212803 L20.1810653,1.49489372 C17.1912778,0.498297908 14.2014904,0 11.2117029,0 C8.22191548,0 5.23212803,0.498297908 2.24234059,1.49489372 Z" id="Path-8" stroke="#D25E52" fill="#D25E52"></path>
                </g>
                <g id="Group-3" transform="translate(18.674163, 18.622944)" stroke="#CECECE" stroke-linecap="round" stroke-linejoin="round">
                    <path d="M0.00336184523,0.96049672 L1.17817534,2.13531022" id="Path-9"></path>
                    <path d="M4.96298943,0.96049672 L3.78817593,2.13531022 L4.96298943,0.96049672 Z" id="Path-9"></path>
                    <path d="M0.00336184523,5.89195317 L1.17817534,4.71713967 L0.00336184523,5.89195317 Z" id="Path-9"></path>
                    <path d="M4.96298943,5.89195317 L3.78817593,4.71713967 L4.96298943,5.89195317 Z" id="Path-9"></path>
                </g>
                <g id="Group-3-Copy" transform="translate(68.674163, 50.187632)" stroke="#CECECE" stroke-linecap="round" stroke-linejoin="round">
                    <path d="M0.00336184523,0.96049672 L1.17817534,2.13531022" id="Path-9"></path>
                    <path d="M4.96298943,0.96049672 L3.78817593,2.13531022 L4.96298943,0.96049672 Z" id="Path-9"></path>
                    <path d="M0.00336184523,5.89195317 L1.17817534,4.71713967 L0.00336184523,5.89195317 Z" id="Path-9"></path>
                    <path d="M4.96298943,5.89195317 L3.78817593,4.71713967 L4.96298943,5.89195317 Z" id="Path-9"></path>
                </g>
                <g id="Group-3-Copy-2" transform="translate(104.638859, 0.644264)" stroke="#CECECE" stroke-linecap="round" stroke-linejoin="round">
                    <path d="M0.00336184523,0.96049672 L1.17817534,2.13531022" id="Path-9"></path>
                    <path d="M4.96298943,0.96049672 L3.78817593,2.13531022 L4.96298943,0.96049672 Z" id="Path-9"></path>
                    <path d="M0.00336184523,5.89195317 L1.17817534,4.71713967 L0.00336184523,5.89195317 Z" id="Path-9"></path>
                    <path d="M4.96298943,5.89195317 L3.78817593,4.71713967 L4.96298943,5.89195317 Z" id="Path-9"></path>
                </g>
            </g>
        </g>
        <g id="Group-24" transform="translate(345.333333, 59.500000)">
            <g id="Group-9" transform="translate(1.500000, 96.246714)" fill="#000000">
                <text id="12" font-family="PTSans-Bold, PT Sans" font-size="32" font-weight="bold" letter-spacing="0.3013393">
                    <tspan x="23.4748303" y="29">12</tspan>
                </text>
                <text id="Stores" font-family="PTSans-Bold, PT Sans" font-size="20" font-weight="bold" letter-spacing="0.3013393">
                    <tspan x="13.9748303" y="56">Stores</tspan>
                </text>
                <text id="Various-Sizes" font-family="PTSans-Regular, PT Sans" font-size="12" font-weight="normal" letter-spacing="0.2582908">
                    <tspan x="7.03194007" y="73">Various Sizes</tspan>
                </text>
            </g>
            <g id="Group-21">
                <g id="Group-7" transform="translate(0.308858, 7.849164)">
                    <rect id="Rectangle" stroke="#000000" fill="#FFFFFF" x="8.88470114" y="18.5308439" width="68.4316352" height="47.3588427" rx="2"></rect>
                    <rect id="Rectangle-2" fill="#FFFFFF" x="17" y="15" width="52" height="7"></rect>
                    <path d="M26.9369263,65.8896866 L59.2641112,65.8896866 L59.2641112,46.1715633 C59.2641112,45.3431362 58.5925383,44.6715633 57.7641112,44.6715633 L28.4369263,44.6715633 C27.6084992,44.6715633 26.9369263,45.3431362 26.9369263,46.1715633 L26.9369263,65.8896866 Z" id="Rectangle" stroke="#000000" fill="#32AD58"></path>
                    <path d="M26.9393966,65.8896866 L43.7138954,65.8896866 L43.7138954,44.6715633 L28.4393966,44.6715633 C27.6109694,44.6715633 26.9393966,45.3431362 26.9393966,46.1715633 L26.9393966,65.8896866 Z" id="Rectangle" stroke="#000000" fill="#32AD58"></path>
                    <path d="M34.0248908,29.0557589 C33.7411656,28.8618876 33.5836939,28.6236497 33.5829277,28.3344653 C33.581387,27.752966 33.5810918,27.1714413 33.5820421,26.5898911 C33.5580828,26.2739963 33.5458345,25.9539353 33.5458345,25.6303671 C33.5458345,25.2712109 33.5609253,24.9163759 33.5903719,24.5667631 C33.643695,16.487847 33.9373384,8.40401125 34.4713022,0.315255778 L48.4713022,0.315255778 C49.458998,11.7143992 50.0322462,19.7788031 50.1910467,24.5084673 C50.223815,24.8769119 50.2406314,25.2512318 50.2406314,25.6303671 C50.2406314,25.7955192 50.2374405,25.9597577 50.2311302,26.1229948 C50.243602,27.0006528 50.2350586,27.7092178 50.2055,28.2486898 C50.2028142,28.2977093 50.1048259,28.3569128 49.9260137,28.4231717 C48.9345881,32.7177291 45.7136298,35.864253 41.893233,35.864253 C38.2630213,35.864253 35.1740518,33.023209 34.0248908,29.0557589 Z M75.2048156,35.864253 C70.5946747,35.864253 66.8574171,31.2823862 66.8574171,25.6303671 C66.8574171,19.9783479 70.5946747,15.3964811 75.2048156,15.3964811 C79.8149565,15.3964811 79.8149565,35.864253 75.2048156,35.864253 Z" id="Combined-Shape" fill="#32AD58"></path>
                    <path d="M0.253530381,25.304054 C0.175516471,22.4736939 2.29249772,14.5996736 6.60447412,1.68199286 C6.87695229,0.865722384 7.64102514,0.315255778 8.50157255,0.315255778 L19.4713022,0.315255778 C18.4604276,10.5287167 17.6242747,18.4601638 16.9628433,24.1095968 C16.9632137,24.1179528 16.9635742,24.1263194 16.9639249,24.1346969 C16.983389,24.5996079 16.972655,25.0976461 16.9290488,25.6303671 C16.8760578,26.2777388 16.8660232,26.9116245 16.7833707,27.5260003 C16.7708454,27.6191036 16.7566525,27.7117589 16.7403897,27.8039451 C15.9274967,32.411862 12.583428,35.864253 8.58165033,35.864253 C3.97150944,35.864253 0.23425184,31.2823862 0.23425184,25.6303671 C0.23425184,25.5220708 0.240763645,25.4132499 0.253530381,25.304054 Z" id="Combined-Shape" fill="#32AD58"></path>
                    <path d="M64.3344423,25.304054 C64.2564284,22.4736939 66.3734096,14.5996736 70.685386,1.68199286 C70.9578642,0.865722384 71.721937,0.315255778 72.5824845,0.315255778 L83.5522141,0.315255778 C82.5413395,10.5287167 81.7051866,18.4601638 81.0437553,24.1095968 C81.0441256,24.1179528 81.0444861,24.1263194 81.0448368,24.1346969 C81.0643009,24.5996079 81.053567,25.0976461 81.0099607,25.6303671 C80.9569697,26.2777388 80.9469351,26.9116245 80.8642826,27.5260003 C80.8517573,27.6191036 80.8375644,27.7117589 80.8213016,27.8039451 C80.0084086,32.411862 76.6643399,35.864253 72.6625622,35.864253 C68.0524213,35.864253 64.3151637,31.2823862 64.3151637,25.6303671 C64.3151637,25.5220708 64.3216756,25.4132499 64.3344423,25.304054 Z" id="Combined-Shape" fill="#32AD58" transform="translate(73.933689, 18.089754) scale(-1, 1) translate(-73.933689, -18.089754) "></path>
                    <path d="M66.7291583,27.6788724 C65.9551933,32.3492488 62.5869274,35.864253 58.5490243,35.864253 C54.6755955,35.864253 51.4183628,32.6297674 50.47625,28.2436719 C50.3056929,28.2468713 50.1349343,28.2500017 49.9639861,28.2530631 C49.0192438,32.6343836 45.7638967,35.864253 41.893233,35.864253 C38.0471725,35.864253 34.8086311,32.6753134 33.8407747,28.3364705 C33.6572556,28.3350825 33.4739532,28.3336126 33.2908827,28.3320607 C32.3242375,32.6731525 29.084805,35.864253 25.2374416,35.864253 C21.2742307,35.864253 17.9561125,32.4780855 17.1029084,27.936846 C16.9745801,27.9311478 16.8467463,27.9253905 16.7194157,27.919574 C15.871389,32.4694969 12.5498841,35.864253 8.58165033,35.864253 C3.97150944,35.864253 0.23425184,31.2823862 0.23425184,25.6303671 C0.23425184,25.3714368 0.242095366,25.1147526 0.257507014,24.8606519 C0.384236766,21.7045867 2.49989247,13.978367 6.60447412,1.68199286 C6.87695229,0.865722384 7.64102514,0.315255778 8.50157255,0.315255778 L74.9309727,0.315267476 C75.7875841,0.315267476 76.549081,0.860792974 76.8246484,1.67186984 C80.1198588,11.3706519 82.1919377,18.178544 83.040885,22.0955464 C83.3716296,23.1972434 83.5522141,24.3879503 83.5522141,25.6303671 C83.5522141,31.2823862 79.8149565,35.864253 75.2048156,35.864253 C71.1622451,35.864253 67.7908608,32.3411182 67.0220081,27.6626725 C66.924684,27.6681039 66.827066,27.6735038 66.7291583,27.6788724 Z" id="Combined-Shape" stroke="#000000"></path>
                </g>
                <g id="Group-3-Copy-3" transform="translate(75.308858, 0.849164)" stroke="#CECECE" stroke-linecap="round" stroke-linejoin="round">
                    <path d="M2.62935932,0.734295985 L2.62935932,3.9322477" id="Path-9"></path>
                    <path d="M5.82072391,7.28185142 L8.84664694,7.28185142" id="Path-9-Copy"></path>
                    <path d="M8.43075933,2.0170014 L5.17830595,4.85631434 L8.43075933,2.0170014 Z" id="Path-9"></path>
                </g>
            </g>
        </g>
        <g id="Group-23" transform="translate(580.666667, 62.000000)">
            <g id="Group-8" transform="translate(5.796791, 91.246714)" fill="#000000">
                <text id="35" font-family="PTSans-Bold, PT Sans" font-size="32" font-weight="bold" letter-spacing="0.3013393">
                    <tspan x="28.5868773" y="29">35</tspan>
                </text>
                <text id="Associates" font-family="PTSans-Bold, PT Sans" font-size="20" font-weight="bold" letter-spacing="0.3013393">
                    <tspan x="0.586877302" y="56">Associates</tspan>
                </text>
                <text id="Different-Roles" font-family="PTSans-Regular, PT Sans" font-size="12" font-weight="normal" letter-spacing="0.2582908">
                    <tspan x="6.9776963" y="73">Different Roles</tspan>
                </text>
            </g>
            <g id="Group-6" transform="translate(0.296791, 0.605931)">
                <g id="Group-3-Copy-4" transform="translate(21.251658, 11.021958) rotate(-68.000000) translate(-21.251658, -11.021958) translate(16.751658, 7.021958)" stroke="#CECECE" stroke-linecap="round" stroke-linejoin="round">
                    <path d="M1.62767453,0.734295985 L1.62767453,3.9322477" id="Path-9"></path>
                    <path d="M4.43032989,7.28185142 L7.08769454,7.28185142" id="Path-9-Copy"></path>
                    <path d="M6.72246218,2.0170014 L3.86615864,4.85631434 L6.72246218,2.0170014 Z" id="Path-9"></path>
                </g>
                <g id="Group-3-Copy-5" transform="translate(99.657897, 49.716376) rotate(-2.000000) translate(-99.657897, -49.716376) translate(95.157897, 45.716376)" stroke="#CECECE" stroke-linecap="round" stroke-linejoin="round">
                    <path d="M1.62767453,0.734295985 L1.62767453,3.9322477" id="Path-9"></path>
                    <path d="M4.43032989,7.28185142 L7.08769454,7.28185142" id="Path-9-Copy"></path>
                    <path d="M6.72246218,2.0170014 L3.86615864,4.85631434 L6.72246218,2.0170014 Z" id="Path-9"></path>
                </g>
                <g id="Group-4" transform="translate(26.423462, 0.527964)">
                    <path d="M46.0674421,65.5348505 C44.7549794,60.7524748 43.0487778,57.1767478 40.9488374,54.8076695 C38.848897,52.4385911 34.147152,50.7936977 26.8436024,49.8729894 L26.8436024,44.0804884 L22.1187366,44.0804884 L22.1187366,49.8729894 C18.9225843,50.1897694 15.0933215,51.2258111 10.6309482,52.9811144 C6.16857487,54.7364178 2.75617175,58.9209964 0.393738821,65.5348505" id="Path-10" stroke="#000000"></path>
                    <path d="M24.8055458,45.807551 C34.1561515,45.807551 41.7363151,37.1760703 41.7363151,26.5285992 C41.7363151,22.9652476 40.8873242,19.6276903 39.4071095,16.7638969 C37.9107042,13.8687792 35.7197017,7.84394958 31.1053669,7.24964748 C27.2824428,6.75727493 23.4348225,4.11121348 22.049374,4.11121348 C12.6987683,4.11121348 7.87477643,15.8811282 7.87477643,26.5285992 C7.87477643,37.1760703 15.4549401,45.807551 24.8055458,45.807551 Z" id="Oval-5" stroke="#000000" fill="#FFFFFF"></path>
                    <path d="M41.0156226,30.3843686 C46.7100753,24.0861296 44.4313403,13.3609909 42.8144868,10.7023718 C41.7171145,8.89794431 36.1346632,2.9618517 32.8806903,2.9618517 C30.285509,2.9618517 32.8806903,-1.23910503 29.2199707,0.467733398 C25.9016268,2.01493658 22.8235811,2.9618517 21.3102418,2.9618517 C11.0964805,2.9618517 1.15445409,13.8514913 7.66239998,30.3843686 L17.8310654,21.3306501 C31.4607006,29.3868887 39.1888863,32.4047949 41.0156226,30.3843686 Z" id="Oval-5" stroke="#FCCF88" fill="#FCCF88"></path>
                </g>
                <g id="Group-4-Copy-2" transform="translate(0.504741, 19.596703)">
                    <path d="M28.2049804,40.6273942 C27.4819475,38.5631338 26.6100196,36.9551755 25.5891968,35.8035194 C24.2769303,34.3230668 21.3387791,33.2951622 16.7747431,32.7198055 L16.7747431,29.1000337 L13.8221434,29.1000337 L13.8221434,32.7198055 C11.8248469,32.9177634 9.4319155,33.5651927 6.64334918,34.6620932 C3.85478286,35.7589938 1.72234979,38.3739644 0.24604997,42.5070051" id="Path-10" stroke="#000000" stroke-linecap="round" stroke-linejoin="round"></path>
                    <path d="M15.5011481,30.1792864 C21.3444029,30.1792864 26.0812968,24.7854175 26.0812968,18.1317431 C26.0812968,15.9049813 25.5507569,13.8193199 24.625761,12.0297166 C23.6906475,10.2205386 22.3214757,6.4555831 19.4379476,6.08419983 C17.0489773,5.77651299 14.6445741,4.12297185 13.7787983,4.12297185 C7.93554353,4.12297185 4.92099939,11.4780687 4.92099939,18.1317431 C4.92099939,24.7854175 9.65789331,30.1792864 15.5011481,30.1792864 Z" id="Oval-5" stroke="#000000" fill="#FFFFFF"></path>
                    <path d="M26.6773693,18.4693368 C27.1153521,18.4693368 30.2964933,16.9734004 30.1338804,16.1034897 C29.930686,15.0164858 26.0176784,14.221136 26.6773693,13.6416555 C27.611568,12.8210441 29.5818489,12.1081643 29.4132197,11.1798213 C29.2153965,10.0907587 25.8099164,11.2732398 25.8099164,10.8024487 C25.8099164,9.60446471 28.3699983,6.83436836 26.6773693,5.73053028 C26.3235209,5.49977014 24.5374322,6.55308999 23.6479344,5.73053028 C22.9254882,5.06245102 23.1755769,2.5208802 22.206613,2.15309601 C21.4671384,1.87241777 20.5480979,5.13648843 19.6843007,5.02523589 C19.0923235,4.94899233 19.6528385,2.15309601 18.2429794,1.33248462 C16.8331203,0.511873223 15.2035384,4.8295325 15.3603367,4.20462449 C16.0809974,1.33248462 14.779779,0.511873223 14.0744102,0.511873223 C9.94256441,0.511873223 12.57615,4.41405009 11.7570334,4.20462449 C10.6722477,3.92727461 9.54058678,2.62065545 8.51406039,2.15309601 C6.71240873,1.33248462 8.13269998,7.65630269 7.79339973,7.07676437 C7.32778434,6.28147475 5.27991259,4.50884606 4.91075707,5.73053028 C4.60112575,6.75522492 5.36560065,9.79756219 4.91075707,9.53859855 C3.40098046,8.67901238 2.15348202,8.25535177 1.66778407,9.53859855 C1.17456489,10.8417169 3.41058635,14.4622669 3.1091054,14.4622669 C-0.879358867,14.4622669 1.7932547,18.4761795 4.1900964,19.3859353 C6.87218881,17.4396424 8.87488827,16.1924122 10.1981948,15.6442446 C11.8997009,14.9394113 14.0744102,16.1034897 15.9353156,17.0440801 C20.2484828,19.2241607 25.8099164,18.4693368 26.6773693,18.4693368 Z" id="Oval-5" stroke="#FCCF88" fill="#FCCF88"></path>
                </g>
                <g id="Group-5" transform="translate(68.811973, 11.089582)">
                    <g id="Group-4-Copy" transform="translate(0.431583, 8.749543)" stroke="#000000">
                        <path d="M29.2960819,41.4896011 C28.4113959,38.2659659 27.261304,35.8556911 25.8458062,34.2587767 C24.4303085,32.6618622 21.2610236,31.5530961 16.3379515,30.9324782 L16.3379515,27.0279522 L13.1530817,27.0279522 L13.1530817,30.9324782 C10.9986651,31.1460088 8.41749052,31.8443689 5.40955786,33.0275586 C3.30543472,33.855229 1.54763772,35.4841808 0.136166849,37.9144139" id="Path-10" stroke-linecap="round" stroke-linejoin="round"></path>
                        <path d="M14.9641675,28.1921058 C21.2670898,28.1921058 26.3766179,22.3739209 26.3766179,15.1968262 C26.3766179,12.7948932 25.8043423,10.5451604 24.8065804,8.61477555 C23.7979049,6.66327614 22.3210254,2.60214529 19.2106607,2.20154664 C16.6337588,1.86965521 14.04021,0.0860360182 13.1063267,0.0860360182 C6.80340442,0.0860360182 3.5517171,8.01973149 3.5517171,15.1968262 C3.5517171,22.3739209 8.66124518,28.1921058 14.9641675,28.1921058 Z" id="Oval-5" fill="#FFFFFF"></path>
                    </g>
                    <path d="M27.4689686,25.36089 C30.4202135,14.8617562 23.9684119,7.99177991 15.9838128,7.99177991 C7.99921375,7.99177991 0.362522878,9.74415294 3.04469041,25.36089 C3.49480544,27.981654 26.7322872,27.981654 27.4689686,25.36089 Z" id="Oval-6" fill="#FCCF88"></path>
                    <ellipse id="Oval-3" fill="#FCCF88" transform="translate(15.222099, 6.021619) rotate(-3.000000) translate(-15.222099, -6.021619) " cx="15.2220993" cy="6.02161892" rx="4.69844579" ry="5.35008823"></ellipse>
                </g>
            </g>
        </g>
        <g id="Group-22" transform="translate(835.000000, 60.000000)">
            <g id="Group-8-Copy" transform="translate(0.266819, 95.246714)" fill="#000000">
                <text id="420" font-family="PTSans-Bold, PT Sans" font-size="32" font-weight="bold" letter-spacing="0.3013393">
                    <tspan x="32.5868773" y="29">420</tspan>
                </text>
                <text id="Hours-of-Data" font-family="PTSans-Bold, PT Sans" font-size="20" font-weight="bold" letter-spacing="0.3013393">
                    <tspan x="0.0868773017" y="56">Hours of Data</tspan>
                </text>
                <text id="During-Store-Hours" font-family="PTSans-Regular, PT Sans" font-size="12" font-weight="normal" letter-spacing="0.2582908">
                    <tspan x="9.2422601" y="73">During Store Hours</tspan>
                </text>
            </g>
            <g id="Group-15" transform="translate(22.766819, 0.146036)">
                <g id="Group-10" transform="translate(0.000000, 17.991987)" stroke="#000000">
                    <rect id="Rectangle-8" fill="#FFFFFF" x="1.19029658" y="0.898183249" width="75.2013558" height="41.3340866" rx="2"></rect>
                    <rect id="Rectangle-8" fill="#FFFFFF" x="1.19029658" y="5.1315919" width="75.2013558" height="32.8672692" rx="2"></rect>
                    <rect id="Rectangle-8" fill="#FFFFFF" x="1.19029658" y="9.36500056" width="75.2013558" height="24.4004519" rx="2"></rect>
                    <rect id="Rectangle-8" fill="#FFFFFF" x="1.19029658" y="13.5984092" width="75.2013558" height="15.9336346" rx="2"></rect>
                    <rect id="Rectangle-8" fill="#FFFFFF" x="1.19029658" y="17.8318179" width="75.2013558" height="7.46681731" rx="2"></rect>
                    <path d="M1.58752825,21.6962194 L76.2013558,21.6962194" id="Path-11" stroke-linecap="round" stroke-linejoin="round"></path>
                </g>
                <rect id="Rectangle-8" stroke="#000000" fill="#FFFFFF" x="18.1239312" y="8.86040525" width="41.3340866" height="58.2677212" rx="2"></rect>
                <path d="M23.5336528,52.1272707 L54.0482961,52.1272707" id="Path-11" stroke="#CECECE" stroke-linecap="round" stroke-linejoin="round"></path>
                <path d="M23.5336528,55.8369054 L54.0482961,55.8369054" id="Path-11-Copy" stroke="#CECECE" stroke-linecap="round" stroke-linejoin="round"></path>
                <path d="M23.5336528,59.5465401 L54.0482961,59.5465401" id="Path-11-Copy-2" stroke="#CECECE" stroke-linecap="round" stroke-linejoin="round"></path>
                <circle id="Oval-7" stroke="#000000" fill="#F9FAF9" cx="39.1590301" cy="21.1670433" r="7.40846515"></circle>
                <path d="M30.4834491,12.2693862 C33.6703855,12.2693862 36.6147116,13.9694424 38.2077338,16.7291349 C39.800756,19.4888274 39.800756,22.8889398 38.2077338,25.6486322 C38.0516426,25.9180011 37.8821721,26.1802343 37.6993225,26.4317641 L30.4834491,21.2814703 L30.4834491,12.2693862 Z" id="Segment-35" fill="#99B0E4" transform="translate(34.942975, 19.350575) scale(-1, 1) translate(-34.942975, -19.350575) "></path>
                <g id="Group-14" transform="translate(23.283748, 36.315996)" fill="#99B0E4">
                    <rect id="Rectangle-8" x="0.657680356" y="2.40663683" width="4.76258474" height="7.7584226"></rect>
                    <ellipse id="Oval-8" cx="3.03897272" cy="2.37168673" rx="2.38129237" ry="2.09689761"></ellipse>
                </g>
                <g id="Group-13" transform="translate(31.750565, 34.452087)" fill="#99B0E4">
                    <rect id="Rectangle-8-Copy" x="0.638957526" y="2.27701486" width="4.76258474" height="9.75195356"></rect>
                    <ellipse id="Oval-8-Copy" cx="3.02024989" cy="2.27701486" rx="2.38129237" ry="2.09689761"></ellipse>
                </g>
                <g id="Group-12" transform="translate(40.217382, 32.588178)" fill="#99B0E4">
                    <rect id="Rectangle-8-Copy-2" x="0.620234696" y="2.37514654" width="4.76258474" height="11.5177309"></rect>
                    <ellipse id="Oval-8-Copy-2" cx="3.00152706" cy="2.37514654" rx="2.38129237" ry="2.09689761"></ellipse>
                </g>
                <g id="Group-11" transform="translate(48.684200, 30.724269)" fill="#99B0E4">
                    <rect id="Rectangle-8-Copy-3" x="0.601511866" y="2.50190953" width="4.76258474" height="13.2548769"></rect>
                    <ellipse id="Oval-8-Copy-3" cx="2.98280423" cy="2.50190953" rx="2.38129237" ry="2.09689761"></ellipse>
                </g>
                <g id="Group-16" transform="translate(63.358853, 5.637604) scale(-1, 1) translate(-63.358853, -5.637604) translate(58.358853, 0.637604)" stroke="#CECECE" stroke-linecap="round" stroke-linejoin="round">
                    <path d="M9.16779935,0 C4.10456358,0 0,4.10456358 0,9.16779935" id="Oval-9"></path>
                    <path d="M8.2946756,2.68900783 C5.19875078,2.68900783 2.68900783,5.19875078 2.68900783,8.2946756" id="Oval-9-Copy"></path>
                    <path d="M8.23273739,5.49184172 C6.71898251,5.49184172 5.49184172,6.71898251 5.49184172,8.23273739" id="Oval-9-Copy-2"></path>
                </g>
                <g id="Group-16-Copy" transform="translate(14.057043, 70.780608) scale(1, -1) translate(-14.057043, -70.780608) translate(9.057043, 65.780608)" stroke="#CECECE" stroke-linecap="round" stroke-linejoin="round">
                    <path d="M9.16779935,0 C4.10456358,0 0,4.10456358 0,9.16779935" id="Oval-9"></path>
                    <path d="M8.2946756,2.68900783 C5.19875078,2.68900783 2.68900783,5.19875078 2.68900783,8.2946756" id="Oval-9-Copy"></path>
                    <path d="M8.23273739,5.49184172 C6.71898251,5.49184172 5.49184172,6.71898251 5.49184172,8.23273739" id="Oval-9-Copy-2"></path>
                </g>
            </g>
        </g>
    </g>
</svg>