<svg width="159" height="340" viewBox="0 0 159 340" fill="none" xmlns="http://www.w3.org/2000/svg">
<path d="M38.6758 0L72.0178 57.75H5.33381L38.6758 0Z" fill="#FFDE8B"/>
<line x1="21.3398" y1="14.4295" x2="47.4138" y2="31.5424" stroke="#262FE7" stroke-width="2" stroke-linecap="round"/>
<line x1="18.7519" y1="18.3289" x2="44.826" y2="35.4418" stroke="#262FE7" stroke-width="2" stroke-linecap="round"/>
<line x1="16.2705" y1="22.6267" x2="42.3445" y2="39.7396" stroke="#262FE7" stroke-width="2" stroke-linecap="round"/>
<circle cx="127.676" cy="113.5" r="30.5" fill="#FFAED5"/>
<path fill-rule="evenodd" clip-rule="evenodd" d="M116.704 90C116.808 90 116.893 90.0847 116.893 90.1891L116.893 130.65C116.893 130.755 116.808 130.839 116.704 130.839C116.599 130.839 116.514 130.755 116.514 130.65L116.514 90.1891C116.514 90.0847 116.599 90 116.704 90Z" fill="#262FE7"/>
<path fill-rule="evenodd" clip-rule="evenodd" d="M113.236 90.2779C113.339 90.2598 113.437 90.3285 113.455 90.4313L120.481 130.278C120.499 130.381 120.43 130.479 120.327 130.497C120.225 130.515 120.126 130.446 120.108 130.344L113.082 90.497C113.064 90.3941 113.133 90.2961 113.236 90.2779Z" fill="#262FE7"/>
<path fill-rule="evenodd" clip-rule="evenodd" d="M109.789 91.1672C109.887 91.1315 109.996 91.1821 110.031 91.2802L123.87 129.301C123.906 129.399 123.855 129.508 123.757 129.544C123.659 129.579 123.55 129.529 123.515 129.431L109.676 91.4095C109.64 91.3114 109.691 91.2029 109.789 91.1672Z" fill="#262FE7"/>
<path fill-rule="evenodd" clip-rule="evenodd" d="M106.549 92.6414C106.64 92.5892 106.755 92.6202 106.807 92.7106L127.038 127.751C127.09 127.842 127.059 127.957 126.969 128.009C126.878 128.062 126.763 128.031 126.711 127.94L106.48 92.8997C106.428 92.8093 106.459 92.6936 106.549 92.6414Z" fill="#262FE7"/>
<path fill-rule="evenodd" clip-rule="evenodd" d="M103.615 94.6557C103.695 94.5886 103.814 94.599 103.881 94.679L129.889 125.674C129.956 125.754 129.946 125.873 129.866 125.941C129.786 126.008 129.667 125.997 129.6 125.917L103.592 94.9221C103.525 94.8421 103.535 94.7228 103.615 94.6557Z" fill="#262FE7"/>
<path fill-rule="evenodd" clip-rule="evenodd" d="M101.075 97.1487C101.142 97.0688 101.261 97.0583 101.341 97.1254L132.336 123.133C132.416 123.201 132.427 123.32 132.36 123.4C132.292 123.48 132.173 123.49 132.093 123.423L101.098 97.4151C101.018 97.348 101.008 97.2287 101.075 97.1487Z" fill="#262FE7"/>
<path fill-rule="evenodd" clip-rule="evenodd" d="M99.0061 100.047C99.0583 99.9561 99.1739 99.9251 99.2643 99.9773L134.305 120.208C134.395 120.26 134.426 120.376 134.374 120.466C134.322 120.557 134.206 120.588 134.116 120.535L99.0753 100.305C98.9848 100.253 98.9538 100.137 99.0061 100.047Z" fill="#262FE7"/>
<path fill-rule="evenodd" clip-rule="evenodd" d="M97.4724 103.259C97.5082 103.161 97.6167 103.11 97.7148 103.146L135.736 116.984C135.834 117.02 135.885 117.129 135.849 117.227C135.813 117.325 135.705 117.375 135.607 117.34L97.5854 103.501C97.4873 103.465 97.4367 103.357 97.4724 103.259Z" fill="#262FE7"/>
<path fill-rule="evenodd" clip-rule="evenodd" d="M96.5189 106.688C96.5371 106.585 96.6351 106.517 96.738 106.535L136.585 113.561C136.687 113.579 136.756 113.677 136.738 113.78C136.72 113.883 136.622 113.951 136.519 113.933L96.6723 106.907C96.5695 106.889 96.5008 106.791 96.5189 106.688Z" fill="#262FE7"/>
<path fill-rule="evenodd" clip-rule="evenodd" d="M96.1758 110.231C96.1758 110.127 96.2604 110.042 96.3649 110.042H136.826C136.931 110.042 137.015 110.127 137.015 110.231C137.015 110.335 136.931 110.42 136.826 110.42H96.3649C96.2604 110.42 96.1758 110.335 96.1758 110.231Z" fill="#262FE7"/>
<path fill-rule="evenodd" clip-rule="evenodd" d="M96.1758 110.23C96.1758 110.126 96.2604 110.041 96.3649 110.041L136.826 110.041C136.931 110.041 137.015 110.126 137.015 110.23C137.015 110.335 136.931 110.419 136.826 110.419L96.3649 110.419C96.2604 110.419 96.1758 110.335 96.1758 110.23Z" fill="#262FE7"/>
<path fill-rule="evenodd" clip-rule="evenodd" d="M96.4537 113.779C96.4356 113.676 96.5043 113.578 96.6071 113.56L136.454 106.534C136.557 106.516 136.655 106.584 136.673 106.687C136.691 106.79 136.622 106.888 136.519 106.906L96.6728 113.932C96.5699 113.95 96.4719 113.882 96.4537 113.779Z" fill="#262FE7"/>
<path fill-rule="evenodd" clip-rule="evenodd" d="M97.343 117.226C97.3073 117.127 97.3579 117.019 97.456 116.983L135.477 103.145C135.575 103.109 135.684 103.159 135.719 103.258C135.755 103.356 135.705 103.464 135.606 103.5L97.5853 117.339C97.4872 117.374 97.3787 117.324 97.343 117.226Z" fill="#262FE7"/>
<path fill-rule="evenodd" clip-rule="evenodd" d="M98.8172 120.466C98.765 120.376 98.796 120.26 98.8864 120.208L133.927 99.9776C134.017 99.9253 134.133 99.9563 134.185 100.047C134.237 100.137 134.206 100.253 134.116 100.305L99.0755 120.536C98.985 120.588 98.8694 120.557 98.8172 120.466Z" fill="#262FE7"/>
<path fill-rule="evenodd" clip-rule="evenodd" d="M100.831 123.401C100.764 123.321 100.775 123.201 100.855 123.134L131.85 97.1263C131.93 97.0592 132.049 97.0696 132.116 97.1496C132.183 97.2296 132.173 97.3489 132.093 97.416L101.098 123.424C101.018 123.491 100.899 123.481 100.831 123.401Z" fill="#262FE7"/>
<path fill-rule="evenodd" clip-rule="evenodd" d="M103.326 125.941C103.246 125.874 103.235 125.754 103.302 125.674L129.31 94.6794C129.377 94.5994 129.497 94.5889 129.577 94.6561C129.657 94.7232 129.667 94.8424 129.6 94.9224L103.592 125.918C103.525 125.998 103.405 126.008 103.326 125.941Z" fill="#262FE7"/>
<path fill-rule="evenodd" clip-rule="evenodd" d="M106.222 128.009C106.132 127.956 106.101 127.841 106.153 127.75L126.384 92.7098C126.436 92.6194 126.552 92.5884 126.642 92.6406C126.732 92.6928 126.763 92.8085 126.711 92.8989L106.481 127.939C106.428 128.03 106.313 128.061 106.222 128.009Z" fill="#262FE7"/>
<path fill-rule="evenodd" clip-rule="evenodd" d="M109.434 129.543C109.335 129.507 109.285 129.399 109.321 129.301L123.159 91.2797C123.195 91.1816 123.303 91.131 123.401 91.1667C123.5 91.2024 123.55 91.3109 123.514 91.409L109.676 129.43C109.64 129.528 109.532 129.579 109.434 129.543Z" fill="#262FE7"/>
<path fill-rule="evenodd" clip-rule="evenodd" d="M112.864 130.497C112.761 130.479 112.692 130.381 112.711 130.278L119.737 90.4311C119.755 90.3283 119.853 90.2596 119.956 90.2777C120.058 90.2959 120.127 90.3939 120.109 90.4968L113.083 130.343C113.065 130.446 112.967 130.515 112.864 130.497Z" fill="#262FE7"/>
<line x1="19.3179" y1="181" x2="58.1758" y2="219.858" stroke="#B3ABF8" stroke-width="20" stroke-linecap="round"/>
<line x1="58.1758" y1="195.142" x2="19.3179" y2="234" stroke="#B3ABF8" stroke-width="20" stroke-linecap="round"/>
<rect x="89.1758" y="275" width="65" height="65" fill="#FFDE8B"/>
<circle cx="139.923" cy="326.747" r="0.747063" fill="#DE3E3E"/>
<circle cx="149.884" cy="326.747" r="0.747063" fill="#DE3E3E"/>
<circle cx="142.413" cy="326.747" r="0.747063" fill="#DE3E3E"/>
<circle cx="152.374" cy="326.747" r="0.747063" fill="#DE3E3E"/>
<circle cx="144.903" cy="326.747" r="0.747063" fill="#DE3E3E"/>
<circle cx="154.864" cy="326.747" r="0.747063" fill="#DE3E3E"/>
<circle cx="147.394" cy="326.747" r="0.747063" fill="#DE3E3E"/>
<circle cx="157.354" cy="326.747" r="0.747063" fill="#DE3E3E"/>
<circle cx="139.923" cy="329.237" r="0.747063" fill="#DE3E3E"/>
<circle cx="149.884" cy="329.237" r="0.747063" fill="#DE3E3E"/>
<circle cx="142.413" cy="329.237" r="0.747063" fill="#DE3E3E"/>
<circle cx="152.374" cy="329.237" r="0.747063" fill="#DE3E3E"/>
<circle cx="144.903" cy="329.237" r="0.747063" fill="#DE3E3E"/>
<circle cx="154.864" cy="329.237" r="0.747063" fill="#DE3E3E"/>
<circle cx="147.394" cy="329.237" r="0.747063" fill="#DE3E3E"/>
<circle cx="157.354" cy="329.237" r="0.747063" fill="#DE3E3E"/>
<circle cx="142.413" cy="331.229" r="0.747063" fill="#DE3E3E"/>
<circle cx="152.374" cy="331.229" r="0.747063" fill="#DE3E3E"/>
<circle cx="144.903" cy="331.229" r="0.747063" fill="#DE3E3E"/>
<circle cx="154.864" cy="331.229" r="0.747063" fill="#DE3E3E"/>
<circle cx="147.394" cy="331.229" r="0.747063" fill="#DE3E3E"/>
<circle cx="157.354" cy="331.229" r="0.747063" fill="#DE3E3E"/>
<circle cx="139.923" cy="333.72" r="0.747063" fill="#DE3E3E"/>
<circle cx="149.884" cy="333.72" r="0.747063" fill="#DE3E3E"/>
<circle cx="142.413" cy="333.72" r="0.747063" fill="#DE3E3E"/>
<circle cx="152.374" cy="333.72" r="0.747063" fill="#DE3E3E"/>
<circle cx="144.903" cy="333.72" r="0.747063" fill="#DE3E3E"/>
<circle cx="154.864" cy="333.72" r="0.747063" fill="#DE3E3E"/>
<circle cx="147.394" cy="333.72" r="0.747063" fill="#DE3E3E"/>
<circle cx="157.354" cy="333.72" r="0.747063" fill="#DE3E3E"/>
<circle cx="139.923" cy="331.229" r="0.747063" fill="#DE3E3E"/>
<circle cx="149.884" cy="331.229" r="0.747063" fill="#DE3E3E"/>
</svg>
