<svg xmlns="http://www.w3.org/2000/svg" xmlns:xlink="http://www.w3.org/1999/xlink" width="2114" height="1206" viewBox="0 0 2114 1206">
  <defs>
    <filter id="Rectangle_216538" x="1161" y="167" width="268" height="130" filterUnits="userSpaceOnUse">
      <feOffset dy="3" input="SourceAlpha"/>
      <feGaussianBlur stdDeviation="3" result="blur"/>
      <feFlood flood-opacity="0.161"/>
      <feComposite operator="in" in2="blur"/>
      <feComposite in="SourceGraphic"/>
    </filter>
    <filter id="Rectangle_216538-2" x="1717" y="167" width="268" height="130" filterUnits="userSpaceOnUse">
      <feOffset dy="3" input="SourceAlpha"/>
      <feGaussianBlur stdDeviation="3" result="blur-2"/>
      <feFlood flood-opacity="0.161"/>
      <feComposite operator="in" in2="blur-2"/>
      <feComposite in="SourceGraphic"/>
    </filter>
    <filter id="Rectangle_216538-3" x="1161" y="629" width="268" height="130" filterUnits="userSpaceOnUse">
      <feOffset dy="3" input="SourceAlpha"/>
      <feGaussianBlur stdDeviation="3" result="blur-3"/>
      <feFlood flood-opacity="0.161"/>
      <feComposite operator="in" in2="blur-3"/>
      <feComposite in="SourceGraphic"/>
    </filter>
    <filter id="Rectangle_216538-4" x="803.632" y="116.638" width="229.736" height="229.736" filterUnits="userSpaceOnUse">
      <feOffset dy="3" input="SourceAlpha"/>
      <feGaussianBlur stdDeviation="3" result="blur-4"/>
      <feFlood flood-opacity="0.161"/>
      <feComposite operator="in" in2="blur-4"/>
      <feComposite in="SourceGraphic"/>
    </filter>
    <filter id="Rectangle_216538-5" x="804.132" y="585.376" width="229.736" height="229.736" filterUnits="userSpaceOnUse">
      <feOffset dy="3" input="SourceAlpha"/>
      <feGaussianBlur stdDeviation="3" result="blur-5"/>
      <feFlood flood-opacity="0.161"/>
      <feComposite operator="in" in2="blur-5"/>
      <feComposite in="SourceGraphic"/>
    </filter>
    <filter id="Rectangle_216538-6" x="1161" y="395" width="268" height="130" filterUnits="userSpaceOnUse">
      <feOffset dy="3" input="SourceAlpha"/>
      <feGaussianBlur stdDeviation="3" result="blur-6"/>
      <feFlood flood-opacity="0.161"/>
      <feComposite operator="in" in2="blur-6"/>
      <feComposite in="SourceGraphic"/>
    </filter>
    <filter id="Rectangle_216538-7" x="1161" y="864" width="268" height="130" filterUnits="userSpaceOnUse">
      <feOffset dy="3" input="SourceAlpha"/>
      <feGaussianBlur stdDeviation="3" result="blur-7"/>
      <feFlood flood-opacity="0.161"/>
      <feComposite operator="in" in2="blur-7"/>
      <feComposite in="SourceGraphic"/>
    </filter>
    <filter id="Rectangle_216538-8" x="1717" y="633" width="268" height="130" filterUnits="userSpaceOnUse">
      <feOffset dy="3" input="SourceAlpha"/>
      <feGaussianBlur stdDeviation="3" result="blur-8"/>
      <feFlood flood-opacity="0.161"/>
      <feComposite operator="in" in2="blur-8"/>
      <feComposite in="SourceGraphic"/>
    </filter>
    <filter id="Rectangle_216538-9" x="812" y="1061" width="268" height="130" filterUnits="userSpaceOnUse">
      <feOffset dy="3" input="SourceAlpha"/>
      <feGaussianBlur stdDeviation="3" result="blur-9"/>
      <feFlood flood-opacity="0.161"/>
      <feComposite operator="in" in2="blur-9"/>
      <feComposite in="SourceGraphic"/>
    </filter>
    <filter id="Rectangle_216538-10" x="471" y="125" width="268" height="189" filterUnits="userSpaceOnUse">
      <feOffset dy="3" input="SourceAlpha"/>
      <feGaussianBlur stdDeviation="3" result="blur-10"/>
      <feFlood flood-opacity="0.161"/>
      <feComposite operator="in" in2="blur-10"/>
      <feComposite in="SourceGraphic"/>
    </filter>
    <filter id="Rectangle_216538-11" x="471" y="615" width="268" height="166" filterUnits="userSpaceOnUse">
      <feOffset dy="3" input="SourceAlpha"/>
      <feGaussianBlur stdDeviation="3" result="blur-11"/>
      <feFlood flood-opacity="0.161"/>
      <feComposite operator="in" in2="blur-11"/>
      <feComposite in="SourceGraphic"/>
    </filter>
    <filter id="Rectangle_216538-12" x="471" y="1040" width="268" height="166" filterUnits="userSpaceOnUse">
      <feOffset dy="3" input="SourceAlpha"/>
      <feGaussianBlur stdDeviation="3" result="blur-12"/>
      <feFlood flood-opacity="0.161"/>
      <feComposite operator="in" in2="blur-12"/>
      <feComposite in="SourceGraphic"/>
    </filter>
  </defs>
  <g id="Group_299073" data-name="Group 299073" transform="translate(-35 -258)">
    <g id="Group_299057" data-name="Group 299057" transform="translate(78 -332)">
      <g id="Group_294853" data-name="Group 294853" transform="translate(570)">
        <g id="Group_294849" data-name="Group 294849" transform="translate(557 747)">
          <g transform="matrix(1, 0, 0, 1, -1170, -157)" filter="url(#Rectangle_216538)">
            <rect id="Rectangle_216538-13" data-name="Rectangle 216538" width="250" height="112" rx="16" transform="translate(1170 173)" fill="#fafafa"/>
          </g>
          <text id="Heading" transform="translate(20 32)" fill="#2c2c2c" font-size="22" font-family="AdobeClean-Bold, Adobe Clean" font-weight="700"><tspan x="0" y="22">View PDF</tspan></text>
          <text id="Heading-2" data-name="Heading" transform="translate(20 99)" fill="#4b4b4b" font-size="18" font-family="AdobeClean-Regular, Adobe Clean"><tspan x="0" y="0">Can we show the DMB?</tspan></text>
        </g>
      </g>
    </g>
    <g id="Group_299064" data-name="Group 299064" transform="translate(634 -332)">
      <g id="Group_294853-2" data-name="Group 294853" transform="translate(570)">
        <g id="Group_294849-2" data-name="Group 294849" transform="translate(557 747)">
          <g transform="matrix(1, 0, 0, 1, -1726, -157)" filter="url(#Rectangle_216538-2)">
            <rect id="Rectangle_216538-14" data-name="Rectangle 216538" width="250" height="112" rx="16" transform="translate(1726 173)" fill="#fafafa"/>
          </g>
          <text id="Heading-3" data-name="Heading" transform="translate(20 32)" fill="#2c2c2c" font-size="22" font-family="AdobeClean-Bold, Adobe Clean" font-weight="700"><tspan x="0" y="22">View PDF</tspan></text>
          <text id="Heading-4" data-name="Heading" transform="translate(20 99)" fill="#4b4b4b" font-size="18" font-family="AdobeClean-Regular, Adobe Clean"><tspan x="0" y="0">Can we show the DMB?</tspan></text>
        </g>
      </g>
    </g>
    <g id="Group_299060" data-name="Group 299060" transform="translate(78 104)">
      <g id="Group_294853-3" data-name="Group 294853" transform="translate(570)">
        <g id="Group_294849-3" data-name="Group 294849" transform="translate(557 747)">
          <g transform="matrix(1, 0, 0, 1, -1170, -593)" filter="url(#Rectangle_216538-3)">
            <rect id="Rectangle_216538-15" data-name="Rectangle 216538" width="250" height="112" rx="16" transform="translate(1170 635)" fill="#fafafa"/>
          </g>
          <text id="Heading-5" data-name="Heading" transform="translate(20 85)" fill="#2c2c2c" font-size="22" font-family="AdobeClean-Bold, Adobe Clean" font-weight="700"><tspan x="0" y="22">No access to PDF</tspan></text>
        </g>
      </g>
    </g>
    <path id="Path_883796" data-name="Path 883796" d="M225.477,157.828h-251.5V7.289" transform="translate(979.523 557.916)" fill="none" stroke="#5367ec" stroke-width="3"/>
    <path id="Path_883799" data-name="Path 883799" d="M225.477,157.828h-251.5V7.289" transform="translate(979.523 1025.916)" fill="none" stroke="#5367ec" stroke-width="3"/>
    <g id="Group_297618" data-name="Group 297618" transform="translate(-555.498 781.206) rotate(-45)">
      <g id="Group_294853-4" data-name="Group 294853" transform="translate(1171.548 754.778)">
        <g id="Group_294849-4" data-name="Group 294849" transform="translate(0 0)">
          <g transform="matrix(0.71, 0.71, -0.71, 0.71, -384.04, -707.2)" filter="url(#Rectangle_216538-4)">
            <rect id="Rectangle_216538-16" data-name="Rectangle 216538" width="149.72" height="149.72" rx="16" transform="translate(812.63 228.51) rotate(-45)" fill="#2e2d2d"/>
          </g>
          <text id="Heading-6" data-name="Heading" transform="translate(62.494 25.725) rotate(45)" fill="#e3e3e3" font-size="19" font-family="AdobeClean-Regular, Adobe Clean"><tspan x="-64.153" y="19">Sign in Microsoft </tspan><tspan x="-35.368" y="47.5">Account?</tspan></text>
        </g>
      </g>
    </g>
    <g id="Group_299059" data-name="Group 299059" transform="translate(-554.998 1249.944) rotate(-45)">
      <g id="Group_294853-5" data-name="Group 294853" transform="translate(1171.548 754.778)">
        <g id="Group_294849-5" data-name="Group 294849" transform="translate(0 0)">
          <g transform="matrix(0.71, 0.71, -0.71, 0.71, -52.95, -1039)" filter="url(#Rectangle_216538-5)">
            <rect id="Rectangle_216538-17" data-name="Rectangle 216538" width="149.72" height="149.72" rx="16" transform="translate(813.13 697.24) rotate(-45)" fill="#2e2d2d"/>
          </g>
          <text id="Heading-7" data-name="Heading" transform="translate(62.494 25.725) rotate(45)" fill="#e3e3e3" font-size="19" font-family="AdobeClean-Regular, Adobe Clean"><tspan x="-64.153" y="19">Sign in Microsoft </tspan><tspan x="-35.368" y="47.5">Account?</tspan></text>
        </g>
      </g>
    </g>
    <g id="Group_299055" data-name="Group 299055" transform="translate(0 45)">
      <g id="Group_299051" data-name="Group 299051" transform="translate(-252.555 -553.734)">
        <g id="Decorative_icon" data-name="Decorative icon" transform="translate(391.724 947)">
          <g id="Placement_Area" data-name="Placement Area" transform="translate(-0.17 -0.266)" fill="red" stroke="rgba(0,0,0,0)" stroke-width="1" opacity="0">
            <rect width="66" height="66" stroke="none"/>
            <rect x="0.5" y="0.5" width="65" height="65" fill="none"/>
          </g>
          <g id="Icon">
            <g id="Canvas" transform="translate(-0.17 -0.266)" fill="#6e6e6e" stroke="#6e6e6e" stroke-width="1" opacity="0">
              <rect width="66" height="66" stroke="none"/>
              <rect x="0.5" y="0.5" width="65" height="65" fill="none"/>
            </g>
            <path id="Path_883792" data-name="Path 883792" d="M29.762,1H4.816A1.816,1.816,0,0,0,3,2.816V57.3A1.816,1.816,0,0,0,4.816,59.12H44.774A1.816,1.816,0,0,0,46.59,57.3V17.828a3.632,3.632,0,0,0-1.064-2.568l-13.2-13.2A3.632,3.632,0,0,0,29.762,1Zm13.2,54.488H6.633V4.633H28.647V17.126a1.816,1.816,0,0,0,1.816,1.816H42.958ZM32.06,15.53v-8.6l8.6,8.6Z" transform="translate(7.898 2.632)" fill="#6e6e6e"/>
          </g>
        </g>
        <g id="Group_299049" data-name="Group 299049" transform="translate(389 986.776)">
          <circle id="Ellipse_26228" data-name="Ellipse 26228" cx="16.5" cy="16.5" r="16.5" transform="translate(-0.445 -0.042)" fill="#fff"/>
          <g id="Decorative_icon-2" data-name="Decorative icon" transform="translate(5.449 4.359)">
            <g id="Placement_Area-2" data-name="Placement Area" transform="translate(0.105 -0.401)" fill="red" stroke="rgba(0,0,0,0)" stroke-width="1" opacity="0">
              <rect width="22" height="23" stroke="none"/>
              <rect x="0.5" y="0.5" width="21" height="22" fill="none"/>
            </g>
            <g id="Icon-2" data-name="Icon" transform="translate(0 0)">
              <g id="Canvas-2" data-name="Canvas" transform="translate(0.105 -0.401)" fill="#6e6e6e" stroke="#6e6e6e" stroke-width="1" opacity="0">
                <rect width="22" height="23" stroke="none"/>
                <rect x="0.5" y="0.5" width="21" height="22" fill="none"/>
              </g>
              <path id="Path_883794" data-name="Path 883794" d="M21.783,10.211H7.818V6.6c-.064-2.192,2.156-4.01,4.957-4.059H12.8a5.3,5.3,0,0,1,4.5,2.185c.253.408.217.732.635.732a.518.518,0,0,0,.152-.023l2.189-.683a.34.34,0,0,0,.263-.3C19.458,1.823,16.329.042,12.8.05,8.289.161,4.69,3.032,4.633,6.563v3.648H3.817A.744.744,0,0,0,3,10.85V21.074a.744.744,0,0,0,.817.639H21.783a.744.744,0,0,0,.817-.639V10.85A.744.744,0,0,0,21.783,10.211Zm-7.35,6.532v1.775a.744.744,0,0,1-.817.639H11.983a.744.744,0,0,1-.817-.639V16.743a1.651,1.651,0,0,1-.655-2.113A2.51,2.51,0,0,1,12.8,13.4a2.51,2.51,0,0,1,2.289,1.233,1.651,1.651,0,0,1-.655,2.113Z" transform="translate(-1.63 0.09)" fill="#6e6e6e"/>
            </g>
          </g>
        </g>
        <path id="Line_84733" data-name="Line 84733" d="M19.023.224H-1.138A1.362,1.362,0,0,1-2.5-1.138,1.362,1.362,0,0,1-1.138-2.5h20.16a1.362,1.362,0,0,1,1.362,1.362A1.362,1.362,0,0,1,19.023.224Z" transform="translate(416.564 977.833)" fill="#6e6e6e"/>
        <path id="Line_84734" data-name="Line 84734" d="M19.023.224H-1.138A1.362,1.362,0,0,1-2.5-1.138,1.362,1.362,0,0,1-1.138-2.5h20.16a1.362,1.362,0,0,1,1.362,1.362A1.362,1.362,0,0,1,19.023.224Z" transform="translate(416.564 984.372)" fill="#6e6e6e"/>
        <path id="Line_84735" data-name="Line 84735" d="M19.023.224H-1.138A1.362,1.362,0,0,1-2.5-1.138,1.362,1.362,0,0,1-1.138-2.5h20.16a1.362,1.362,0,0,1,1.362,1.362A1.362,1.362,0,0,1,19.023.224Z" transform="translate(416.564 990.911)" fill="#6e6e6e"/>
      </g>
      <text id="Unencrypted_pdf" data-name="Unencrypted pdf" transform="translate(171 488)" fill="#2c2c2c" font-size="12" font-family="AdobeClean-Bold, Adobe Clean" font-weight="700" letter-spacing="0.06em"><tspan x="-56.022" y="0">UNENCRYPTED PDF</tspan></text>
    </g>
    <g id="Group_299054" data-name="Group 299054" transform="translate(0 289)">
      <g id="Group_299050" data-name="Group 299050" transform="translate(-253.392 -332.625)">
        <g id="Decorative_icon-3" data-name="Decorative icon" transform="translate(391.791 947)">
          <g id="Placement_Area-3" data-name="Placement Area" transform="translate(-0.399 -0.375)" fill="red" stroke="rgba(0,0,0,0)" stroke-width="1" opacity="0">
            <rect width="67" height="67" stroke="none"/>
            <rect x="0.5" y="0.5" width="66" height="66" fill="none"/>
          </g>
          <g id="Icon-3" data-name="Icon">
            <g id="Canvas-3" data-name="Canvas" transform="translate(-0.399 -0.375)" fill="#6e6e6e" stroke="#6e6e6e" stroke-width="1" opacity="0">
              <rect width="67" height="67" stroke="none"/>
              <rect x="0.5" y="0.5" width="66" height="66" fill="none"/>
            </g>
            <path id="Path_883792-2" data-name="Path 883792" d="M30.42,1H4.861A1.861,1.861,0,0,0,3,2.861V58.688a1.861,1.861,0,0,0,1.861,1.861H45.8a1.861,1.861,0,0,0,1.861-1.861V18.241a3.721,3.721,0,0,0-1.09-2.631L33.052,2.09A3.722,3.722,0,0,0,30.42,1ZM43.94,56.827H6.722V4.722H29.278v12.8a1.861,1.861,0,0,0,1.861,1.861h12.8ZM32.774,15.887V7.078l8.81,8.81Z" transform="translate(8.165 2.722)" fill="#6e6e6e"/>
          </g>
        </g>
        <g id="Group_299049-2" data-name="Group 299049" transform="translate(389 987.754)">
          <ellipse id="Ellipse_26228-2" data-name="Ellipse 26228" cx="16.5" cy="17" rx="16.5" ry="17" transform="translate(0.392 -0.129)" fill="#fff"/>
          <g id="Decorative_icon-4" data-name="Decorative icon" transform="translate(2.233 1.117)">
            <g id="Placement_Area-4" data-name="Placement Area" transform="translate(0.159 -0.245)" fill="red" stroke="rgba(0,0,0,0)" stroke-width="1" opacity="0">
              <rect width="29" height="30" stroke="none"/>
              <rect x="0.5" y="0.5" width="28" height="29" fill="none"/>
            </g>
            <g id="Icon-4" data-name="Icon">
              <g id="Canvas-4" data-name="Canvas" transform="translate(0.159 -0.245)" fill="#6e6e6e" stroke="#6e6e6e" stroke-width="1" opacity="0">
                <rect width="29" height="30" stroke="none"/>
                <rect x="0.5" y="0.5" width="28" height="29" fill="none"/>
              </g>
              <path id="Path_883793" data-name="Path 883793" d="M21.688,11.75h-.813V10.125a8.125,8.125,0,1,0-16.25,0V11.75H3.813A.813.813,0,0,0,3,12.563v13a.813.813,0,0,0,.813.813H21.688a.813.813,0,0,0,.813-.813v-13A.813.813,0,0,0,21.688,11.75ZM7.875,10.125a4.875,4.875,0,0,1,9.75,0V11.75H7.875Zm6.5,9.931v2.257a.813.813,0,0,1-.813.813H11.938a.813.813,0,0,1-.813-.813V20.056a2.438,2.438,0,1,1,3.25,0Z" transform="translate(1.875 1.25)" fill="#6e6e6e"/>
            </g>
          </g>
        </g>
        <path id="Line_84733-2" data-name="Line 84733" d="M19.552.291H-1.1A1.4,1.4,0,0,1-2.5-1.1,1.4,1.4,0,0,1-1.1-2.5H19.552a1.4,1.4,0,0,1,1.4,1.4A1.4,1.4,0,0,1,19.552.291Z" transform="translate(417.18 978.53)" fill="#6e6e6e"/>
        <path id="Line_84734-2" data-name="Line 84734" d="M19.552.291H-1.1A1.4,1.4,0,0,1-2.5-1.1,1.4,1.4,0,0,1-1.1-2.5H19.552a1.4,1.4,0,0,1,1.4,1.4A1.4,1.4,0,0,1,19.552.291Z" transform="translate(417.18 985.229)" fill="#6e6e6e"/>
        <path id="Line_84735-2" data-name="Line 84735" d="M19.552.291H-1.1A1.4,1.4,0,0,1-2.5-1.1,1.4,1.4,0,0,1-1.1-2.5H19.552a1.4,1.4,0,0,1,1.4,1.4A1.4,1.4,0,0,1,19.552.291Z" transform="translate(417.18 991.929)" fill="#6e6e6e"/>
      </g>
      <text id="encrypted_pdf" data-name="encrypted pdf" transform="translate(171 711)" fill="#2c2c2c" font-size="12" font-family="AdobeClean-Bold, Adobe Clean" font-weight="700" letter-spacing="0.06em"><tspan x="-47.292" y="0">ENCRYPTED PDF</tspan></text>
    </g>
    <g id="Group_299053" data-name="Group 299053" transform="translate(0 484)">
      <g id="Group_299052" data-name="Group 299052" transform="translate(-258.477 -100.477)">
        <g id="Decorative_icon-5" data-name="Decorative icon" transform="translate(394.477 947.477)">
          <g id="Placement_Area-5" data-name="Placement Area" transform="translate(0)" fill="red" stroke="rgba(0,0,0,0)" stroke-width="1" opacity="0">
            <rect width="69" height="69" stroke="none"/>
            <rect x="0.5" y="0.5" width="68" height="68" fill="none"/>
          </g>
          <g id="Icon-5" data-name="Icon" transform="translate(0)">
            <g id="Canvas-5" data-name="Canvas" fill="#6e6e6e" stroke="#6e6e6e" stroke-width="1" opacity="0">
              <rect width="69" height="69" stroke="none"/>
              <rect x="0.5" y="0.5" width="68" height="68" fill="none"/>
            </g>
            <path id="Path_883792-3" data-name="Path 883792" d="M31.638,1H4.944A1.944,1.944,0,0,0,3,2.944V61.249a1.944,1.944,0,0,0,1.944,1.944H47.7a1.944,1.944,0,0,0,1.944-1.944V19.007a3.887,3.887,0,0,0-1.138-2.748L34.386,2.139A3.887,3.887,0,0,0,31.638,1Zm14.12,58.306H6.887V4.887H30.445v13.37A1.944,1.944,0,0,0,32.388,20.2h13.37ZM34.1,16.548v-9.2l9.2,9.2Z" transform="translate(8.178 2.403)" fill="#6e6e6e"/>
          </g>
        </g>
        <path id="Line_84733-3" data-name="Line 84733" d="M20.2.373H-1.063A1.437,1.437,0,0,1-2.5-1.063,1.437,1.437,0,0,1-1.063-2.5H20.2a1.437,1.437,0,0,1,1.437,1.437A1.437,1.437,0,0,1,20.2.373Z" transform="translate(420.585 979.831)" fill="#6e6e6e"/>
        <path id="Line_84734-3" data-name="Line 84734" d="M20.2.373H-1.063A1.437,1.437,0,0,1-2.5-1.063,1.437,1.437,0,0,1-1.063-2.5H20.2a1.437,1.437,0,0,1,1.437,1.437A1.437,1.437,0,0,1,20.2.373Z" transform="translate(420.585 986.832)" fill="#6e6e6e"/>
        <path id="Line_84735-3" data-name="Line 84735" d="M20.2.373H-1.063A1.437,1.437,0,0,1-2.5-1.063,1.437,1.437,0,0,1-1.063-2.5H20.2a1.437,1.437,0,0,1,1.437,1.437A1.437,1.437,0,0,1,20.2.373Z" transform="translate(420.585 993.833)" fill="#6e6e6e"/>
      </g>
      <text id="nON-LABELED_PDF" data-name="nON-LABELED PDF" transform="translate(171 938)" fill="#2c2c2c" font-size="12" font-family="AdobeClean-Bold, Adobe Clean" font-weight="700" letter-spacing="0.06em"><tspan x="-54.51" y="0">NON-LABELED PDF</tspan></text>
    </g>
    <path id="Path_596739" data-name="Path 596739" d="M0,0H1102.354" transform="translate(447.5 297.5)" fill="none" stroke="#afe3d8" stroke-linecap="round" stroke-width="10"/>
    <path id="Path_883795" data-name="Path 883795" d="M0,0H579.5" transform="translate(1564.5 297.5)" fill="none" stroke="#00a4ef" stroke-linecap="round" stroke-width="10"/>
    <text id="fIRST_TIME_EXPERIENCE" data-name="fIRST TIME EXPERIENCE" transform="translate(644 274)" fill="#2c2c2c" font-size="16" font-family="AdobeClean-Bold, Adobe Clean" font-weight="700" letter-spacing="0.06em"><tspan x="0" y="0">FIRST TIME EXPERIENCE</tspan></text>
    <text id="_2nd_TIME_EXPERIENCE" data-name="2nd TIME EXPERIENCE" transform="translate(1761 274)" fill="#2c2c2c" font-size="16" font-family="AdobeClean-Bold, Adobe Clean" font-weight="700" letter-spacing="0.06em"><tspan x="0" y="0">2ND TIME EXPERIENCE</tspan></text>
    <g id="Group_294939" data-name="Group 294939" transform="translate(78 -87.867)">
      <g id="Group_294853-6" data-name="Group 294853" transform="translate(1127 747)">
        <g id="Group_294849-6" data-name="Group 294849">
          <g transform="matrix(1, 0, 0, 1, -1170, -401.13)" filter="url(#Rectangle_216538-6)">
            <rect id="Rectangle_216538-18" data-name="Rectangle 216538" width="250" height="112" rx="16" transform="translate(1170 401)" fill="#fafafa"/>
          </g>
          <text id="Heading-8" data-name="Heading" transform="translate(20 42.867)" fill="#2c2c2c" font-size="22" font-family="AdobeClean-Bold, Adobe Clean" font-weight="700"><tspan x="0" y="22">Login with MSFT</tspan></text>
        </g>
      </g>
    </g>
    <g id="Group_299061" data-name="Group 299061" transform="translate(78 381.133)">
      <g id="Group_294853-7" data-name="Group 294853" transform="translate(1127 747)">
        <g id="Group_294849-7" data-name="Group 294849">
          <g transform="matrix(1, 0, 0, 1, -1170, -870.13)" filter="url(#Rectangle_216538-7)">
            <rect id="Rectangle_216538-19" data-name="Rectangle 216538" width="250" height="112" rx="16" transform="translate(1170 870)" fill="#fafafa"/>
          </g>
          <text id="Heading-9" data-name="Heading" transform="translate(20 42.867)" fill="#2c2c2c" font-size="22" font-family="AdobeClean-Bold, Adobe Clean" font-weight="700"><tspan x="0" y="22">Login with MSFT</tspan></text>
        </g>
      </g>
    </g>
    <g id="Group_299065" data-name="Group 299065" transform="translate(634 150.133)">
      <g id="Group_294853-8" data-name="Group 294853" transform="translate(1127 747)">
        <g id="Group_294849-8" data-name="Group 294849">
          <g transform="matrix(1, 0, 0, 1, -1726, -639.13)" filter="url(#Rectangle_216538-8)">
            <rect id="Rectangle_216538-20" data-name="Rectangle 216538" width="250" height="112" rx="16" transform="translate(1726 639)" fill="#fafafa"/>
          </g>
          <text id="Heading-10" data-name="Heading" transform="translate(20 42.867)" fill="#2c2c2c" font-size="22" font-family="AdobeClean-Bold, Adobe Clean" font-weight="700"><tspan x="0" y="22">Login with MSFT</tspan></text>
        </g>
      </g>
    </g>
    <g id="Group_299063" data-name="Group 299063" transform="translate(-271 578.133)">
      <g id="Group_294853-9" data-name="Group 294853" transform="translate(1127 747)">
        <g id="Group_294849-9" data-name="Group 294849">
          <g transform="matrix(1, 0, 0, 1, -821, -1067.13)" filter="url(#Rectangle_216538-9)">
            <rect id="Rectangle_216538-21" data-name="Rectangle 216538" width="250" height="112" rx="16" transform="translate(821 1067)" fill="#fafafa"/>
          </g>
          <text id="Heading-11" data-name="Heading" transform="translate(20 39.867)" fill="#2c2c2c" font-size="22" font-family="AdobeClean-Bold, Adobe Clean" font-weight="700"><tspan x="0" y="22">Login with MSFT</tspan></text>
        </g>
      </g>
    </g>
    <line id="Line_7441" data-name="Line 7441" x2="173" transform="translate(1046.5 487.006)" fill="none" stroke="#5367ec" stroke-width="3"/>
    <line id="Line_84742" data-name="Line 84742" x2="314.5" transform="translate(1458 487.006)" fill="none" stroke="#5367ec" stroke-width="3"/>
    <line id="Line_84739" data-name="Line 84739" x2="173" transform="translate(1046.5 955.006)" fill="none" stroke="#5367ec" stroke-width="3"/>
    <path id="Path_883801" data-name="Path 883801" d="M0,0H314.5" transform="translate(1458 955.006)" fill="none" stroke="#5367ec" stroke-width="3"/>
    <line id="Line_7435" data-name="Line 7435" x2="97.5" transform="translate(765 487.006)" fill="none" stroke="#5367ec" stroke-width="3"/>
    <g id="Group_294850" data-name="Group 294850" transform="translate(-42 -358)">
      <g id="Group_294849-10" data-name="Group 294849" transform="translate(557 747)">
        <g transform="matrix(1, 0, 0, 1, -480, -131)" filter="url(#Rectangle_216538-10)">
          <rect id="Rectangle_216538-22" data-name="Rectangle 216538" width="250" height="171" rx="16" transform="translate(480 131)" fill="#fafafa"/>
        </g>
        <text id="Heading-12" data-name="Heading" transform="translate(20 43)" fill="#2c2c2c" font-size="22" font-family="AdobeClean-Bold, Adobe Clean" font-weight="700"><tspan x="0" y="0">Onboard dialog</tspan></text>
        <text id="Heading-13" data-name="Heading" transform="translate(20 84)" fill="#4b4b4b" font-size="18" font-family="AdobeClean-Regular, Adobe Clean"><tspan x="0" y="0">Sign in with Microsoft</tspan></text>
        <text id="Heading-14" data-name="Heading" transform="translate(20 129)" fill="#4b4b4b" font-size="18" font-family="AdobeClean-Regular, Adobe Clean"><tspan x="0" y="0">Skip for now</tspan></text>
      </g>
    </g>
    <g id="Group_299058" data-name="Group 299058" transform="translate(-42 132)">
      <g id="Group_294849-11" data-name="Group 294849" transform="translate(557 747)">
        <g transform="matrix(1, 0, 0, 1, -480, -621)" filter="url(#Rectangle_216538-11)">
          <rect id="Rectangle_216538-23" data-name="Rectangle 216538" width="250" height="148" rx="16" transform="translate(480 621)" fill="#fafafa"/>
        </g>
        <text id="Heading-15" data-name="Heading" transform="translate(20 43)" fill="#2c2c2c" font-size="22" font-family="AdobeClean-Bold, Adobe Clean" font-weight="700"><tspan x="0" y="0">Onboard dialog</tspan></text>
        <text id="Heading-16" data-name="Heading" transform="translate(20 84)" fill="#4b4b4b" font-size="18" font-family="AdobeClean-Regular, Adobe Clean"><tspan x="0" y="0">Sign in with Microsoft</tspan></text>
        <text id="Heading-17" data-name="Heading" transform="translate(20 124)" fill="#4b4b4b" font-size="18" font-family="AdobeClean-Regular, Adobe Clean"><tspan x="0" y="0">Close</tspan></text>
      </g>
    </g>
    <g id="Group_299062" data-name="Group 299062" transform="translate(-42 557)">
      <g id="Group_294849-12" data-name="Group 294849" transform="translate(557 747)">
        <g transform="matrix(1, 0, 0, 1, -480, -1046)" filter="url(#Rectangle_216538-12)">
          <rect id="Rectangle_216538-24" data-name="Rectangle 216538" width="250" height="148" rx="16" transform="translate(480 1046)" fill="#fafafa"/>
        </g>
        <text id="Heading-18" data-name="Heading" transform="translate(20 43)" fill="#2c2c2c" font-size="22" font-family="AdobeClean-Bold, Adobe Clean" font-weight="700"><tspan x="0" y="0">Protect PDF</tspan></text>
        <text id="Heading-19" data-name="Heading" transform="translate(20 66)" fill="#4b4b4b" font-size="18" font-family="AdobeClean-Regular, Adobe Clean"><tspan x="0" y="18">Select a Microsoft </tspan><tspan x="0" y="45">sensitivity label</tspan></text>
      </g>
    </g>
    <text id="N" transform="translate(1155.5 471)" fill="#2c2c2c" font-size="16" font-family="AdobeClean-Bold, Adobe Clean" font-weight="700" letter-spacing="0.06em"><tspan x="0" y="0">N</tspan></text>
    <text id="Still_not_logged_in_MSFT" data-name="Still not logged in MSFT" transform="translate(1493.5 471)" fill="#2c2c2c" font-size="16" font-family="AdobeClean-Bold, Adobe Clean" font-weight="700" letter-spacing="0.06em"><tspan x="0" y="0">STILL NOT LOGGED IN MSFT</tspan></text>
    <text id="Still_not_logged_in_MSFT-2" data-name="Still not logged in MSFT" transform="translate(1493.5 945)" fill="#2c2c2c" font-size="16" font-family="AdobeClean-Bold, Adobe Clean" font-weight="700" letter-spacing="0.06em"><tspan x="0" y="0">STILL NOT LOGGED IN MSFT</tspan></text>
    <text id="N-2" data-name="N" transform="translate(1155.5 939)" fill="#2c2c2c" font-size="16" font-family="AdobeClean-Bold, Adobe Clean" font-weight="700" letter-spacing="0.06em"><tspan x="0" y="0">N</tspan></text>
    <text id="Y" transform="translate(1155.5 706)" fill="#2c2c2c" font-size="16" font-family="AdobeClean-Bold, Adobe Clean" font-weight="700" letter-spacing="0.06em"><tspan x="0" y="0">Y</tspan></text>
    <text id="Y-2" data-name="Y" transform="translate(1155.5 1174)" fill="#2c2c2c" font-size="16" font-family="AdobeClean-Bold, Adobe Clean" font-weight="700" letter-spacing="0.06em"><tspan x="0" y="0">Y</tspan></text>
    <line id="Line_84736" data-name="Line 84736" x2="243" transform="translate(282.5 487)" fill="none" stroke="#5367ec" stroke-width="3"/>
    <line id="Line_84737" data-name="Line 84737" x2="243" transform="translate(282.5 955)" fill="none" stroke="#5367ec" stroke-width="3"/>
    <line id="Line_84740" data-name="Line 84740" x2="243" transform="translate(282.5 1380)" fill="none" stroke="#5367ec" stroke-width="3"/>
    <line id="Line_84738" data-name="Line 84738" x2="97.5" transform="translate(765 955.744)" fill="none" stroke="#5367ec" stroke-width="3"/>
    <line id="Line_84741" data-name="Line 84741" x2="97.5" transform="translate(765 1380.744)" fill="none" stroke="#5367ec" stroke-width="3"/>
    <path id="Path_883800" data-name="Path 883800" d="M-26.023,190.779H396.742V7.289" transform="translate(1481.023 524.964)" fill="none" stroke="#5367ec" stroke-width="3"/>
    <g id="Rectangle_216745" data-name="Rectangle 216745" transform="translate(35 553)" fill="#fff" stroke="#cec6c3" stroke-width="1">
      <rect width="337" height="105" rx="8" stroke="none"/>
      <rect x="0.5" y="0.5" width="336" height="104" rx="7.5" fill="none"/>
    </g>
    <text id="Only_applies_when_admin_has_MPIP_specific_DMB_enabled._It_s_disabled_by_default._When_disabled_user_won_t_be_asked_to_login_Microsoft_account." data-name="Only applies when admin has MPIP specific DMB enabled. It’s disabled by default. When disabled, user won’t be asked to login Microsoft account." transform="translate(61 576)" fill="#4b4b4b" font-size="14" font-family="AdobeClean-Regular, Adobe Clean"><tspan x="-138.712" y="14">Only applies when admin has MPIP specific DMB </tspan><tspan x="-135.576" y="35">enabled. It’s disabled by default. When disabled, </tspan><tspan x="-132.993" y="56">user won’t be asked to login Microsoft account.</tspan></text>
  </g>
</svg>
