<svg xmlns="http://www.w3.org/2000/svg" xmlns:xlink="http://www.w3.org/1999/xlink" width="1920" height="941" viewBox="0 0 1920 941">
  <defs>
    <filter id="dropshadow3" x="1262" y="222" width="580" height="597" filterUnits="userSpaceOnUse">
      <feOffset dy="3" input="SourceAlpha"/>
      <feGaussianBlur stdDeviation="10" result="blur"/>
      <feFlood flood-opacity="0.161"/>
      <feComposite operator="in" in2="blur"/>
      <feComposite in="SourceGraphic"/>
    </filter>
    <filter id="Path_102920" x="1283" y="243" width="538" height="555" filterUnits="userSpaceOnUse">
      <feOffset dy="3" input="SourceAlpha"/>
      <feGaussianBlur stdDeviation="3" result="blur-2"/>
      <feFlood flood-opacity="0.161"/>
      <feComposite operator="in" in2="blur-2"/>
      <feComposite in="SourceGraphic"/>
    </filter>
    <filter id="dropshadow2" x="670" y="222" width="580" height="597" filterUnits="userSpaceOnUse">
      <feOffset dy="3" input="SourceAlpha"/>
      <feGaussianBlur stdDeviation="10" result="blur-3"/>
      <feFlood flood-opacity="0.161"/>
      <feComposite operator="in" in2="blur-3"/>
      <feComposite in="SourceGraphic"/>
    </filter>
    <filter id="dropshadow1" x="78" y="222" width="580" height="597" filterUnits="userSpaceOnUse">
      <feOffset dy="3" input="SourceAlpha"/>
      <feGaussianBlur stdDeviation="10" result="blur-4"/>
      <feFlood flood-opacity="0.161"/>
      <feComposite operator="in" in2="blur-4"/>
      <feComposite in="SourceGraphic"/>
    </filter>
    <filter id="Rectangle_138816" x="99" y="243" width="538" height="555" filterUnits="userSpaceOnUse">
      <feOffset dy="3" input="SourceAlpha"/>
      <feGaussianBlur stdDeviation="3" result="blur-5"/>
      <feFlood flood-opacity="0.161"/>
      <feComposite operator="in" in2="blur-5"/>
      <feComposite in="SourceGraphic"/>
    </filter>
    <clipPath id="clip-path">
      <rect id="Rectangle_216689" data-name="Rectangle 216689" width="440" height="290" rx="4" transform="translate(40 96)" fill="#fff"/>
    </clipPath>
    <filter id="Path_102920-2" x="691" y="243" width="538" height="555" filterUnits="userSpaceOnUse">
      <feOffset dy="3" input="SourceAlpha"/>
      <feGaussianBlur stdDeviation="3" result="blur-6"/>
      <feFlood flood-opacity="0.161"/>
      <feComposite operator="in" in2="blur-6"/>
      <feComposite in="SourceGraphic"/>
    </filter>
    <clipPath id="clip-path-2">
      <rect id="placemeent" width="440" height="291" transform="translate(121 382)" fill="#d7373f" opacity="0"/>
    </clipPath>
    <filter id="Background" x="936" y="509" width="230" height="148" filterUnits="userSpaceOnUse">
      <feOffset dy="1" input="SourceAlpha"/>
      <feGaussianBlur stdDeviation="2" result="blur-7"/>
      <feFlood flood-opacity="0.149"/>
      <feComposite operator="in" in2="blur-7"/>
      <feComposite in="SourceGraphic"/>
    </filter>
    <clipPath id="clip-Artboard_284">
      <rect width="1920" height="941"/>
    </clipPath>
  </defs>
  <g id="Artboard_284" data-name="Artboard – 284" clip-path="url(#clip-Artboard_284)">
    <rect width="1920" height="941" fill="#e4e4e4"/>
    <g id="Group_299074" data-name="Group 299074" transform="translate(-6)">
      <g transform="matrix(1, 0, 0, 1, 6, 0)" filter="url(#dropshadow3)">
        <rect id="dropshadow3-2" data-name="dropshadow3" width="520" height="537" transform="translate(1292 249)" fill="#f5f5f5"/>
      </g>
      <g id="Group_295078" data-name="Group 295078" transform="translate(636 -23)">
        <g id="Group_295073" data-name="Group 295073">
          <g id="Group_294965" data-name="Group 294965" transform="translate(581 24)">
            <g transform="matrix(1, 0, 0, 1, -1211, -1)" filter="url(#Path_102920)">
              <path id="Path_102920-3" data-name="Path 102920" d="M2.76,0H517.239C518.764,0,520,1.832,520,4.093V532.907c0,2.261-1.236,4.093-2.76,4.093H2.76C1.236,537,0,535.168,0,532.907V4.093C0,1.832,1.236,0,2.76,0Z" transform="translate(1292 249)" fill="#f5f5f5"/>
            </g>
            <text id="Heading_3" data-name="Heading 3" transform="translate(141 311)" fill="#2c2c2c" font-size="18" font-family="AdobeClean-Bold, Adobe Clean" font-weight="700"><tspan x="0" y="0">More options</tspan></text>
            <g id="Group_294924" data-name="Group 294924" transform="translate(-488 -107)">
              <g id="Checkbox" transform="translate(611 527)">
                <g id="Placement_Area" data-name="Placement Area" fill="red" stroke="rgba(0,0,0,0)" stroke-width="1" opacity="0">
                  <rect width="138" height="32" stroke="none"/>
                  <rect x="0.5" y="0.5" width="137" height="31" fill="none"/>
                </g>
                <g id="Box" transform="translate(0 9)" fill="#1473e6" stroke="rgba(0,0,0,0)" stroke-width="1">
                  <rect width="14" height="14" rx="2" stroke="none"/>
                  <rect x="0.5" y="0.5" width="13" height="13" rx="1.5" fill="none"/>
                </g>
                <g id="Checkmark">
                  <g id="Frame" transform="translate(2 11)" fill="#f0f" stroke="rgba(0,0,0,0)" stroke-width="1" opacity="0">
                    <rect width="10" height="10" stroke="none"/>
                    <rect x="0.5" y="0.5" width="9" height="9" fill="none"/>
                  </g>
                  <path id="Shape" d="M3.788,9A1,1,0,0,1,3,8.615l-2.288-3a1,1,0,1,1,1.576-1.23l1.5,1.991L7.712,1.385a1,1,0,1,1,1.576,1.23l-4.712,6A1,1,0,0,1,3.788,9Z" transform="translate(2 11)" fill="#fafafa"/>
                </g>
                <text id="Text" transform="translate(24 20)" fill="#4b4b4b" font-size="14" font-family="AdobeClean-Regular, Adobe Clean"><tspan x="0" y="0">Copy this document</tspan></text>
              </g>
              <text id="Heading" transform="translate(609 516)" fill="#4b4b4b" font-size="14" font-family="AdobeClean-Regular, Adobe Clean"><tspan x="0" y="0">People with read permission are also allowed to</tspan></text>
            </g>
            <g id="Group_294930" data-name="Group 294930" transform="translate(-488 -281)">
              <g id="Checkbox-2" data-name="Checkbox" transform="translate(611 774)">
                <g id="Placement_Area-2" data-name="Placement Area" fill="red" stroke="rgba(0,0,0,0)" stroke-width="1" opacity="0">
                  <rect width="136" height="32" stroke="none"/>
                  <rect x="0.5" y="0.5" width="135" height="31" fill="none"/>
                </g>
                <g id="Box-2" data-name="Box" transform="translate(0 9)" fill="#1473e6" stroke="rgba(0,0,0,0)" stroke-width="1">
                  <rect width="14" height="14" rx="2" stroke="none"/>
                  <rect x="0.5" y="0.5" width="13" height="13" rx="1.5" fill="none"/>
                </g>
                <g id="Checkmark-2" data-name="Checkmark">
                  <g id="Frame-2" data-name="Frame" transform="translate(2 11)" fill="#f0f" stroke="rgba(0,0,0,0)" stroke-width="1" opacity="0">
                    <rect width="10" height="10" stroke="none"/>
                    <rect x="0.5" y="0.5" width="9" height="9" fill="none"/>
                  </g>
                  <path id="Shape-2" data-name="Shape" d="M3.788,9A1,1,0,0,1,3,8.615l-2.288-3a1,1,0,1,1,1.576-1.23l1.5,1.991L7.712,1.385a1,1,0,1,1,1.576,1.23l-4.712,6A1,1,0,0,1,3.788,9Z" transform="translate(2 11)" fill="#fafafa"/>
                </g>
                <text id="Text-2" data-name="Text" transform="translate(24 20)" fill="#4b4b4b" font-size="14" font-family="AdobeClean-Regular, Adobe Clean"><tspan x="0" y="0">Print this document</tspan></text>
              </g>
              <text id="Heading-2" data-name="Heading" transform="translate(609 763)" fill="#4b4b4b" font-size="14" font-family="AdobeClean-Regular, Adobe Clean"><tspan x="0" y="0">People with read or change permission are also allowed to</tspan></text>
            </g>
            <g id="Group_294929" data-name="Group 294929" transform="translate(-485 -234)">
              <g id="Checkbox-3" data-name="Checkbox" transform="translate(606 573)">
                <text id="Text-3" data-name="Text" transform="translate(0 20)" fill="#4b4b4b" font-size="14" font-family="AdobeClean-Regular, Adobe Clean"><tspan x="0" y="0">This document expires on</tspan></text>
              </g>
            </g>
          </g>
          <g id="Decorative_icon" data-name="Decorative icon" transform="translate(690 312)">
            <g id="Placement_Area-3" data-name="Placement Area" fill="red" stroke="rgba(0,0,0,0)" stroke-width="1" opacity="0">
              <rect width="32" height="32" stroke="none"/>
              <rect x="0.5" y="0.5" width="31" height="31" fill="none"/>
            </g>
            <rect id="Background-2" data-name="Background" width="32" height="32" rx="4" fill="rgba(255,0,0,0)"/>
            <g id="Icon">
              <g id="Canvas" transform="translate(7 7)" fill="#6e6e6e" stroke="#6e6e6e" stroke-width="1" opacity="0">
                <rect width="18" height="18" stroke="none"/>
                <rect x="0.5" y="0.5" width="17" height="17" fill="none"/>
              </g>
              <path id="Path_596363" data-name="Path 596363" d="M6,9a.994.994,0,0,0,.293.7l3.992,3.99a1,1,0,1,0,1.436-1.386l-.024-.024L8.41,9,11.7,5.715A1,1,0,0,0,10.309,4.28l-.024.024L6.293,8.295A.994.994,0,0,0,6,9Z" transform="translate(7 7)" fill="#6e6e6e"/>
            </g>
          </g>
          <g id="Date_Field_Single_-_Quiet_-_Default" data-name="Date Field (Single - Quiet) - Default" transform="translate(856 363)">
            <rect id="Placement_Area-4" data-name="Placement Area" width="176" height="32" fill="red" opacity="0"/>
            <rect id="Field" width="176" height="1" transform="translate(0 31)" fill="#e1e1e1"/>
            <g id="Input_-_Default" data-name="Input - Default" transform="translate(0 6)">
              <text id="Type_here" data-name="Type here" transform="translate(0 14)" fill="#8e8e8e" font-size="14" font-family="AdobeClean-It, Adobe Clean" font-style="italic"><tspan x="0" y="0">mm/dd/yyyy</tspan></text>
            </g>
            <g id="Field_Button_Quiet_-_Default" data-name="Field Button Quiet - Default" transform="translate(158)">
              <path id="rectangle-18" d="M0,0H14a4,4,0,0,1,4,4V28a4,4,0,0,1-4,4H0a0,0,0,0,1,0,0V0A0,0,0,0,1,0,0Z" fill="#fbfbfb" opacity="0"/>
              <g id="Smock_Calendar_18_N_1x" data-name="Smock_Calendar_18_N@1x" transform="translate(0 7)">
                <rect id="ToDelete" width="18" height="18" fill="#ff13dc" opacity="0"/>
                <path id="Path_435" data-name="Path 435" d="M16.5,3H14V1.5a.5.5,0,0,0-.5-.5h-1a.5.5,0,0,0-.5.5V3H5V1.5A.5.5,0,0,0,4.5,1h-1a.5.5,0,0,0-.5.5V3H.5a.5.5,0,0,0-.5.5v13a.5.5,0,0,0,.5.5h16a.5.5,0,0,0,.5-.5V3.5A.5.5,0,0,0,16.5,3ZM16,16H1V4H3v.5a.5.5,0,0,0,.5.5h1A.5.5,0,0,0,5,4.5V4h7v.5a.5.5,0,0,0,.5.5h1a.5.5,0,0,0,.5-.5V4h2Z" fill="#6e6e6e"/>
                <rect id="Rectangle_742" data-name="Rectangle 742" width="2" height="2" transform="translate(3 6)" fill="#6e6e6e"/>
                <rect id="Rectangle_743" data-name="Rectangle 743" width="2" height="2" transform="translate(6 6)" fill="#6e6e6e"/>
                <rect id="Rectangle_744" data-name="Rectangle 744" width="2" height="2" transform="translate(9 6)" fill="#6e6e6e"/>
                <rect id="Rectangle_745" data-name="Rectangle 745" width="2" height="2" transform="translate(12 6)" fill="#6e6e6e"/>
                <rect id="Rectangle_746" data-name="Rectangle 746" width="2" height="2" transform="translate(3 9)" fill="#6e6e6e"/>
                <rect id="Rectangle_747" data-name="Rectangle 747" width="2" height="2" transform="translate(6 9)" fill="#6e6e6e"/>
                <rect id="Rectangle_748" data-name="Rectangle 748" width="2" height="2" transform="translate(9 9)" fill="#6e6e6e"/>
                <rect id="Rectangle_749" data-name="Rectangle 749" width="2" height="2" transform="translate(12 9)" fill="#6e6e6e"/>
                <rect id="Rectangle_750" data-name="Rectangle 750" width="2" height="2" transform="translate(3 12)" fill="#6e6e6e"/>
                <rect id="Rectangle_751" data-name="Rectangle 751" width="2" height="2" transform="translate(6 12)" fill="#6e6e6e"/>
                <rect id="Rectangle_752" data-name="Rectangle 752" width="2" height="2" transform="translate(9 12)" fill="#6e6e6e"/>
                <rect id="Rectangle_753" data-name="Rectangle 753" width="2" height="2" transform="translate(12 12)" fill="#6e6e6e"/>
              </g>
            </g>
          </g>
        </g>
      </g>
      <g transform="matrix(1, 0, 0, 1, 6, 0)" filter="url(#dropshadow2)">
        <rect id="dropshadow2-2" data-name="dropshadow2" width="520" height="537" transform="translate(700 249)" fill="#f5f5f5"/>
      </g>
      <g transform="matrix(1, 0, 0, 1, 6, 0)" filter="url(#dropshadow1)">
        <rect id="dropshadow1-2" data-name="dropshadow1" width="520" height="537" transform="translate(108 249)" fill="#f5f5f5"/>
      </g>
      <g id="Component_146262_126" data-name="Component 146262 – 126" transform="translate(114 249)">
        <g transform="matrix(1, 0, 0, 1, -108, -249)" filter="url(#Rectangle_138816)">
          <rect id="Rectangle_138816-2" data-name="Rectangle 138816" width="520" height="537" rx="5" transform="translate(108 249)" fill="#f5f5f5"/>
        </g>
        <text id="Heading_3-2" data-name="Heading 3" transform="translate(40 58)" fill="#2c2c2c" font-size="18" font-family="AdobeClean-Bold, Adobe Clean" font-weight="700"><tspan x="0" y="0">Select a sensitivity label</tspan></text>
        <g id="Rectangle_216690" data-name="Rectangle 216690" transform="translate(40 91)" fill="#fff" stroke="#e1e1e1" stroke-width="1">
          <rect width="440" height="334" rx="4" stroke="none"/>
          <rect x="0.5" y="0.5" width="439" height="333" rx="3.5" fill="none"/>
        </g>
        <g id="Mask_Group_161321" data-name="Mask Group 161321" transform="translate(0 3)" clip-path="url(#clip-path)">
          <g id="Group_294913" data-name="Group 294913" transform="translate(-1146 117)">
            <g id="Side_navigation" data-name="Side navigation" transform="translate(1186 123)">
              <g id="Placement_Area-5" data-name="Placement Area" fill="red" stroke="rgba(0,0,0,0)" stroke-width="1" opacity="0">
                <rect width="440" height="104" stroke="none"/>
                <rect x="0.5" y="0.5" width="439" height="103" fill="none"/>
              </g>
              <g id="Header">
                <g id="Placement_Area-6" data-name="Placement Area" transform="translate(12)" fill="red" stroke="rgba(0,0,0,0)" stroke-width="1" opacity="0">
                  <rect width="62" height="32" stroke="none"/>
                  <rect x="0.5" y="0.5" width="61" height="31" fill="none"/>
                </g>
                <text id="Text-4" data-name="Text" transform="translate(12 20)" fill="#747474" font-size="11" font-family="AdobeClean-Medium, Adobe Clean" font-weight="500" letter-spacing="0.06em"><tspan x="0" y="0">CONFIDENTIAL</tspan></text>
              </g>
              <g id="Component_146263_2" data-name="Component 146263 – 2" transform="translate(0 72)">
                <g id="Placement_Area-7" data-name="Placement Area" fill="red" stroke="rgba(0,0,0,0)" stroke-width="1" opacity="0">
                  <rect width="440" height="32" stroke="none"/>
                  <rect x="0.5" y="0.5" width="439" height="31" fill="none"/>
                </g>
                <text id="Text-5" data-name="Text" transform="translate(24 20)" fill="#505050" font-size="14" font-family="AdobeClean-Regular, Adobe Clean"><tspan x="0" y="0">Confidential encrypted</tspan></text>
                <g id="Single_icon" data-name="Single icon" transform="translate(398 7)">
                  <g id="Placement_Area-8" data-name="Placement Area" fill="red" stroke="rgba(0,0,0,0)" stroke-width="1" opacity="0">
                    <rect width="18" height="18" stroke="none"/>
                    <rect x="0.5" y="0.5" width="17" height="17" fill="none"/>
                  </g>
                  <g id="Icon-2" data-name="Icon">
                    <g id="Canvas-2" data-name="Canvas" fill="#6e6e6e" stroke="#6e6e6e" stroke-width="1" opacity="0">
                      <rect width="18" height="18" stroke="none"/>
                      <rect x="0.5" y="0.5" width="17" height="17" fill="none"/>
                    </g>
                    <path id="Path_144648" data-name="Path 144648" d="M15.656,3.862,14.929,3.3a.5.5,0,0,0-.7.088L7.411,12.142,4.088,8.835a.5.5,0,0,0-.707,0L2.718,9.5a.5.5,0,0,0,0,.707l4.463,4.45a.5.5,0,0,0,.75-.047L15.743,4.564a.5.5,0,0,0-.087-.7Z" fill="#6e6e6e"/>
                  </g>
                </g>
              </g>
              <g id="Item" transform="translate(0 36)">
                <g id="Placement_Area-9" data-name="Placement Area" fill="red" stroke="rgba(0,0,0,0)" stroke-width="1" opacity="0">
                  <rect width="440" height="32" stroke="none"/>
                  <rect x="0.5" y="0.5" width="439" height="31" fill="none"/>
                </g>
                <text id="Text-6" data-name="Text" transform="translate(24 20)" fill="#505050" font-size="14" font-family="AdobeClean-Regular, Adobe Clean"><tspan x="0" y="0">Confidential (No protection)</tspan></text>
              </g>
              <g id="Divider" transform="translate(12 40)">
                <g id="Placement_Area-10" data-name="Placement Area" fill="red" stroke="rgba(0,0,0,0)" stroke-width="1" opacity="0">
                  <rect width="1" height="96" stroke="none"/>
                  <rect x="0.5" y="0.5" height="95" fill="none"/>
                </g>
                <g id="Bar" fill="#e1e1e1" stroke="rgba(0,0,0,0)" stroke-width="1">
                  <rect width="1" height="96" rx="0.5" stroke="none"/>
                  <rect x="0.5" y="0.5" height="95" fill="none"/>
                </g>
              </g>
            </g>
            <g id="Side_navigation-2" data-name="Side navigation" transform="translate(1186 231)">
              <g id="Placement_Area-11" data-name="Placement Area" fill="red" stroke="rgba(0,0,0,0)" stroke-width="1" opacity="0">
                <rect width="440" height="104" stroke="none"/>
                <rect x="0.5" y="0.5" width="439" height="103" fill="none"/>
              </g>
              <g id="Item-2" data-name="Item">
                <g id="Placement_Area-12" data-name="Placement Area" fill="red" stroke="rgba(0,0,0,0)" stroke-width="1" opacity="0">
                  <rect width="440" height="32" stroke="none"/>
                  <rect x="0.5" y="0.5" width="439" height="31" fill="none"/>
                </g>
                <text id="Text-7" data-name="Text" transform="translate(24 20)" fill="#505050" font-size="14" font-family="AdobeClean-Regular, Adobe Clean"><tspan x="0" y="0">Confidential customized</tspan></text>
              </g>
              <g id="Item-3" data-name="Item" transform="translate(0 36)">
                <g id="Placement_Area-13" data-name="Placement Area" fill="red" stroke="rgba(0,0,0,0)" stroke-width="1" opacity="0">
                  <rect width="440" height="32" stroke="none"/>
                  <rect x="0.5" y="0.5" width="439" height="31" fill="none"/>
                </g>
                <text id="Text-8" data-name="Text" transform="translate(12 20)" fill="#505050" font-size="14" font-family="AdobeClean-Regular, Adobe Clean"><tspan x="0" y="0">Highly confidential (No protection)</tspan></text>
              </g>
              <g id="Item-4" data-name="Item" transform="translate(0 72)">
                <g id="Placement_Area-14" data-name="Placement Area" fill="red" stroke="rgba(0,0,0,0)" stroke-width="1" opacity="0">
                  <rect width="440" height="32" stroke="none"/>
                  <rect x="0.5" y="0.5" width="439" height="31" fill="none"/>
                </g>
                <text id="Text-9" data-name="Text" transform="translate(12 20)" fill="#505050" font-size="14" font-family="AdobeClean-Regular, Adobe Clean"><tspan x="0" y="0">Highly confidential encrypted</tspan></text>
              </g>
            </g>
            <g id="Side_navigation-3" data-name="Side navigation" transform="translate(1186 15)">
              <g id="Placement_Area-15" data-name="Placement Area" fill="red" stroke="rgba(0,0,0,0)" stroke-width="1" opacity="0">
                <rect width="440" height="104" stroke="none"/>
                <rect x="0.5" y="0.5" width="439" height="103" fill="none"/>
              </g>
              <g id="Item-5" data-name="Item" transform="translate(0 72)">
                <g id="Placement_Area-16" data-name="Placement Area" fill="red" stroke="rgba(0,0,0,0)" stroke-width="1" opacity="0">
                  <rect width="440" height="32" stroke="none"/>
                  <rect x="0.5" y="0.5" width="439" height="31" fill="none"/>
                </g>
                <text id="Text-10" data-name="Text" transform="translate(12 20)" fill="#505050" font-size="14" font-family="AdobeClean-Regular, Adobe Clean"><tspan x="0" y="0">General</tspan></text>
              </g>
              <g id="Item-6" data-name="Item" transform="translate(0 36)">
                <g id="Placement_Area-17" data-name="Placement Area" fill="red" stroke="rgba(0,0,0,0)" stroke-width="1" opacity="0">
                  <rect width="440" height="32" stroke="none"/>
                  <rect x="0.5" y="0.5" width="439" height="31" fill="none"/>
                </g>
                <text id="Text-11" data-name="Text" transform="translate(12 20)" fill="#505050" font-size="14" font-family="AdobeClean-Regular, Adobe Clean"><tspan x="0" y="0">Public</tspan></text>
              </g>
              <g id="Item-7" data-name="Item">
                <g id="Placement_Area-18" data-name="Placement Area" fill="red" stroke="rgba(0,0,0,0)" stroke-width="1" opacity="0">
                  <rect width="440" height="32" stroke="none"/>
                  <rect x="0.5" y="0.5" width="439" height="31" fill="none"/>
                </g>
                <text id="Text-12" data-name="Text" transform="translate(12 20)" fill="#505050" font-size="14" font-family="AdobeClean-Regular, Adobe Clean"><tspan x="0" y="0">Non-business</tspan></text>
              </g>
              <g id="Item-8" data-name="Item" transform="translate(0 -36)">
                <g id="Placement_Area-19" data-name="Placement Area" fill="red" stroke="rgba(0,0,0,0)" stroke-width="1" opacity="0">
                  <rect width="440" height="32" stroke="none"/>
                  <rect x="0.5" y="0.5" width="439" height="31" fill="none"/>
                </g>
                <text id="Text-13" data-name="Text" transform="translate(12 20)" fill="#505050" font-size="14" font-family="AdobeClean-Regular, Adobe Clean"><tspan x="0" y="0">No sensitivity label</tspan></text>
              </g>
            </g>
          </g>
        </g>
        <g id="Button" transform="translate(315.787 465)">
          <g id="Placement_Area-20" data-name="Placement Area" fill="red" stroke="rgba(0,0,0,0)" stroke-width="1" opacity="0">
            <rect width="72" height="32" stroke="none"/>
            <rect x="0.5" y="0.5" width="71" height="31" fill="none"/>
          </g>
          <g id="Background-3" data-name="Background" fill="rgba(200,0,0,0)" stroke="#747474" stroke-width="2">
            <rect width="72" height="32" rx="16" stroke="none"/>
            <rect x="1" y="1" width="70" height="30" rx="15" fill="none"/>
          </g>
          <text id="Text-14" data-name="Text" transform="translate(17 20)" fill="#747474" font-size="14" font-family="AdobeClean-Bold, Adobe Clean" font-weight="700"><tspan x="0" y="0">Cancel</tspan></text>
        </g>
        <g id="Button-2" data-name="Button" transform="translate(405 465)">
          <g id="Placement_Area-21" data-name="Placement Area" fill="red" stroke="rgba(0,0,0,0)" stroke-width="1" opacity="0">
            <rect width="72" height="32" stroke="none"/>
            <rect x="0.5" y="0.5" width="71" height="31" fill="none"/>
          </g>
          <g id="Background-4" data-name="Background" fill="#1473e6" stroke="rgba(0,0,0,0)" stroke-width="1">
            <rect width="72" height="32" rx="16" stroke="none"/>
            <rect x="0.5" y="0.5" width="71" height="31" rx="15.5" fill="none"/>
          </g>
          <text id="Text-15" data-name="Text" transform="translate(19 20)" fill="#fff" font-size="14" font-family="AdobeClean-Bold, Adobe Clean" font-weight="700"><tspan x="0" y="0">Apply</tspan></text>
        </g>
        <g id="Action_button" data-name="Action button" transform="translate(448 35)">
          <g id="Placement_Area-22" data-name="Placement Area" fill="red" stroke="rgba(0,0,0,0)" stroke-width="1" opacity="0">
            <rect width="32" height="32" stroke="none"/>
            <rect x="0.5" y="0.5" width="31" height="31" fill="none"/>
          </g>
          <rect id="Background-5" data-name="Background" width="32" height="32" rx="4" fill="rgba(255,0,0,0)"/>
          <g id="Icon-3" data-name="Icon">
            <g id="Canvas-3" data-name="Canvas" transform="translate(7 7)" fill="#6e6e6e" stroke="#6e6e6e" stroke-width="1" opacity="0">
              <rect width="18" height="18" stroke="none"/>
              <rect x="0.5" y="0.5" width="17" height="17" fill="none"/>
            </g>
            <path id="Path_595039" data-name="Path 595039" d="M9,1a8,8,0,1,0,8,8A8,8,0,0,0,9,1Zm.024,13.438a1.345,1.345,0,0,1-.116-2.688q.058,0,.116,0a1.31,1.31,0,0,1,1.4,1.217q0,.059,0,.118a1.291,1.291,0,0,1-1.4,1.353Zm1.783-6.409-.1.1c-.394.415-.842.884-.842,1.175a1.386,1.386,0,0,0,.18.674l.072.139-.057.215a.309.309,0,0,1-.283.189H8.436a.434.434,0,0,1-.325-.117,2.056,2.056,0,0,1-.423-1.262A3.059,3.059,0,0,1,8.8,7.07c.1-.109.195-.21.288-.3.314-.326.507-.536.507-.758,0-.154,0-.622-.893-.622a2.959,2.959,0,0,0-1.58.459.3.3,0,0,1-.326-.01l-.119-.085L6.649,5.53V4.08a.44.44,0,0,1,.2-.41A4.138,4.138,0,0,1,9,3.12a2.55,2.55,0,0,1,2.75,2.636,3.065,3.065,0,0,1-.939,2.273Z" transform="translate(7 7)" fill="#6e6e6e"/>
          </g>
        </g>
      </g>
      <g id="Group_295157" data-name="Group 295157" transform="translate(-142 -110)">
        <g id="Group_295026" data-name="Group 295026" transform="translate(-2969 7776)">
          <g id="Group_295024" data-name="Group 295024" transform="translate(3117 -7665)">
            <g id="Group_294944" data-name="Group 294944" transform="translate(619)">
              <g transform="matrix(1, 0, 0, 1, -619, -1)" filter="url(#Path_102920-2)">
                <path id="Path_102920-4" data-name="Path 102920" d="M2.76,0H517.239C518.764,0,520,1.832,520,4.093V532.907c0,2.261-1.236,4.093-2.76,4.093H2.76C1.236,537,0,535.168,0,532.907V4.093C0,1.832,1.236,0,2.76,0Z" transform="translate(700 249)" fill="#f5f5f5"/>
              </g>
              <g id="Group_294922" data-name="Group 294922" transform="translate(-1775 -1393)">
                <g id="Group_294305" data-name="Group 294305" transform="translate(1856 1615)">
                  <g id="Text_field" data-name="Text field" transform="translate(40 116)">
                    <g id="Placement_Area-23" data-name="Placement Area" fill="red" stroke="rgba(0,0,0,0)" stroke-width="1" opacity="0">
                      <rect width="440" height="32" stroke="none"/>
                      <rect x="0.5" y="0.5" width="439" height="31" fill="none"/>
                    </g>
                    <g id="Field-2" data-name="Field" fill="#fff" stroke="#cacaca" stroke-width="1">
                      <rect width="440" height="32" rx="4" stroke="none"/>
                      <rect x="0.5" y="0.5" width="439" height="31" rx="3.5" fill="none"/>
                    </g>
                    <text id="Text-16" data-name="Text" transform="translate(12 20)" fill="#8e8e8e" font-size="14" font-family="AdobeClean-It, Adobe Clean" font-style="italic"><tspan x="0" y="0">Add names of people, group or domain</tspan></text>
                  </g>
                </g>
              </g>
              <g id="Group_295070" data-name="Group 295070" transform="translate(-412 -272)">
                <g id="Rectangle_216667" data-name="Rectangle 216667" transform="translate(533 654)" fill="#fff" stroke="#e1e1e1" stroke-width="1">
                  <rect width="440" height="291" stroke="none"/>
                  <rect x="-0.5" y="-0.5" width="441" height="292" fill="none"/>
                </g>
                <g id="Mask_Group_161309" data-name="Mask Group 161309" transform="translate(412 272)" clip-path="url(#clip-path-2)">
                  <g id="Group_295019" data-name="Group 295019" transform="translate(121 390)">
                    <g id="Table" transform="translate(0 50.385)">
                      <rect id="placemeent-2" data-name="placemeent" width="440" height="50.385" transform="translate(0 0)" fill="#d7373f" opacity="0"/>
                      <text id="Text-17" data-name="Text" transform="translate(392 29.424)" fill="#6e6e6e" font-size="14" font-family="AdobeClean-Regular, Adobe Clean"><tspan x="-42.602" y="0">Change</tspan></text>
                      <g id="Group_294973" data-name="Group 294973" transform="translate(12 4.113)">
                        <g id="Group_294972" data-name="Group 294972">
                          <g id="Group_294969" data-name="Group 294969">
                            <text id="Text-18" data-name="Text" transform="translate(0 34.565)" fill="#4b4b4b" font-size="14" font-family="AdobeClean-Regular, Adobe Clean"><tspan x="0" y="0">grace@email.com</tspan></text>
                            <text id="Text-19" data-name="Text" transform="translate(0 16)" fill="#2c2c2c" font-size="16" font-family="AdobeClean-Bold, Adobe Clean" font-weight="700"><tspan x="0" y="0">Grace Hardy</tspan></text>
                          </g>
                        </g>
                      </g>
                      <g id="Decorative_icon-2" data-name="Decorative icon" transform="translate(392 7.198)">
                        <g id="Placement_Area-24" data-name="Placement Area" fill="red" stroke="rgba(0,0,0,0)" stroke-width="1" opacity="0">
                          <rect width="32" height="32.905" stroke="none"/>
                          <rect x="0.5" y="0.5" width="31" height="31.905" fill="none"/>
                        </g>
                        <rect id="Background-6" data-name="Background" width="32" height="32.905" rx="4" fill="rgba(255,0,0,0)"/>
                        <g id="Icon-4" data-name="Icon" transform="translate(7 7.198)">
                          <g id="Canvas-4" data-name="Canvas" fill="#6e6e6e" stroke="#6e6e6e" stroke-width="1" opacity="0">
                            <rect width="18" height="18.509" stroke="none"/>
                            <rect x="0.5" y="0.5" width="17" height="17.509" fill="none"/>
                          </g>
                          <path id="Path_596364" data-name="Path 596364" d="M4,7.038a1.029,1.029,0,0,1,.618-.947.98.98,0,0,1,1.088.221L8.995,9.692l3.289-3.379a.98.98,0,0,1,1.374.014,1.049,1.049,0,0,1,.063,1.411l-.024.025-4,4.1a.981.981,0,0,1-1.413,0l-3.994-4.1A1.037,1.037,0,0,1,4,7.038Z" transform="translate(0 0.17)" fill="#6e6e6e"/>
                        </g>
                      </g>
                    </g>
                    <g id="Table-2" data-name="Table" transform="translate(0 100.771)">
                      <text id="Text-20" data-name="Text" transform="translate(392 28.396)" fill="#6e6e6e" font-size="14" font-family="AdobeClean-Regular, Adobe Clean"><tspan x="-28.532" y="0">Read</tspan></text>
                      <g id="Group_294977" data-name="Group 294977" transform="translate(0 0)">
                        <rect id="placemeent-3" data-name="placemeent" width="440" height="50.385" fill="#d7373f" opacity="0"/>
                        <g id="Group_294976" data-name="Group 294976" transform="translate(12 4.113)">
                          <g id="Group_294974" data-name="Group 294974">
                            <text id="Text-21" data-name="Text" transform="translate(0 34.565)" fill="#4b4b4b" font-size="14" font-family="AdobeClean-Regular, Adobe Clean"><tspan x="0" y="0">Jeessicalee@email.com</tspan></text>
                            <text id="Text-22" data-name="Text" transform="translate(0 16)" fill="#2c2c2c" font-size="16" font-family="AdobeClean-Bold, Adobe Clean" font-weight="700"><tspan x="0" y="0">Jessica Lee</tspan></text>
                          </g>
                        </g>
                      </g>
                      <g id="Decorative_icon-3" data-name="Decorative icon" transform="translate(392 7.198)">
                        <g id="Placement_Area-25" data-name="Placement Area" fill="red" stroke="rgba(0,0,0,0)" stroke-width="1" opacity="0">
                          <rect width="32" height="32.905" stroke="none"/>
                          <rect x="0.5" y="0.5" width="31" height="31.905" fill="none"/>
                        </g>
                        <rect id="Background-7" data-name="Background" width="32" height="32.905" rx="4" fill="rgba(255,0,0,0)"/>
                        <g id="Icon-5" data-name="Icon" transform="translate(7 7.198)">
                          <g id="Canvas-5" data-name="Canvas" fill="#6e6e6e" stroke="#6e6e6e" stroke-width="1" opacity="0">
                            <rect width="18" height="18.509" stroke="none"/>
                            <rect x="0.5" y="0.5" width="17" height="17.509" fill="none"/>
                          </g>
                          <path id="Path_596365" data-name="Path 596365" d="M4,7.038a1.029,1.029,0,0,1,.618-.947.98.98,0,0,1,1.088.221L8.995,9.692l3.289-3.379a.98.98,0,0,1,1.374.014,1.049,1.049,0,0,1,.063,1.411l-.024.025-4,4.1a.981.981,0,0,1-1.413,0l-3.994-4.1A1.037,1.037,0,0,1,4,7.038Z" transform="translate(0 0.17)" fill="#6e6e6e"/>
                        </g>
                      </g>
                    </g>
                    <g id="Table-3" data-name="Table" transform="translate(0 151.155)">
                      <text id="Text-23" data-name="Text" transform="translate(392 28.396)" fill="#6e6e6e" font-size="14" font-family="AdobeClean-Regular, Adobe Clean"><tspan x="-43.526" y="0">Custom</tspan></text>
                      <rect id="placemeent-4" data-name="placemeent" width="440" height="50.385" transform="translate(0 0)" fill="#d7373f" opacity="0"/>
                      <g id="Group_294983" data-name="Group 294983" transform="translate(12 4.113)">
                        <g id="Group_294982" data-name="Group 294982">
                          <g id="Group_294978" data-name="Group 294978">
                            <text id="Text-24" data-name="Text" transform="translate(0 34.565)" fill="#4b4b4b" font-size="14" font-family="AdobeClean-Regular, Adobe Clean"><tspan x="0" y="0">alextlr@email.com</tspan></text>
                            <text id="Text-25" data-name="Text" transform="translate(0 16)" fill="#2c2c2c" font-size="16" font-family="AdobeClean-Bold, Adobe Clean" font-weight="700"><tspan x="0" y="0">Alex Taylor</tspan></text>
                          </g>
                        </g>
                      </g>
                      <g id="Decorative_icon-4" data-name="Decorative icon" transform="translate(392 7.198)">
                        <g id="Placement_Area-26" data-name="Placement Area" fill="red" stroke="rgba(0,0,0,0)" stroke-width="1" opacity="0">
                          <rect width="32" height="32.905" stroke="none"/>
                          <rect x="0.5" y="0.5" width="31" height="31.905" fill="none"/>
                        </g>
                        <rect id="Background-8" data-name="Background" width="32" height="32.905" rx="4" fill="rgba(255,0,0,0)"/>
                        <g id="Icon-6" data-name="Icon" transform="translate(7 7.198)">
                          <g id="Canvas-6" data-name="Canvas" fill="#6e6e6e" stroke="#6e6e6e" stroke-width="1" opacity="0">
                            <rect width="18" height="18.509" stroke="none"/>
                            <rect x="0.5" y="0.5" width="17" height="17.509" fill="none"/>
                          </g>
                          <path id="Path_596366" data-name="Path 596366" d="M4,7.038a1.029,1.029,0,0,1,.618-.947.98.98,0,0,1,1.088.221L8.995,9.692l3.289-3.379a.98.98,0,0,1,1.374.014,1.049,1.049,0,0,1,.063,1.411l-.024.025-4,4.1a.981.981,0,0,1-1.413,0l-3.994-4.1A1.037,1.037,0,0,1,4,7.038Z" transform="translate(0 0.17)" fill="#6e6e6e"/>
                        </g>
                      </g>
                    </g>
                    <g id="Table-4" data-name="Table" transform="translate(0 251.926)">
                      <text id="Text-26" data-name="Text" transform="translate(392 28.396)" fill="#6e6e6e" font-size="14" font-family="AdobeClean-Regular, Adobe Clean"><tspan x="-43.526" y="0">Custom</tspan></text>
                      <rect id="placemeent-5" data-name="placemeent" width="440" height="50.385" transform="translate(0 0)" fill="#d7373f" opacity="0"/>
                      <g id="Group_294990" data-name="Group 294990" transform="translate(12 4.113)">
                        <g id="Group_294989" data-name="Group 294989">
                          <g id="Group_294984" data-name="Group 294984">
                            <text id="Text-27" data-name="Text" transform="translate(0 34.565)" fill="#4b4b4b" font-size="14" font-family="AdobeClean-Regular, Adobe Clean"><tspan x="0" y="0">alextlr@email.com</tspan></text>
                            <text id="Text-28" data-name="Text" transform="translate(0 16)" fill="#2c2c2c" font-size="16" font-family="AdobeClean-Bold, Adobe Clean" font-weight="700"><tspan x="0" y="0">Adam McCathy</tspan></text>
                          </g>
                        </g>
                      </g>
                      <g id="Decorative_icon-5" data-name="Decorative icon" transform="translate(392 7.198)">
                        <g id="Placement_Area-27" data-name="Placement Area" fill="red" stroke="rgba(0,0,0,0)" stroke-width="1" opacity="0">
                          <rect width="32" height="32" stroke="none"/>
                          <rect x="0.5" y="0.5" width="31" height="31" fill="none"/>
                        </g>
                        <rect id="Background-9" data-name="Background" width="32" height="32" rx="4" fill="rgba(255,0,0,0)"/>
                        <g id="Icon-7" data-name="Icon">
                          <g id="Canvas-7" data-name="Canvas" transform="translate(7 7)" fill="#2c2c2c" stroke="#2c2c2c" stroke-width="1" opacity="0">
                            <rect width="18" height="18" stroke="none"/>
                            <rect x="0.5" y="0.5" width="17" height="17" fill="none"/>
                          </g>
                          <path id="Path_596739" data-name="Path 596739" d="M4,7.01A1,1,0,0,1,5.706,6.3L8.995,9.59,12.284,6.3a1,1,0,0,1,1.437,1.386l-.024.025-4,3.992a1,1,0,0,1-1.413,0L4.293,7.716A1,1,0,0,1,4,7.01Z" transform="translate(7 7)" fill="#2c2c2c"/>
                        </g>
                      </g>
                    </g>
                    <g id="Table-5" data-name="Table" transform="translate(0 201.541)">
                      <text id="Text-29" data-name="Text" transform="translate(392 28.396)" fill="#6e6e6e" font-size="14" font-family="AdobeClean-Regular, Adobe Clean"><tspan x="-64.092" y="0">Full control</tspan></text>
                      <rect id="placemeent-6" data-name="placemeent" width="440" height="50.385" transform="translate(0 0)" fill="#d7373f" opacity="0"/>
                      <g id="Group_294996" data-name="Group 294996" transform="translate(12 4.113)">
                        <g id="Group_294995" data-name="Group 294995">
                          <g id="Group_294991" data-name="Group 294991">
                            <text id="Text-30" data-name="Text" transform="translate(0 34.565)" fill="#4b4b4b" font-size="14" font-family="AdobeClean-Regular, Adobe Clean"><tspan x="0" y="0">davidgates@email.com</tspan></text>
                            <text id="Text-31" data-name="Text" transform="translate(0 16)" fill="#2c2c2c" font-size="16" font-family="AdobeClean-Bold, Adobe Clean" font-weight="700"><tspan x="0" y="0">David Gates</tspan></text>
                          </g>
                        </g>
                      </g>
                      <g id="Decorative_icon-6" data-name="Decorative icon" transform="translate(392 7.198)">
                        <g id="Placement_Area-28" data-name="Placement Area" fill="red" stroke="rgba(0,0,0,0)" stroke-width="1" opacity="0">
                          <rect width="32" height="32.905" stroke="none"/>
                          <rect x="0.5" y="0.5" width="31" height="31.905" fill="none"/>
                        </g>
                        <rect id="Background-10" data-name="Background" width="32" height="32.905" rx="4" fill="rgba(255,0,0,0)"/>
                        <g id="Icon-8" data-name="Icon" transform="translate(7 7.198)">
                          <g id="Canvas-8" data-name="Canvas" fill="#6e6e6e" stroke="#6e6e6e" stroke-width="1" opacity="0">
                            <rect width="18" height="18.509" stroke="none"/>
                            <rect x="0.5" y="0.5" width="17" height="17.509" fill="none"/>
                          </g>
                          <path id="Path_596367" data-name="Path 596367" d="M4,7.038a1.029,1.029,0,0,1,.618-.947.98.98,0,0,1,1.088.221L8.995,9.692l3.289-3.379a.98.98,0,0,1,1.374.014,1.049,1.049,0,0,1,.063,1.411l-.024.025-4,4.1a.981.981,0,0,1-1.413,0l-3.994-4.1A1.037,1.037,0,0,1,4,7.038Z" transform="translate(0 0.17)" fill="#6e6e6e"/>
                        </g>
                      </g>
                    </g>
                    <g id="Group_295021" data-name="Group 295021" transform="translate(0 0)">
                      <rect id="placemeent-7" data-name="placemeent" width="440" height="50.385" fill="#d7373f" opacity="0"/>
                      <g id="Table-6" data-name="Table" transform="translate(12 4.113)">
                        <text id="Text-32" data-name="Text" transform="translate(380 24.283)" fill="#8e8e8e" font-size="14" font-family="AdobeClean-Regular, Adobe Clean"><tspan x="-38.626" y="0">Owner</tspan></text>
                        <g id="Group_295000" data-name="Group 295000">
                          <g id="Group_294999" data-name="Group 294999">
                            <g id="Group_294997" data-name="Group 294997">
                              <text id="Text-33" data-name="Text" transform="translate(0 34.565)" fill="#4b4b4b" font-size="14" font-family="AdobeClean-Regular, Adobe Clean"><tspan x="0" y="0">John@email.com</tspan></text>
                              <text id="Text-34" data-name="Text" transform="translate(0 16)" fill="#2c2c2c" font-size="16" font-family="AdobeClean-Bold, Adobe Clean" font-weight="700"><tspan x="0" y="0">John Doe (you)</tspan></text>
                            </g>
                          </g>
                        </g>
                      </g>
                    </g>
                  </g>
                </g>
              </g>
              <text id="Heading_3-3" data-name="Heading 3" transform="translate(139.999 311)" fill="#2c2c2c" font-size="18" font-family="AdobeClean-Bold, Adobe Clean" font-weight="700"><tspan x="0" y="0">Edit label permission</tspan></text>
              <g id="Action_button-2" data-name="Action button" transform="translate(108 288)">
                <g id="Placement_Area-29" data-name="Placement Area" fill="red" stroke="rgba(0,0,0,0)" stroke-width="1" opacity="0">
                  <rect width="32" height="32" stroke="none"/>
                  <rect x="0.5" y="0.5" width="31" height="31" fill="none"/>
                </g>
                <rect id="Background-11" data-name="Background" width="32" height="32" rx="4" fill="rgba(255,0,0,0)"/>
                <g id="Icon-9" data-name="Icon">
                  <g id="Canvas-9" data-name="Canvas" transform="translate(7 7)" fill="#6e6e6e" stroke="#6e6e6e" stroke-width="1" opacity="0">
                    <rect width="18" height="18" stroke="none"/>
                    <rect x="0.5" y="0.5" width="17" height="17" fill="none"/>
                  </g>
                  <path id="Path_596734" data-name="Path 596734" d="M6,9a.994.994,0,0,0,.293.7l3.992,3.99a1,1,0,1,0,1.436-1.386l-.024-.024L8.41,9,11.7,5.715A1,1,0,0,0,10.309,4.28l-.024.024L6.293,8.295A.994.994,0,0,0,6,9Z" transform="translate(7 7)" fill="#6e6e6e"/>
                </g>
              </g>
              <g id="Picker_menu" data-name="Picker menu" transform="translate(323 513)">
                <g id="Placement_Area-30" data-name="Placement Area" fill="red" stroke="rgba(0,0,0,0)" stroke-width="1" opacity="0">
                  <rect width="218" height="132" stroke="none"/>
                  <rect x="0.5" y="0.5" width="217" height="131" fill="none"/>
                </g>
                <g transform="matrix(1, 0, 0, 1, -942, -514)" filter="url(#Background)">
                  <g id="Background-12" data-name="Background" transform="translate(942 514)" fill="#fff" stroke="#cacaca" stroke-width="1">
                    <rect width="218" height="136" rx="4" stroke="none"/>
                    <rect x="0.5" y="0.5" width="217" height="135" rx="3.5" fill="none"/>
                  </g>
                </g>
                <g id="Menu_Item" data-name="Menu Item" transform="translate(12 4)" fill="rgba(255,0,0,0)" stroke="rgba(0,0,0,0)" stroke-width="1">
                  <rect width="170" height="32" stroke="none"/>
                  <rect x="0.5" y="0.5" width="169" height="31" fill="none"/>
                </g>
                <text id="Read_can_copy_and_print_" data-name="Read (can copy and print)" transform="translate(12 24)" fill="#4b4b4b" font-size="14" font-family="AdobeClean-Regular, Adobe Clean"><tspan x="0" y="0">Read (can copy and print)</tspan></text>
                <g id="Menu_Item-2" data-name="Menu Item" transform="translate(12 36)" fill="rgba(255,0,0,0)" stroke="rgba(0,0,0,0)" stroke-width="1">
                  <rect width="129" height="32" stroke="none"/>
                  <rect x="0.5" y="0.5" width="128" height="31" fill="none"/>
                </g>
                <text id="Change_can_print_" data-name="Change (can print)" transform="translate(12 56)" fill="#4b4b4b" font-size="14" font-family="AdobeClean-Regular, Adobe Clean"><tspan x="0" y="0">Change (can print)</tspan></text>
                <g id="Menu_Item-3" data-name="Menu Item" transform="translate(12 68)" fill="rgba(255,0,0,0)" stroke="rgba(0,0,0,0)" stroke-width="1">
                  <rect width="88" height="32" stroke="none"/>
                  <rect x="0.5" y="0.5" width="87" height="31" fill="none"/>
                </g>
                <text id="Full_control" data-name="Full control" transform="translate(12 88)" fill="#4b4b4b" font-size="14" font-family="AdobeClean-Regular, Adobe Clean"><tspan x="0" y="0">Full control</tspan></text>
                <g id="Menu_Item-4" data-name="Menu Item" transform="translate(12 100)" fill="rgba(255,0,0,0)" stroke="rgba(0,0,0,0)" stroke-width="1">
                  <rect width="71" height="32" stroke="none"/>
                  <rect x="0.5" y="0.5" width="70" height="31" fill="none"/>
                </g>
                <text id="Remove" transform="translate(12 120)" fill="#4b4b4b" font-size="14" font-family="AdobeClean-Regular, Adobe Clean"><tspan x="0" y="0">Remove</tspan></text>
              </g>
            </g>
          </g>
          <g id="Action_button-3" data-name="Action button" transform="translate(3846 -6952)">
            <g id="Placement_Area-31" data-name="Placement Area" fill="red" stroke="rgba(0,0,0,0)" stroke-width="1" opacity="0">
              <rect width="102" height="32" stroke="none"/>
              <rect x="0.5" y="0.5" width="101" height="31" fill="none"/>
            </g>
            <rect id="Background-13" data-name="Background" width="102" height="32" rx="4" fill="rgba(255,0,0,0)"/>
            <text id="Text-35" data-name="Text" transform="translate(12 20)" fill="#0d66d0" font-size="14" font-family="AdobeClean-Regular, Adobe Clean"><tspan x="0" y="0">More options</tspan></text>
          </g>
          <g id="Action_button-4" data-name="Action button" transform="translate(4273 -7377)">
            <g id="Placement_Area-32" data-name="Placement Area" fill="red" stroke="rgba(0,0,0,0)" stroke-width="1" opacity="0">
              <rect width="24" height="24" stroke="none"/>
              <rect x="0.5" y="0.5" width="23" height="23" fill="none"/>
            </g>
            <rect id="Background-14" data-name="Background" width="24" height="24" rx="4" fill="rgba(255,0,0,0)"/>
            <g id="Icon-10" data-name="Icon">
              <g id="Canvas-10" data-name="Canvas" transform="translate(4 4)" fill="#6e6e6e" stroke="#6e6e6e" stroke-width="1" opacity="0">
                <rect width="16" height="16" stroke="none"/>
                <rect x="0.5" y="0.5" width="15" height="15" fill="none"/>
              </g>
              <path id="Path_596737" data-name="Path 596737" d="M12.126,3.327,8.355,7.1,4.584,3.327a.444.444,0,0,0-.628,0l-.629.628a.444.444,0,0,0,0,.628L7.1,8.355,3.327,12.126a.444.444,0,0,0,0,.628l.628.629a.444.444,0,0,0,.628,0L8.355,9.612l3.771,3.772a.444.444,0,0,0,.628,0l.629-.628a.444.444,0,0,0,0-.628L9.612,8.355l3.772-3.771a.444.444,0,0,0,0-.628l-.628-.629a.444.444,0,0,0-.629,0Z" transform="translate(3.645 3.645)" fill="#6e6e6e"/>
            </g>
          </g>
        </g>
      </g>
      <text id="Light_mode_" data-name="Light mode " transform="translate(114 191)" font-size="40" font-family="PTSans-Italic, PT Sans" font-style="italic"><tspan x="0" y="0">Light mode </tspan></text>
    </g>
  </g>
</svg>
