<svg xmlns="http://www.w3.org/2000/svg" xmlns:xlink="http://www.w3.org/1999/xlink" width="55.697" height="48" viewBox="0 0 55.697 48">
  <defs>
    <clipPath id="clip-path">
      <path id="Path_40160" data-name="Path 40160" d="M69.029,67.522c.137-.72,1.538-1.713,3.684-2.639-1.234,2.013-2.433,3.247-3.161,3.247a.518.518,0,0,1-.527-.505A.526.526,0,0,1,69.029,67.522Zm6.742-5.765c.283-.677.548-1.349.775-2,.253.428.51.8.775,1.165a13.848,13.848,0,0,0,1.324,1.568h0l.043.043c-.655.124-1.332.278-2.017.458-.553.141-1.114.3-1.713.5.3-.583.587-1.174.814-1.713ZM75.5,53.5h0a.548.548,0,0,1,.467-.291c.5,0,.6.561.608,1.032a12.387,12.387,0,0,1-.647,3.285C75.184,55.661,75.124,54.1,75.5,53.5Zm7.68,9.295c.33.069.857.278.75.9-.069.364-.428.6-.951.6a1.811,1.811,0,0,1-.428-.051,6.682,6.682,0,0,1-2.682-1.379,10.468,10.468,0,0,1,3.3-.069ZM69.9,68.768c1.812,0,3.709-2.861,4.712-4.6.728-.248,1.478-.471,2.219-.668.857-.218,1.641-.394,2.373-.518a6.759,6.759,0,0,0,4.429,1.94c1.037,0,1.409-.428,1.542-.771a1.084,1.084,0,0,0,.069-.394,1.169,1.169,0,0,0-.287-.78A4.144,4.144,0,0,0,82,62.18a16.782,16.782,0,0,0-2.621.231A12.541,12.541,0,0,1,77.792,60.6a15.95,15.95,0,0,1-.985-1.525A14.1,14.1,0,0,0,77.643,55c0-1.122-.428-2.317-1.636-2.317a1.144,1.144,0,0,0-.981.565c-.557.947-.291,3.024.647,5.071-.351,1.032-.724,2.009-1.174,3.08a26.942,26.942,0,0,1-1.336,2.733c-2.776,1.092-4.476,2.3-4.669,3.307a1.041,1.041,0,0,0,.334.985,1.559,1.559,0,0,0,1.062.347Z" transform="translate(-68.473 -52.68)" fill="none"/>
    </clipPath>
    <clipPath id="clip-path-2">
      <path id="Path_40161" data-name="Path 40161" d="M118.055,33.028a1.662,1.662,0,0,1,.368-.167c.116,0,.356.278.428.368A11.317,11.317,0,0,1,120.7,35.8l-.6-.227-.24-.094c-.908-.351-1.833-.668-2.767-.951l.308-1.114Zm10.28-1.923a6.746,6.746,0,0,0-6.241-3.2h-3.183a3.427,3.427,0,0,0-.394-2.317l-2.6-4.647a3.427,3.427,0,0,0-2.095-1.632L101.8,15.985a3.208,3.208,0,0,0-3.945,2.236l-.3,1.071a.643.643,0,0,0,1.238.343l.3-1.067a1.923,1.923,0,0,1,2.369-1.358l12.028,3.32a2.142,2.142,0,0,1,1.315,1.028l2.609,4.647a2.142,2.142,0,0,1,.2,1.649l-1.752,6.339c-.664-.176-1.328-.343-2-.484a3.679,3.679,0,0,0-1.675-.064,1.2,1.2,0,0,0-.968,1.148,3,3,0,0,0,.891,2.326,7.684,7.684,0,0,0,1.773,1.285l.7.428-1.688,6.121a1.91,1.91,0,0,1-.831,1.118.642.642,0,0,0,.681,1.088,3.2,3.2,0,0,0,1.392-1.863l1.589-5.812.236.137c.857.5,1.713,1.015,2.549,1.581.467.326.929.677,1.379,1.024a25.944,25.944,0,0,0,2.236,1.542,13.249,13.249,0,0,0,3.979,1.611,6.665,6.665,0,0,0,1.465.188,3.559,3.559,0,0,0,1.538-.317.643.643,0,1,0-.553-1.161,3.345,3.345,0,0,1-2.167.039,11.968,11.968,0,0,1-3.594-1.456,24.621,24.621,0,0,1-2.112-1.473c-.458-.351-.934-.715-1.426-1.058-.857-.6-1.76-1.122-2.634-1.636l-2.082-1.216a6.6,6.6,0,0,1-1.491-1.062,1.769,1.769,0,0,1-.548-1.315v-.03a2.643,2.643,0,0,1,1.1.077,37.389,37.389,0,0,1,5.8,1.713l.236.09a10.07,10.07,0,0,0,2.142.66.647.647,0,0,0,.732-.535.638.638,0,0,0-.343-.664.638.638,0,0,0-.026-.257,10.376,10.376,0,0,0-2.322-3.577,1.97,1.97,0,0,0-1.354-.81,1.581,1.581,0,0,0-.587.107l.72-2.6a.638.638,0,0,0,.3.077h3.2a7.646,7.646,0,0,1,1.889.163,7.784,7.784,0,0,1,3.4,2.626l3.118,3.5a.643.643,0,0,0,.959-.857Z" transform="translate(-97.537 -15.868)" fill="none"/>
    </clipPath>
    <clipPath id="clip-path-3">
      <path id="Path_40162" data-name="Path 40162" d="M73.523,30.363,79.339,36.2a3.641,3.641,0,0,1,1.071,2.568V66.232a3.276,3.276,0,0,1-3.277,3.274H51.562a3.276,3.276,0,0,1-3.277-3.262V32.559a3.276,3.276,0,0,1,3.277-3.274H70.927a3.689,3.689,0,0,1,2.6,1.079ZM47,32.559V66.249A4.564,4.564,0,0,0,51.562,70.8H77.138A4.564,4.564,0,0,0,81.7,66.245V38.787a4.916,4.916,0,0,0-1.443-3.51l-5.838-5.821A4.988,4.988,0,0,0,70.905,28H51.562A4.564,4.564,0,0,0,47,32.559Z" transform="translate(-47 -28)" fill="none"/>
    </clipPath>
    <clipPath id="clip-path-4">
      <path id="Path_40163" data-name="Path 40163" d="M64.428,100.857h19.7a.428.428,0,1,0,0-.857h-19.7a.428.428,0,1,0,0,.857Z" transform="translate(-64 -100)" fill="none"/>
    </clipPath>
    <clipPath id="clip-path-5">
      <path id="Path_40164" data-name="Path 40164" d="M64.428,110.857h19.7a.428.428,0,1,0,0-.857h-19.7a.428.428,0,1,0,0,.857Z" transform="translate(-64 -110)" fill="none"/>
    </clipPath>
  </defs>
  <g id="WorkWithAPDF_image" data-name="WorkWithAPDF image" transform="translate(-5 -5.008)">
    <g id="Group_71520" data-name="Group 71520" transform="translate(14.19 20.761)" clip-path="url(#clip-path)">
      <rect id="Rectangle_144849" data-name="Rectangle 144849" width="21.023" height="20.38" transform="translate(-2.139 -2.15)" fill="#b3b3b3"/>
    </g>
    <g id="Group_71521" data-name="Group 71521" transform="translate(26.612 5.008)" clip-path="url(#clip-path-2)">
      <rect id="Rectangle_144850" data-name="Rectangle 144850" width="38.37" height="35.637" transform="translate(-2.14 -2.145)" fill="#b3b3b3"/>
    </g>
    <g id="Group_71522" data-name="Group 71522" transform="translate(5 10.205)" clip-path="url(#clip-path-3)">
      <rect id="Rectangle_144851" data-name="Rectangle 144851" width="38.979" height="47.084" transform="translate(-2.142 -2.14)" fill="#b3b3b3"/>
    </g>
    <g id="Group_71523" data-name="Group 71523" transform="translate(12.282 41.022)" clip-path="url(#clip-path-4)">
      <rect id="Rectangle_144852" data-name="Rectangle 144852" width="24.843" height="5.14" transform="translate(-2.142 -2.142)" fill="#b3b3b3"/>
    </g>
    <g id="Group_71524" data-name="Group 71524" transform="translate(12.282 45.298)" clip-path="url(#clip-path-5)">
      <rect id="Rectangle_144853" data-name="Rectangle 144853" width="24.843" height="5.14" transform="translate(-2.142 -2.142)" fill="#b3b3b3"/>
    </g>
  </g>
</svg>
