<?xml version="1.0" encoding="UTF-8"?>
<svg width="183px" height="184px" viewBox="0 0 183 184" version="1.1" xmlns="http://www.w3.org/2000/svg" xmlns:xlink="http://www.w3.org/1999/xlink">
    <!-- Generator: Sketch 50.2 (55047) - http://www.bohemiancoding.com/sketch -->
    <title>Group 13</title>
    <desc>Created with Sketch.</desc>
    <defs>
        <linearGradient x1="54.8968991%" y1="54.0111764%" x2="68.8160683%" y2="148.447213%" id="linearGradient-1">
            <stop stop-color="#FFF7E1" offset="0%"></stop>
            <stop stop-color="#FFE0BF" offset="100%"></stop>
        </linearGradient>
        <path d="M52.0749364,132.009517 L52.0866226,132.007287 C56.6518142,155.914923 73.6179744,175.581019 96.6057586,183.587139 C119.593543,191.593259 145.102403,186.729967 163.533513,170.819933 C181.964622,154.9099 190.507322,130.380512 185.942131,106.472875 C181.376939,82.565239 164.410779,62.8991428 141.422995,54.893023 C134.55142,52.4969067 127.346768,51.2239604 120.07497,51.1111195 C119.856812,51.1278329 119.636358,51.1363435 119.413917,51.1363435 C114.700788,51.1363435 110.880042,47.3155977 110.880042,42.602469 C110.880042,38.0232633 114.486741,34.2864472 119.014377,34.0777821 L119.014377,34.0685946 C119.115364,34.0685946 119.216326,34.0687734 119.317261,34.0691307 C119.349437,34.0687736 119.381656,34.0685946 119.413917,34.0685946 C119.47646,34.0685946 119.538847,34.0692674 119.601069,34.0706062 C149.807147,34.2777617 177.65906,50.4717104 192.772884,76.6543378 C207.984511,103.006396 207.984511,135.473766 192.772884,161.825824 C177.561256,188.177882 149.446149,204.411568 119.014377,204.411568 C88.5826045,204.411568 60.4674968,188.177882 45.2558694,161.825824 C40.6640271,153.872098 37.3905026,145.239477 35.5568945,136.247158 C35.2982961,135.431913 35.158783,134.563655 35.158783,133.662813 C35.158783,128.947377 38.9813992,125.124761 43.6968352,125.124761 C47.8466405,125.124761 51.3049723,128.085311 52.0749364,132.009517 Z" id="path-2"></path>
        <filter x="-5.6%" y="-5.6%" width="113.6%" height="113.5%" filterUnits="objectBoundingBox" id="filter-3">
            <feOffset dx="2" dy="2" in="SourceAlpha" result="shadowOffsetOuter1"></feOffset>
            <feGaussianBlur stdDeviation="3.5" in="shadowOffsetOuter1" result="shadowBlurOuter1"></feGaussianBlur>
            <feColorMatrix values="0 0 0 0 0.798283376   0 0 0 0 0.694962551   0 0 0 0 0.585184174  0 0 0 1 0" type="matrix" in="shadowBlurOuter1"></feColorMatrix>
        </filter>
    </defs>
    <g id="KohlsZzzZoo" stroke="none" stroke-width="1" fill="none" fill-rule="evenodd">
        <g id="WorkPiece_Sample" transform="translate(-815.000000, -1617.000000)">
            <g id="Group-13" transform="translate(784.000000, 1588.000000)">
                <g id="Group-8">
                    <g id="Variable-segments-circle" transform="translate(0.548492, 0.000000)">
                        <path d="M120.517653,34.0685946 C150.949426,34.0685946 179.064533,50.3022799 194.276161,76.6543378 C209.487788,103.006396 209.487788,135.473766 194.276161,161.825824 C179.064533,188.177882 150.949426,204.411568 120.517653,204.411568 C90.0858813,204.411568 61.9707736,188.177882 46.7591461,161.825824 C31.5475186,135.473766 31.5475186,103.006396 46.7591461,76.6543378 C61.9707736,50.3022799 90.0858813,34.0685946 120.517653,34.0685946 L120.517653,42.5857432 C93.1350205,42.5857432 67.8305718,57.1926532 54.1349968,80.9129122 C40.4394218,104.633171 40.4394218,133.846991 54.1349968,157.56725 C67.8305718,181.287509 93.1350205,195.894419 120.517653,195.894419 C147.900286,195.894419 173.204735,181.287509 186.90031,157.56725 C200.595885,133.846991 200.595885,104.633171 186.90031,80.9129122 C173.204735,57.1926532 147.900286,42.5857432 120.517653,42.5857432 L120.517653,34.0685946 Z" id="Base-plate" fill="#FFE0BF"></path>
                        <path d="M119.014377,34.0685946 C149.446149,34.0685946 177.561256,50.3022799 192.772884,76.6543378 C207.984511,103.006396 207.984511,135.473766 192.772884,161.825824 C177.561256,188.177882 149.446149,204.411568 119.014377,204.411568 C88.5826045,204.411568 60.4674968,188.177882 45.2558694,161.825824 C40.4862661,153.56419 37.1390267,144.570081 35.3504255,135.201218 L52.0866226,132.007287 C56.6518142,155.914923 73.6179744,175.581019 96.6057586,183.587139 C119.593543,191.593259 145.102403,186.729967 163.533513,170.819933 C181.964622,154.9099 190.507322,130.380512 185.942131,106.472875 C181.376939,82.565239 164.410779,62.8991428 141.422995,54.893023 C134.217487,52.3804642 126.645742,51.1028919 119.014377,51.1028919 L119.014377,34.0685946 Z" id="Segment-72" fill="url(#linearGradient-1)" transform="translate(119.766015, 119.240081) rotate(128.000000) translate(-119.766015, -119.240081) "></path>
                        <g id="Combined-Shape">
                            <use fill="black" fill-opacity="1" filter="url(#filter-3)" xlink:href="#path-2"></use>
                            <use fill="#B2824F" fill-rule="evenodd" xlink:href="#path-2"></use>
                        </g>
                    </g>
                    <text id="72%" font-family="PTSans-Bold, PT Sans" font-size="36" font-weight="bold" letter-spacing="0.542410731" fill="#B2824F">
                        <tspan x="83.7028756" y="130.5">72%</tspan>
                    </text>
                    <text id="SALES" font-family="PTSans-Regular, PT Sans" font-size="14" font-weight="normal" letter-spacing="0.542410731" fill="#B2824F">
                        <tspan x="99.7924649" y="157.229243">SALES</tspan>
                    </text>
                </g>
            </g>
        </g>
    </g>
</svg>