<?xml version="1.0" encoding="UTF-8"?>
<svg width="925px" height="417px" viewBox="0 0 925 417" version="1.1" xmlns="http://www.w3.org/2000/svg" xmlns:xlink="http://www.w3.org/1999/xlink">
    <!-- Generator: Sketch 50.2 (55047) - http://www.bohemiancoding.com/sketch -->
    <title>Group 16</title>
    <desc>Created with Sketch.</desc>
    <defs></defs>
    <g id="KohlsZzzZoo" stroke="none" stroke-width="1" fill="none" fill-rule="evenodd">
        <g id="WorkPiece_Sample" transform="translate(-32.000000, -3670.000000)">
            <g id="Group-16" transform="translate(32.000000, 3670.000000)">
                <rect id="Rectangle-12" fill="#FFFFFF" x="0" y="0" width="925" height="417"></rect>
                <g id="Group-13" transform="translate(3.000000, 14.000000)">
                    <path d="M6,95.5 C21.3333333,95.5 53.8333333,95.5 103.5,95.5 C178,95.5 188,161.5 223.5,173 C259,184.5 284.5,133.17915 318,134.25 C351.5,135.32085 383,228.5 462.5,272.5 C542,316.5 617.733469,147.179842 686.5,134.25 C726.596458,126.710855 799.705377,129.144194 905.826758,141.550016" id="Path-13" stroke="#B2824F" stroke-width="8" opacity="0.206529018" stroke-linecap="round" stroke-linejoin="round"></path>
                    <g id="Group-12" transform="translate(82.000000, 122.000000)">
                        <g id="Group-2" transform="translate(0.693947, 0.192210)">
                            <g id="Group" transform="translate(46.409973, 49.916399) rotate(-5.000000) translate(-46.409973, -49.916399) translate(3.909973, 3.916399)">
                                <path d="M38.6159499,82.6369943 C38.9822983,82.8359352 39.546265,83.0438966 40.2977859,83.2509134 C41.8698823,83.6839692 44.2050933,84.0989222 47.2918918,84.4910209 C53.5131084,85.2812672 62.7510648,85.9750968 74.9981556,86.5710981 L74.9144314,88.2915266 C62.6265363,87.6935395 53.3492078,86.9967528 47.0748408,86.1997551 C40.2295541,85.3302367 36.993265,84.4387559 36.630286,82.8628919 C36.4589438,82.1190138 36.0870465,78.834411 35.3376989,71.6551458 C35.197644,70.3133234 35.0480651,68.8715083 34.8352368,66.8139213 C34.7746101,66.227793 34.5418148,63.9760746 34.5647149,64.1975509 C34.453006,63.1171696 34.3677778,62.293457 34.2833169,61.4781567 C33.8125364,56.9337173 33.4445515,53.416753 33.0787872,49.9830511 C32.8260482,47.6104014 32.585714,45.3859234 32.3540956,43.2789499 C30.7638925,28.8132776 29.5850506,19.9353238 28.8774864,17.7970885 C27.6560051,14.1058127 19.8680204,9.6364084 5.63404243,4.69395162 L6.19904144,3.0667885 C20.9831916,8.20028129 29.0475892,12.8283147 30.5127444,17.2559647 C31.279809,19.5740082 32.4491403,28.3803371 34.0662458,43.0907342 C34.2980881,45.1997443 34.5386276,47.4261221 34.7915617,49.8006032 C35.1575335,53.2362533 35.5256753,56.7547172 35.9966124,61.3006682 C36.0810869,62.1160991 36.1663256,62.9399134 36.278045,64.0203966 C36.2551492,63.7989617 36.4879387,66.050624 36.5485602,66.6367022 C36.761338,68.693801 36.9108692,70.1351569 37.0508566,71.4763321 C37.7723521,78.388755 38.1578571,81.7972263 38.305785,82.4629412 C38.3596529,82.4809763 38.4651343,82.5550957 38.6159499,82.6369943 Z" id="Path-68" fill="#000000" fill-rule="nonzero" transform="translate(40.316099, 45.679158) rotate(-5.000000) translate(-40.316099, -45.679158) "></path>
                                <path d="M40.1414845,78.3235909 C39.8009852,78.6557035 39.2557255,78.6489048 38.9236129,78.3084055 C38.5915002,77.9679062 38.598299,77.4226465 38.9387983,77.0905339 L82.6463329,34.4595395 C82.9868322,34.1274269 83.5320919,34.1342257 83.8642045,34.474725 C84.1963171,34.8152242 84.1895184,35.3604839 83.8490191,35.6925966 L40.1414845,78.3235909 Z" id="Path-69" fill="#000000" fill-rule="nonzero"></path>
                                <path d="M32.3779201,78.311547 C32.0308344,78.6367701 31.4858205,78.6190471 31.1605973,78.2719614 C30.8353741,77.9248757 30.8530972,77.3798618 31.2001829,77.0546386 L77.1309468,34.0169977 C77.4780325,33.6917746 78.0230464,33.7094976 78.3482696,34.0565833 C78.6734928,34.403669 78.6557697,34.948683 78.308684,35.2739061 L32.3779201,78.311547 Z" id="Path-69" fill="#000000" fill-rule="nonzero" transform="translate(54.754433, 56.164272) scale(-1, 1) translate(-54.754433, -56.164272) "></path>
                                <path d="M32.648873,35.2674065 L40.6050181,77.0371686 L77.2883098,77.0371686 L82.8576115,35.2674065 L32.648873,35.2674065 Z M32.648873,33.544942 L82.8576115,33.544942 C83.8089023,33.544942 84.5800759,34.3161156 84.5800759,35.2674065 C84.5800759,35.3435394 84.5750283,35.4195887 84.5649663,35.4950538 L78.9956646,77.2648159 C78.8815672,78.1205466 78.1516135,78.7596331 77.2883098,78.7596331 L40.6050181,78.7596331 C39.7780066,78.7596331 39.0677188,78.1718679 38.9129749,77.3594626 L30.9568297,35.5897004 C30.7788317,34.6552107 31.3920893,33.7533613 32.326579,33.5753632 C32.4328171,33.5551274 32.5407248,33.544942 32.648873,33.544942 Z" id="Rectangle-34" fill="#000000" fill-rule="nonzero"></path>
                                <rect id="Rectangle-3-Copy" fill="#FFFFFF" x="74.8461857" y="62.4807005" width="7.46972946" height="4.66858091"></rect>
                                <rect id="Rectangle-3-Copy-2" fill="#FFFFFF" x="42.7415657" y="45.6791575" width="7.46972946" height="4.66858091"></rect>
                                <rect id="Rectangle-35" fill="#B2824F" transform="translate(4.805396, 7.463255) rotate(16.000000) translate(-4.805396, -7.463255) " x="1.04601673" y="5.26363829" width="7.51875889" height="4.39923334" rx="2"></rect>
                            </g>
                            <circle id="Oval-20" fill="#B2824F" cx="85.3429213" cy="86.854015" r="6.11594951"></circle>
                            <circle id="Oval-20-Copy" fill="#B2824F" cx="49.2991525" cy="91.4628081" r="7.10516573"></circle>
                        </g>
                        <text id="Do-we-need-a-shoppin" font-family="PTSans-Regular, PT Sans" font-size="16" font-weight="normal" line-spacing="20" fill="#000000">
                            <tspan x="9.40319843" y="117.655226">Do we need a </tspan>
                            <tspan x="9.40319843" y="137.655226">shopping cart?</tspan>
                        </text>
                    </g>
                    <g id="Group-7" transform="translate(348.750000, 69.488999)">
                        <text id="Which-one-is-better?" font-family="PTSans-Regular, PT Sans" font-size="16" font-weight="normal" line-spacing="20" fill="#000000">
                            <tspan x="9.52449573" y="112.800846">Which one is </tspan>
                            <tspan x="9.52449573" y="132.800846">better?</tspan>
                        </text>
                        <g id="Group-48-Copy-2" transform="translate(51.762665, 50.929990) rotate(-11.000000) translate(-51.762665, -50.929990) translate(6.762665, 15.429990)">
                            <path d="M26.1567197,17.1523845 L26.0177048,10.3086639 C26.0177048,10.3086639 22.9225041,9.9349277 22.9225041,4.80071874 C22.9225041,-0.333490223 26.4990071,-0.995089823 28.7617311,1.2240408" id="Path-18" stroke="#000000" stroke-width="1.3" stroke-linecap="round" stroke-linejoin="round"></path>
                            <g id="Group-6" transform="translate(0.000000, 15.550199)">
                                <path d="M0.763760503,17.5729093 L5.9327382,21.0309819 L10.4165084,13.5666703 L8.31285302,50.8445539 C8.72325161,50.9491372 9.19123665,51.0656666 9.70867779,51.1911619 C11.1938743,51.5513677 12.7800519,51.91161 14.4011529,52.2477338 C15.9653438,52.5720577 17.4811812,52.8567785 18.9181359,53.0908455 C21.6417037,53.5344902 23.9680644,53.7779749 25.7656307,53.7779749 C27.7154838,53.7779749 30.4161249,53.4921072 33.6685792,52.9772442 C35.0047893,52.7657223 36.4082024,52.5195143 37.8565998,52.2455235 C39.6354507,51.9090214 41.3904724,51.5483849 43.0444611,51.1877685 C43.6232314,51.0615802 44.1479219,50.9444333 44.6089037,50.8393454 C44.6167123,50.8375654 44.6244546,50.8357997 44.6321303,50.8340486 L41.4471881,13.823962 L46.6005357,21.1110751 L50.8063335,18.9091798 C50.7888788,18.789295 50.7675487,18.6508233 50.7419856,18.4948848 C50.6291944,17.8068436 50.4743267,17.0386674 50.2710013,16.2106506 C49.6900759,13.8449053 48.8390419,11.4798306 47.6692356,9.27783848 C46.4114049,6.91015315 44.8558204,4.8742376 42.9739785,3.26659575 C39.2681842,0.100766578 13.1488438,0.00375249233 10.0209235,2.46127678 C8.03568707,4.02102457 6.31135366,6.00776129 4.83262507,8.32365447 C3.47985576,10.442278 2.40487792,12.7166217 1.58130422,14.9911764 C1.2931552,15.7869894 1.05723944,16.5252568 0.870028955,17.1865426 C0.829051793,17.3312867 0.793688662,17.4603976 0.763760503,17.5729093 Z" id="Rectangle-24" stroke="#000000" stroke-width="1.3"></path>
                                <rect id="Rectangle-9" fill="#FFFFFF" x="6.85827074" y="37.8571658" width="4" height="3"></rect>
                                <rect id="Rectangle-8" fill="#FFFFFF" x="84.1769351" y="37.8571658" width="5" height="5"></rect>
                                <path d="M16,1.97325338 L19,0.746019561 C19.6769261,3.35889314 20.4528753,4.77841231 22.0157453,8.09004067 C23.9072562,12.0980395 25.8107046,14.4759183 26.6580387,14.4759183 C27.2949683,14.4759183 29.221164,11.457367 31.0003252,6.81047882 C31.7363547,4.88808592 31.8830604,4.0449877 32.5,1.97325338 C32.7162143,1.24718793 37.2257706,1.55412958 37,2.31228598 C36.3541256,4.48118552 35.7954004,6.31245474 35.0160531,8.34798677 C32.4655663,15.0094556 30.0621139,18.7759185 26.6580387,18.7759185 C23.3754386,18.7759185 20.7648957,15.5147033 18.1270433,9.92525135 C16.4448165,6.36071312 16.7420289,4.83741776 16,1.97325338 Z" id="Triangle" fill="#B2824F" fill-rule="nonzero"></path>
                                <path d="M18.9996431,1.03284024 C19.7290269,3.84819602 23.1827238,14.0258526 26.4809726,14.0258526 C29.7792215,14.0258526 33.0774703,1.10409502 33.0774703,1.10409502" id="Triangle" stroke="#000000" stroke-width="1.3"></path>
                                <path d="M16.1824922,0.640964531 C17.2037939,4.58309676 22.0397474,18.8341084 26.6580387,18.8341084 C31.2763299,18.8341084 35.8946212,0.740737272 35.8946212,0.740737272" id="Triangle" stroke="#000000" stroke-width="1.3"></path>
                            </g>
                        </g>
                        <g id="Group-48-Copy-3" transform="translate(99.569740, 39.993219) rotate(10.000000) translate(-99.569740, -39.993219) translate(76.069740, 4.493219)">
                            <path d="M23.8184863,15.6190776 L23.6918984,9.38713922 C23.6918984,9.38713922 20.8733877,9.04681251 20.8733877,4.37156703 C20.8733877,-0.303678458 24.1301755,-0.906135539 26.1906273,1.11461985" id="Path-18" stroke="#000000" stroke-width="1.3" stroke-linecap="round" stroke-linejoin="round"></path>
                            <g id="Group-6" transform="translate(0.000000, 14.160117)">
                                <path d="M0.762354087,15.9768361 L5.38399574,19.0687381 L9.29115174,12.5643392 L9.40844679,14.6757336 C9.41431322,14.7813336 9.4244731,14.9833025 9.43749096,15.2746883 C9.45912855,15.7590139 9.48075177,16.3188345 9.50092459,16.9472008 C9.71039449,23.4720131 9.60607201,30.6962289 8.95813153,37.5178952 C8.63265738,40.9445617 8.18028443,44.0873766 7.58730291,46.8856807 C6.43607019,52.3183949 13.6382251,55.4878298 24.0565402,55.0844846 C34.0961148,54.6958023 41.7499312,51.1308126 40.6472423,46.9154295 C39.7835836,43.613816 39.1358231,39.0858181 38.6724837,33.6312947 C38.3207905,29.4910929 38.0948474,25.0580137 37.9693348,20.6253385 C37.9254143,19.074214 37.8971777,17.6337875 37.8814877,16.3408421 C37.8759932,15.8880674 37.8724599,15.4859808 37.8704959,15.1391828 C37.8693152,14.930684 37.8689206,14.786685 38.5189206,14.7117877 L37.8689206,14.7117877 L37.8689206,12.666904 L42.4528517,19.1488312 L46.2011149,17.1864728 C46.1864508,17.0873669 46.1690379,16.9753012 46.1486558,16.8509673 C46.0461849,16.2258814 45.9054598,15.5278554 45.7206854,14.7753849 C45.1927626,12.6254863 44.4193976,10.4762583 43.3566151,8.47572311 C42.2144604,6.32578129 40.8023329,4.47761923 39.0946541,3.01876347 C35.7415015,0.15419316 11.9878667,0.0659659257 9.16101862,2.28694572 C7.35876148,3.7029315 5.79281454,5.50717903 4.44959486,7.61084655 C3.22025123,9.53616844 2.24316427,11.6034032 1.49458083,13.670849 C1.23267841,14.3941739 1.01827191,15.0651309 0.848162619,15.6660099 C0.815709878,15.7806431 0.787143026,15.8844465 0.762354087,15.9768361 Z" id="Rectangle-24" stroke="#000000" stroke-width="1.3" fill="#FFFFFF"></path>
                                <path d="M17.3012038,0.940511323 C17.9653857,3.50419338 21.1103454,12.7720365 24.1137532,12.7720365 C27.1171609,12.7720365 30.1205687,1.00539641 30.1205687,1.00539641" id="Triangle" stroke="#000000" stroke-width="1.3"></path>
                                <path d="M24.0287617,13.0717105 L24.3385729,54.5330914" id="Path-20" stroke="#000000" stroke-width="1.3"></path>
                                <rect id="Rectangle-8" fill="#FFFFFF" x="22" y="42" width="5" height="5"></rect>
                                <path d="M28.5220973,17.5615087 L35.4532824,17.5615087" id="Path-21" stroke="#B2824F" stroke-width="2" stroke-linecap="round" stroke-linejoin="round"></path>
                            </g>
                        </g>
                    </g>
                    <g id="Group-45" transform="translate(0.693947, 18.910676)">
                        <g id="Store">
                            <rect id="Rectangle-2" fill="#B2824F" x="0" y="64.3006188" width="82.3047921" height="5.14404951" rx="2.57202475"></rect>
                            <path d="M7.32919379,15.0452681 L7.32919379,67.2595241 L74.9755983,67.2595241 L74.9755983,15.0452681 L7.32919379,15.0452681 Z M5.14404951,15.0436335 C5.14404951,13.8377144 6.12112328,12.8601238 7.32882728,12.8601238 L74.9759648,12.8601238 C76.1825843,12.8601238 77.1607426,13.8422545 77.1607426,15.0436335 L77.1607426,69.4446683 L5.14404951,69.4446683 L5.14404951,15.0436335 Z" id="Rectangle" fill="#454545" fill-rule="nonzero"></path>
                            <path d="M64.6869727,67.2595241 C64.6865882,67.2595241 64.6867638,58.4281738 64.6874993,40.7654732 C64.6874031,40.7654916 48.9975098,40.7655057 17.6178195,40.7655156 C17.6182039,40.7655156 17.6180283,49.5968659 17.6172928,67.2595665 L64.6869727,67.2595241 Z M64.6874993,40.7629858 C64.6874993,40.7637385 64.6888991,40.7652056 64.6874993,40.7654732 L64.6874993,40.7629858 Z M15.4321485,40.7629858 C15.4321485,39.5575611 16.4138071,38.5803713 17.6178195,38.5803713 L64.6869727,38.5803713 C65.8940854,38.5803713 66.8726436,39.5550545 66.8726436,40.7629858 L66.8726436,67.2620539 C66.8726436,68.4674786 65.890985,69.4446683 64.6869727,69.4446683 L17.6178195,69.4446683 C16.4107067,69.4446683 15.4321485,68.4699851 15.4321485,67.2620539 L15.4321485,40.7629858 Z" id="Rectangle-5" fill="#454545" fill-rule="nonzero"></path>
                            <rect id="Rectangle-4" fill="#454545" x="20.576198" y="24.7620422" width="41.1523961" height="1.9164106" rx="0.9582053"></rect>
                            <rect id="Rectangle-7" fill="#000000" x="31.6712068" y="43.7244208" width="1.51295574" height="20.4381027"></rect>
                            <rect id="Rectangle-3" fill="#FFFFFF" x="48.616311" y="24.1784528" width="8" height="5"></rect>
                            <rect id="Rectangle-7" fill="#000000" x="47.1033553" y="43.7244208" width="1.51295574" height="20.4381027"></rect>
                            <rect id="Rectangle-3-Copy" fill="#FFFFFF" x="27.6712068" y="54.0125198" width="8" height="5"></rect>
                        </g>
                        <g id="KOHL'S-Logo" transform="translate(24.857152, 30.012709)" fill="#1D1D26">
                            <polygon id="Clip-2" points="3.95473493 0.222141271 2.25068028 1.76704205 2.23533893 1.76704205 2.23533893 0.222141271 6.55657187e-06 0.222141271 6.55657187e-06 4.71561745 2.23533893 4.71561745 2.23533893 2.87564296 2.25068028 2.87564296 3.95473493 4.71561745 6.78330521 4.71561745 4.40444876 2.11663589 6.45934475 0.222141271"></polygon>
                            <path d="M10.012829,0.097940694 C12.5497633,0.097940694 13.2409575,0.638458182 13.2409575,2.48209937 C13.2409575,4.32662253 12.5497633,4.86802385 10.012829,4.86802385 C7.47478025,4.86802385 6.78424207,4.32662253 6.78424207,2.48209937 C6.78424207,0.638458182 7.47478025,0.097940694 10.012829,0.097940694 Z M10.012829,3.93595 C11.0058885,3.93595 10.9408464,2.80745433 10.9408464,2.43592972 C10.9408464,2.06263931 10.9516647,1.02831442 10.012829,1.02831442 C9.07255087,1.02831442 9.08343623,2.06263931 9.08343623,2.43592972 C9.08343623,2.80745433 9.01675592,3.93595 10.012829,3.93595 Z" id="Clip-5"></path>
                            <polygon id="Clip-8" points="18.0615325 3.02826516 18.0615325 4.74602817 20.3562598 4.74602817 20.3562598 0.252619549 18.0615325 0.252619549 18.0615325 1.79731579 16.4154401 1.79731579 16.4154401 0.252619549 14.1200496 0.252619549 14.1200496 4.74602817 16.4154401 4.74602817 16.4154401 3.02826516"></polygon>
                            <path d="M21.4404831,0.252627055 L23.7893618,0.252627055 L23.7893618,3.67647369 C23.7893618,3.67647369 25.6626515,3.68183675 25.9123244,3.68183675 C26.1613449,3.68183675 26.3085972,3.45418229 26.3085972,3.45418229 L26.3085972,4.7460338 L21.4404831,4.7460338 L21.4404831,0.252627055 Z" id="Clip-11"></path>
                            <path d="M25.0012484,2.08535071 L25.1616929,1.79733643 C24.6790004,1.553726 24.5361878,0.934381955 24.7816747,0.581663726 C25.045319,0.200902929 25.7806381,0.0376822002 26.1759324,0.626270249 C26.5128767,1.12856322 26.1914622,1.553726 26.0440106,1.67519251 C25.8979906,1.79733643 25.0012484,2.08535071 25.0012484,2.08535071 Z" id="Clip-17"></path>
                            <path d="M31.7831529,1.74056261 C31.2976335,1.34459458 30.8814818,1.21267216 30.4341256,1.20425414 C29.9958842,1.19678563 29.5961321,1.3515189 29.5961321,1.62289792 C29.5961321,1.83595501 29.8948589,1.92544202 30.9406292,2.14623971 C31.7991357,2.32901368 32.3702231,2.77570003 32.3702231,3.60694711 C32.3702231,4.54424891 30.8384079,5.07417538 29.4657869,5.07417538 C28.50341,5.07417538 27.7645573,4.89750945 27.103263,4.59578164 L27.103263,3.33685913 C27.5120031,3.77050936 28.4266489,4.00121878 29.1274654,4.00121878 C29.5155475,4.00121878 29.7060911,3.94357426 29.7060911,3.62962473 C29.7060911,3.43483172 29.464156,3.25660642 28.7304678,3.1199308 C27.3407404,2.86063838 26.8704971,2.45564058 26.8704971,1.76330779 C26.8704971,0.769042646 28.0861529,0.177465317 29.5828856,0.177465317 C30.3900731,0.177465317 31.1312997,0.203062792 31.7831529,0.511242053 L31.7831529,1.74056261 Z" id="Clip-14"></path>
                        </g>
                    </g>
                    <g id="Group-8" transform="translate(479.750000, 211.488999)">
                        <text id="I-need-to-keep-an-ey" font-family="PTSans-Regular, PT Sans" font-size="16" font-weight="normal" line-spacing="20" fill="#000000">
                            <tspan x="0.0197631089" y="82.5893244">I need to keep an </tspan>
                            <tspan x="0.0197631089" y="102.589324">eye on my kid.</tspan>
                        </text>
                        <g id="Group-4" transform="translate(11.797305, 0.000000)">
                            <path d="M38.1899779,24.1454699 L38.5520502,27.4133251 C38.5520502,27.4133251 41.5995936,28.6333244 41.5995936,28.0233248 C41.5995936,27.4133251 41.2970485,23.3667078 41.2970485,23.3667078 L38.1899779,24.1454699 Z" id="Path" stroke="#000000" transform="translate(39.894786, 25.780416) rotate(3.000000) translate(-39.894786, -25.780416) "></path>
                            <path d="M44.81648,37.2825525 C47.3738377,37.1312305 53.0251342,31.2214673 55.3859797,30.2965421 C57.7468251,29.3716169 59.3340195,31.110902 58.9621431,32.1143048 C58.5902667,33.1177077 48.2553592,39.2855662 46.3952255,39.5953331 C45.0249425,39.8235254 43.1024191,40.3748001 42.8939566,37.8338272 C42.8262881,37.0090092 43.2464207,37.3754548 44.81648,37.2825525 Z" id="Path-35-Copy" stroke="#000000" stroke-width="1.3" transform="translate(50.951634, 34.921201) scale(-1, 1) rotate(16.000000) translate(-50.951634, -34.921201) "></path>
                            <g id="Group-41" transform="translate(36.424569, 13.137054) rotate(3.000000) translate(-36.424569, -13.137054) translate(20.424569, 1.137054)" stroke="#000000" stroke-width="1.3">
                                <circle id="Oval-11" fill="#FFFFFF" cx="19.6857807" cy="13.6186526" r="9.84650149"></circle>
                                <g id="Group-40-Copy" transform="translate(0.000000, 0.059563)" fill="#B2824F">
                                    <path d="M21.8647482,16.1071452 C24.5002055,15.9690267 25.2427191,10.3147536 25.9911555,9.22274573 C26.739592,8.13073787 31.2081564,6.65212876 30.6432035,4.9930576 C29.7320336,2.31726667 27.197325,2.9035837 22.6062914,1.95765796 C18.0152577,1.01173223 16.4046035,2.33405776 12.2253532,4.50444457 C6.8637306,7.28886617 8.51463099,10.9013196 2.86516068,13.6093604 C-2.78430963,16.3174013 10.4355093,22.0170844 13.5622378,19.6775184 C16.6889663,17.3379524 19.7287899,16.219086 21.8647482,16.1071452 Z" id="Oval-9" transform="translate(16.084884, 10.938020) rotate(-6.000000) translate(-16.084884, -10.938020) "></path>
                                </g>
                            </g>
                            <path d="M33.069269,28.2193711 C33.8355892,27.0645413 34.9355819,27.0356704 36.0128217,27.0637337 C37.0900615,27.0917969 38.6494174,27.1696479 39.7975472,27.196735 C42.1346945,27.2518738 44.0598967,25.936343 45.4548596,28.2337935 C48.3957895,33.0773929 43.9714436,45.1720284 43.9714436,45.1720284 L28.4829273,45.7970327 C28.4829273,45.7970327 30.2038208,32.5375462 33.069269,28.2193711 Z" id="Combined-Shape" stroke="#000000" stroke-width="1.3" fill="#FFFFFF" transform="translate(37.473356, 36.334162) rotate(3.000000) translate(-37.473356, -36.334162) "></path>
                            <path d="M51.6310722,63.4572958 C51.6310722,63.4572958 54.4346093,61.9494475 55.7736693,61.9104359 C57.1127292,61.8714243 56.987312,63.3012495 56.987312,63.3012495 L52.5988937,65.4416241 L51.6310722,63.4572958 Z" id="Rectangle-15" fill="#32AD58" transform="translate(54.310753, 63.675638) rotate(-5.000000) translate(-54.310753, -63.675638) "></path>
                            <g id="Group-3" transform="translate(29.729129, 53.723538) rotate(8.000000) translate(-29.729129, -53.723538) translate(3.729129, 29.223538)">
                                <path d="M0.853363903,23.5351049 C0.853363903,23.5351049 3.65690106,22.0272566 4.99596103,21.988245 C6.33502099,21.9492334 6.20960377,23.3790586 6.20960377,23.3790586 L1.82118547,25.5194332 L0.853363903,23.5351049 Z" id="Rectangle-15-Copy" fill="#32AD58" transform="translate(3.533045, 23.753447) rotate(139.000000) translate(-3.533045, -23.753447) "></path>
                                <path d="M15.0411806,25.019499 C14.5588367,24.0853722 14.4470505,22.8811805 16.416546,20.5052396 C17.4295578,19.2831722 19.3365794,18.2085538 20.9908805,15.3209914 C21.3284838,14.7317089 21.655562,14.0669227 21.9623689,13.309971 C22.2414338,12.6214643 22.5037276,11.856706 22.7419159,11.0031579 C23.1241706,9.63334782 38.7543179,6.97386572 42.5548306,6.82602836 C43.4455613,6.79137953 42.9507333,8.58509465 42.4133072,9.98513758 C41.916504,11.2793541 37.6475616,14.8901481 33.5157514,17.8167083 C30.5734867,19.9007137 26.1906998,21.4456858 26.3749947,21.8471044 C28.7982668,27.1253102 30.0142008,35.1286075 27.1444559,37.2185904 C23.3096715,40.011394 15.1167859,45.3565277 15.1167859,45.3565277 C15.1167859,45.3565277 11.3642857,45.1462236 12.6076702,43.9657022 C13.8510548,42.7851807 19.7377945,35.8209838 19.8771076,35.4580607 C20.0164207,35.0951377 18.3390224,31.8843665 16.7882175,28.6277318 C16.6215238,28.277681 16.4594053,27.9379171 16.3047714,27.6146959 C15.9967652,26.9708903 15.7184539,26.3927169 15.4928298,25.9296128 C15.2981123,25.5299457 15.1426362,25.2159821 15.0411806,25.019499 Z" id="Rectangle-14-Copy" stroke="#000000" stroke-width="1.3" fill="#FFFFFF" transform="translate(27.699873, 26.091031) rotate(61.000000) translate(-27.699873, -26.091031) "></path>
                                <rect id="Rectangle-6" fill="#FFFFFF" transform="translate(19.999314, 17.433093) rotate(33.000000) translate(-19.999314, -17.433093) " x="18.9993137" y="16.433093" width="2" height="2"></rect>
                                <rect id="Rectangle-6-Copy" fill="#FFFFFF" transform="translate(46.924318, 2.059049) rotate(11.000000) translate(-46.924318, -2.059049) " x="45.9243179" y="1.05904888" width="2" height="2"></rect>
                            </g>
                            <path d="M20.0752148,35.3504869 C21.6741695,34.2057812 29.4615199,27.7732523 32.2913367,26.6645948 C35.1211536,25.5559374 37.0236371,27.6407237 36.5778891,28.843448 C36.1321411,30.0461724 21.4388803,37.4825308 21.5146093,37.8105492 C21.7762593,38.9438801 19.0920802,41.1030279 18.5297025,38.6671027 C17.9673249,36.2311776 19.4957982,35.7652963 20.0752148,35.3504869 Z" id="Path-35" stroke="#000000" stroke-width="1.3" fill="#FFFFFF" transform="translate(27.525059, 33.064760) rotate(13.000000) translate(-27.525059, -33.064760) "></path>
                        </g>
                    </g>
                    <g id="Group-11" transform="translate(214.000000, 0.000000)">
                        <text id="What’s-on-my-shoppin" font-family="PTSans-Regular, PT Sans" font-size="16" font-weight="normal" line-spacing="20" fill="#000000">
                            <tspan x="0.544258835" y="75.9106756">What’s on my </tspan>
                            <tspan x="0.544258835" y="95.9106756">shopping list?</tspan>
                        </text>
                        <g id="Group-5" transform="translate(18.394297, 0.910676)">
                            <g id="noun_1209678_cc" transform="translate(0.953798, 0.746156)" fill="#000000">
                                <g id="Group">
                                    <path d="M11.4535028,14.162309 C11.0492615,14.162309 10.7797674,14.4805632 10.7797674,14.9579444 L10.7797674,52.6710595 C10.7797674,52.8301865 10.8471409,52.9893136 10.981888,53.0688772 C10.981888,53.0688772 46.7883688,53.2067644 46.8557424,53.0476373 L46.891988,52.5119324 L46.891988,16.7083421 L57.6717554,16.7083421 C58.0759966,16.7083421 58.3454908,16.390088 58.3454908,15.9127068 L58.3454908,7.55853573 C58.3454908,3.42123196 55.4484283,0 51.945004,0 L16.91076,0 C13.4073357,0 10.5102732,3.42123196 10.5102732,7.55853573 C10.5102732,8.03591693 10.7797674,8.35417107 11.1840086,8.35417107 C11.5882499,8.35417107 11.8577441,8.03591693 11.8577441,7.55853573 C11.8577441,4.29643083 14.1484447,1.59127068 16.91076,1.59127068 L48.0373383,1.59127068 C46.5551203,2.94385076 45.5445171,5.17162971 45.5445171,7.55853573 L45.5445171,52.1936783 L12.1272383,52.1936783 L12.1272383,14.9579444 C12.1272383,14.5601267 11.8577441,14.162309 11.4535028,14.162309 Z M47.1614822,7.55853573 C47.1614822,4.29643083 49.4521828,1.59127068 52.2144981,1.59127068 C54.9768135,1.59127068 57.2675141,4.29643083 57.2675141,7.55853573 L57.2675141,15.1170715 L47.1614822,15.1170715 L47.1614822,7.55853573 Z" id="Shape"></path>
                                    <path d="M21.5595347,10.2356146 L36.3817148,10.2356146 C36.7859561,10.2356146 37.0554503,9.96266491 37.0554503,9.55324032 C37.0554503,9.14381574 36.7859561,8.87086602 36.3817148,8.87086602 L21.5595347,8.87086602 C21.1552934,8.87086602 20.8857993,9.14381574 20.8857993,9.55324032 C20.8857993,9.96266491 21.1552934,10.2356146 21.5595347,10.2356146 Z" id="Shape"></path>
                                    <path d="M21.5595347,17.0593577 L36.3817148,17.0593577 C36.7859561,17.0593577 37.0554503,16.786408 37.0554503,16.3769834 C37.0554503,15.9675588 36.7859561,15.6946091 36.3817148,15.6946091 L21.5595347,15.6946091 C21.1552934,15.6946091 20.8857993,15.9675588 20.8857993,16.3769834 C20.8857993,16.786408 21.1552934,17.0593577 21.5595347,17.0593577 Z" id="Shape"></path>
                                    <path d="M21.5595347,23.8831008 L36.3817148,23.8831008 C36.7859561,23.8831008 37.0554503,23.6101511 37.0554503,23.2007265 C37.0554503,22.7913019 36.7859561,22.5183522 36.3817148,22.5183522 L21.5595347,22.5183522 C21.1552934,22.5183522 20.8857993,22.7913019 20.8857993,23.2007265 C20.8857993,23.6101511 21.1552934,23.8831008 21.5595347,23.8831008 Z" id="Shape"></path>
                                    <path d="M21.5595347,30.7068439 L36.3817148,30.7068439 C36.7859561,30.7068439 37.0554503,30.4338942 37.0554503,30.0244696 C37.0554503,29.615045 36.7859561,29.3420953 36.3817148,29.3420953 L21.5595347,29.3420953 C21.1552934,29.3420953 20.8857993,29.615045 20.8857993,30.0244696 C20.8857993,30.4338942 21.1552934,30.7068439 21.5595347,30.7068439 Z" id="Shape"></path>
                                    <path d="M21.5595347,37.530587 L36.3817148,37.530587 C36.7859561,37.530587 37.0554503,37.2576373 37.0554503,36.8482127 C37.0554503,36.4387881 36.7859561,36.1658384 36.3817148,36.1658384 L21.5595347,36.1658384 C21.1552934,36.1658384 20.8857993,36.4387881 20.8857993,36.8482127 C20.8857993,37.2576373 21.1552934,37.530587 21.5595347,37.530587 Z" id="Shape"></path>
                                </g>
                            </g>
                            <path d="M48.3118989,15 L58.0868694,15" id="Path-11" stroke="#B2824F" stroke-width="2"></path>
                        </g>
                    </g>
                    <g id="Group-9" transform="translate(631.042048, 6.166125)">
                        <text id="Should-I-buy-it-toda" font-family="PTSans-Regular, PT Sans" font-size="16" font-weight="normal" line-spacing="20" fill="#000000">
                            <tspan x="0.542048491" y="89.1661254">Should I buy it </tspan>
                            <tspan x="0.542048491" y="109.166125">today?</tspan>
                        </text>
                        <g id="Group-53" transform="translate(15.152509, 0.576801)" fill="#000000">
                            <path d="M0.894371754,43.0369506 L0.894371754,60.2428397 C0.894371754,60.7375967 1.29468866,61.1386896 1.78717356,61.1386896 L60.0175216,61.1386896 C60.5096509,61.1386896 60.9103234,60.7374977 60.9103234,60.2428397 L60.9103234,43.0369506 C60.9103234,42.5421936 60.5100065,42.1411007 60.0175216,42.1411007 L1.78717356,42.1411007 C1.29504425,42.1411007 0.894371754,42.5422926 0.894371754,43.0369506 Z M0,43.0369506 C0,42.0482384 0.801201836,41.2467289 1.78717356,41.2467289 L60.0175216,41.2467289 C61.0045503,41.2467289 61.8046952,42.0488412 61.8046952,43.0369506 L61.8046952,60.2428397 C61.8046952,61.2315518 61.0034933,62.0330614 60.0175216,62.0330614 L1.78717356,62.0330614 C0.800144856,62.0330614 0,61.2309491 0,60.2428397 L0,43.0369506 Z" id="Rectangle-26" fill-rule="nonzero"></path>
                            <path d="M19.2674809,54.4288742 C19.1064932,54.5522981 18.9025785,54.6381569 18.6557306,54.6864533 C18.4088828,54.7347496 18.1459401,54.7588974 17.8668948,54.7588974 C17.5288205,54.7588974 17.2122161,54.701211 16.917072,54.5858364 C16.6219278,54.4704619 16.3643513,54.2947196 16.1443348,54.0586043 C15.9243182,53.822489 15.7499175,53.5206415 15.6211273,53.1530529 C15.4923371,52.7854643 15.427943,52.3494624 15.427943,51.8450342 C15.427943,51.319141 15.4990448,50.8724068 15.6412507,50.5048181 C15.7834565,50.1372295 15.9712727,49.8367236 16.2047049,49.6032914 C16.4381371,49.3698592 16.6997382,49.1994831 16.9895161,49.0921579 C17.279294,48.9848328 17.5744337,48.931171 17.8749441,48.931171 C18.1969195,48.931171 18.4598622,48.9486111 18.66378,48.9834918 C18.8676978,49.0183724 19.0420985,49.0653265 19.1869875,49.1243553 L19.0260006,49.7119576 C18.7684202,49.5885337 18.4008371,49.5268226 17.9232402,49.5268226 C17.7032236,49.5268226 17.4858935,49.5670689 17.2712432,49.6475628 C17.0565929,49.7280567 16.8647521,49.859528 16.695715,50.0419807 C16.5266778,50.2244335 16.3911819,50.4632284 16.289223,50.7583725 C16.1872641,51.0535167 16.1362854,51.4157336 16.1362854,51.8450342 C16.1362854,52.2314047 16.184581,52.5694739 16.2811736,52.8592518 C16.3777663,53.1490297 16.5105792,53.3905076 16.6796163,53.5836929 C16.8486534,53.7768782 17.0472019,53.9217649 17.2752678,54.0183576 C17.5033338,54.1149502 17.7515195,54.1632458 18.0198323,54.1632458 C18.2613139,54.1632458 18.4719364,54.139098 18.651706,54.0908017 C18.8314756,54.0425054 18.9830701,53.9807943 19.106494,53.9056667 L19.2674809,54.4288742 Z M22.7769957,54.6623052 L22.7769957,52.3682417 C22.7769957,52.1589576 22.7649218,51.9751661 22.7407736,51.8168615 C22.7166255,51.6585569 22.6723545,51.5270856 22.6079594,51.4224435 C22.5435643,51.3178015 22.456364,51.2386504 22.3463557,51.1849878 C22.2363474,51.1313253 22.0928022,51.1044944 21.9157157,51.1044944 C21.6635016,51.1044944 21.4354391,51.1863286 21.2315213,51.3499994 C21.0276035,51.5136703 20.8961322,51.7242927 20.8371034,51.9818731 L20.8371034,54.6623052 L20.1931557,54.6623052 L20.1931557,49.0277632 L20.8371034,49.0277632 L20.8371034,51.0883957 L20.8693007,51.0883957 C21.0088234,50.9220417 21.1765165,50.7892288 21.3723849,50.6899531 C21.5682532,50.5906773 21.8110727,50.5410402 22.1008506,50.5410402 C22.3262335,50.5410402 22.5220989,50.5665295 22.6884529,50.617509 C22.8548069,50.6684884 22.9929859,50.7583719 23.1029942,50.8871621 C23.2130025,51.0159522 23.2934951,51.1890114 23.3444746,51.4063449 C23.395454,51.6236783 23.4209434,51.8986948 23.4209434,52.2314028 L23.4209434,54.6623052 L22.7769957,54.6623052 Z M27.534159,54.3403314 C27.3731713,54.4691216 27.1705982,54.5710789 26.9264334,54.6462065 C26.6822687,54.7213341 26.4233507,54.7588974 26.1496716,54.7588974 C25.8437949,54.7588974 25.5781691,54.7092602 25.3527863,54.6099845 C25.1274035,54.5107087 24.9422704,54.368505 24.7973815,54.1833692 C24.6524925,53.9982333 24.545169,53.7768785 24.4754077,53.5192981 C24.4056463,53.2617178 24.3707662,52.9719442 24.3707662,52.6499688 C24.3707662,51.9630878 24.5237022,51.4398856 24.8295789,51.0803464 C25.1354555,50.7208071 25.5727989,50.5410402 26.1416222,50.5410402 C26.324075,50.5410402 26.506525,50.5611633 26.6889777,50.6014103 C26.8714305,50.6416572 27.0350989,50.7181252 27.1799878,50.8308166 C27.3248768,50.943508 27.4429327,51.1031518 27.534159,51.3097527 C27.6253854,51.5163536 27.6709979,51.7886871 27.6709979,52.1267613 C27.6709979,52.3038478 27.6548994,52.4997133 27.6227019,52.7143635 L25.0388619,52.7143635 C25.0388619,52.9504789 25.0630097,53.1597598 25.111306,53.3422125 C25.1596023,53.5246653 25.2347288,53.6789429 25.3366876,53.8050499 C25.4386465,53.9311569 25.5714594,54.0277481 25.7351303,54.0948263 C25.8988011,54.1619046 26.0986912,54.1954432 26.3348065,54.1954432 C26.5172593,54.1954432 26.6997093,54.1632461 26.882162,54.098851 C27.0646148,54.0344559 27.2014523,53.9593295 27.2926787,53.8734693 L27.534159,54.3403314 Z M26.1496716,51.1044944 C25.8330624,51.1044944 25.5795105,51.1876701 25.3890084,51.3540241 C25.1985063,51.5203781 25.084475,51.8047855 25.0469112,52.2072548 L27.043149,52.2072548 C27.043149,51.7994192 26.9653394,51.5136703 26.8097179,51.3499994 C26.6540965,51.1863286 26.4340832,51.1044944 26.1496716,51.1044944 Z M31.4300424,54.3966768 C31.2690547,54.5147345 31.0785554,54.6046179 30.8585389,54.6663299 C30.6385223,54.7280419 30.4077767,54.7588974 30.1662951,54.7588974 C29.8550522,54.7588974 29.5921095,54.7092602 29.3774592,54.6099845 C29.1628089,54.5107087 28.9870666,54.368505 28.8502271,54.1833692 C28.7133875,53.9982333 28.6141132,53.7755369 28.5524013,53.5152735 C28.4906893,53.25501 28.4598338,52.966578 28.4598338,52.6499688 C28.4598338,51.9684541 28.6100868,51.4465934 28.9105972,51.084371 C29.2111076,50.7221487 29.6430848,50.5410402 30.2065418,50.5410402 C30.4641222,50.5410402 30.6827939,50.5611633 30.8625635,50.6014103 C31.0423332,50.6416572 31.20466,50.6993436 31.3495489,50.7744712 L31.164414,51.3298761 C31.0409901,51.2601147 30.9041526,51.2051114 30.7538974,51.1648645 C30.6036422,51.1246176 30.4426569,51.1044944 30.2709366,51.1044944 C29.5089281,51.1044944 29.1279295,51.6196474 29.1279295,52.6499688 C29.1279295,52.8538866 29.1480527,53.0484105 29.1882996,53.2335464 C29.2285465,53.4186822 29.2956237,53.5823506 29.3895333,53.7245564 C29.4834428,53.8667623 29.6068648,53.9807935 29.7598032,54.0666536 C29.9127415,54.1525138 30.1018992,54.1954432 30.327282,54.1954432 C30.5204673,54.1954432 30.6935265,54.1659292 30.8464648,54.1069004 C30.9994032,54.0478715 31.1241668,53.9807943 31.2207594,53.9056667 L31.4300424,54.3966768 Z M33.329688,52.8512024 L32.9594181,52.8512024 L32.9594181,54.6623052 L32.3154704,54.6623052 L32.3154704,49.0277632 L32.9594181,49.0277632 L32.9594181,52.4567845 L33.2894413,52.3440936 L34.5370899,50.6376323 L35.285679,50.6376323 L34.0541291,52.2555508 L33.724106,52.5211792 L34.1265732,52.8431531 L35.470814,54.6623052 L34.6739288,54.6623052 L33.329688,52.8512024 Z M35.9457254,52.6499688 C35.9457254,51.9684541 36.0973199,51.4465934 36.4005134,51.084371 C36.703707,50.7221487 37.1397088,50.5410402 37.7085321,50.5410402 C38.0090425,50.5410402 38.2706437,50.5906773 38.4933433,50.6899531 C38.716043,50.7892288 38.8998346,50.9314325 39.0447235,51.1165684 C39.1896125,51.3017043 39.296936,51.5244006 39.3666974,51.7846641 C39.4364587,52.0449276 39.4713388,52.3333596 39.4713388,52.6499688 C39.4713388,53.3314835 39.3197443,53.8533442 39.0165508,54.2155665 C38.7133573,54.5777889 38.2773554,54.7588974 37.7085321,54.7588974 C37.4080217,54.7588974 37.1464206,54.7092602 36.9237209,54.6099845 C36.7010212,54.5107087 36.5172297,54.368505 36.3723407,54.1833692 C36.2274518,53.9982333 36.1201282,53.7755369 36.0503669,53.5152735 C35.9806055,53.25501 35.9457254,52.966578 35.9457254,52.6499688 Z M36.6138211,52.6499688 C36.6138211,52.8538866 36.6339443,53.049752 36.6741912,53.237571 C36.7144381,53.42539 36.7774907,53.5890584 36.8633508,53.7285811 C36.9492109,53.8681038 37.0619006,53.9807935 37.2014233,54.0666536 C37.340946,54.1525138 37.5099806,54.1954432 37.7085321,54.1954432 C38.4383431,54.2008094 38.8032431,53.6856565 38.8032431,52.6499688 C38.8032431,52.4406847 38.78312,52.2421362 38.7428731,52.0543172 C38.7026261,51.8664982 38.6395735,51.7028298 38.5537134,51.5633071 C38.4678533,51.4237844 38.3551636,51.3124362 38.2156409,51.2292593 C38.0761182,51.1460823 37.9070836,51.1044944 37.7085321,51.1044944 C36.9787211,51.0991281 36.6138211,51.6142811 36.6138211,52.6499688 Z M41.0651093,50.6376323 L41.0651093,52.9316959 C41.0651093,53.1409799 41.0771832,53.3247715 41.1013314,53.4830761 C41.1254795,53.6413807 41.1670674,53.772852 41.2260962,53.877494 C41.2851251,53.982136 41.3656177,54.0612871 41.4675766,54.1149497 C41.5695355,54.1686123 41.6983237,54.1954432 41.8539452,54.1954432 C41.9988341,54.1954432 42.1276224,54.1726369 42.2403138,54.1270237 C42.3530052,54.0814105 42.453621,54.018358 42.5421643,53.9378641 C42.6307075,53.8573702 42.7085171,53.7648037 42.7755953,53.6601617 C42.8426735,53.5555197 42.8976768,53.4441715 42.9406069,53.3261138 L42.9406069,50.6376323 L43.5845545,50.6376323 L43.5845545,53.5192981 C43.5845545,53.7124834 43.5912623,53.9123735 43.6046779,54.1189744 C43.6180935,54.3255753 43.6408998,54.5066838 43.6730973,54.6623052 L43.2303833,54.6623052 L43.0693964,54.0264069 L43.0291497,54.0264069 C42.9057258,54.2356909 42.7393743,54.4100917 42.5300902,54.5496144 C42.3208062,54.6891371 42.0551805,54.7588974 41.733205,54.7588974 C41.5185547,54.7588974 41.329397,54.733408 41.1657261,54.6824286 C41.0020553,54.6314491 40.8652178,54.5415657 40.7552095,54.4127755 C40.6452012,54.2839853 40.5620255,54.1109261 40.5056798,53.8935927 C40.4493341,53.6762593 40.4211616,53.4012427 40.4211616,53.0685348 L40.4211616,50.6376323 L41.0651093,50.6376323 Z M44.292897,50.6376323 L44.9207459,50.6376323 L44.9207459,49.8407471 L45.5646936,49.6556121 L45.5646936,50.6376323 L46.6594046,50.6376323 L46.6594046,51.2010865 L45.5646936,51.2010865 L45.5646936,53.4307553 C45.5646936,53.7098007 45.5995738,53.9070077 45.6693351,54.0223822 C45.7390964,54.1377568 45.8571523,54.1954432 46.0235063,54.1954432 C46.163029,54.1954432 46.2810849,54.1806862 46.3776775,54.1511718 C46.4742702,54.1216574 46.5815937,54.0827526 46.6996514,54.0344563 L46.8445396,54.5254663 C46.6996506,54.5952277 46.5413484,54.6515726 46.3696282,54.6945026 C46.1979079,54.7374327 46.0127748,54.7588974 45.8142233,54.7588974 C45.4868816,54.7588974 45.256136,54.6663308 45.1219796,54.4811949 C44.9878232,54.2960591 44.9207459,53.9861624 44.9207459,53.5514955 L44.9207459,51.2010865 L44.292897,51.2010865 L44.292897,50.6376323 Z" id="Checkout"></path>
                            <polygon id="Path-26" fill-rule="nonzero" points="13.1961364 41.2721609 12.3017647 41.2721609 12.3017647 6.92521287 13.1961364 6.92521287"></polygon>
                            <polygon id="Path-26-Copy" fill-rule="nonzero" points="50.3343838 41.2721609 49.440012 41.2721609 49.440012 6.92521287 50.3343838 6.92521287"></polygon>
                            <path d="M12.8875261,7.26735896 C11.0333558,7.26735896 9.5302537,5.7642569 9.5302537,3.91008654 C9.5302537,2.05591618 11.0333558,0.552814123 12.8875261,0.552814123 C14.7416965,0.552814123 16.2447985,2.05591618 16.2447985,3.91008654 C16.2447985,5.7642569 14.7416965,7.26735896 12.8875261,7.26735896 Z M12.8875261,6.37298721 C14.2477486,6.37298721 15.3504268,5.27030902 15.3504268,3.91008654 C15.3504268,2.54986407 14.2477486,1.44718588 12.8875261,1.44718588 C11.5273036,1.44718588 10.4246255,2.54986407 10.4246255,3.91008654 C10.4246255,5.27030902 11.5273036,6.37298721 12.8875261,6.37298721 Z" id="Oval-2" fill-rule="nonzero"></path>
                            <path d="M50.0257734,7.26735896 C48.1716031,7.26735896 46.668501,5.7642569 46.668501,3.91008654 C46.668501,2.05591618 48.1716031,0.552814123 50.0257734,0.552814123 C51.8799438,0.552814123 53.3830459,2.05591618 53.3830459,3.91008654 C53.3830459,5.7642569 51.8799438,7.26735896 50.0257734,7.26735896 Z M50.0257734,6.37298721 C51.3859959,6.37298721 52.4886741,5.27030902 52.4886741,3.91008654 C52.4886741,2.54986407 51.3859959,1.44718588 50.0257734,1.44718588 C48.665551,1.44718588 47.5628728,2.54986407 47.5628728,3.91008654 C47.5628728,5.27030902 48.665551,6.37298721 50.0257734,6.37298721 Z" id="Oval-2-Copy" fill-rule="nonzero"></path>
                        </g>
                        <path d="M28.0233977,43.1661254 L65.0233977,43.1661254" id="Path-12" stroke="#B2824F" stroke-width="1.3"></path>
                    </g>
                    <g id="Group-10" transform="translate(795.000000, 109.000000)">
                        <text id="Is-it-a-good-deal?" font-family="PTSans-Regular, PT Sans" font-size="16" font-weight="normal" line-spacing="20" fill="#000000">
                            <tspan x="0" y="99.6470322">Is it a good deal?</tspan>
                        </text>
                        <g id="Group-18-Copy-2" transform="translate(6.929153, 0.000000)">
                            <path d="M37.517855,17.1962139 C36.3692478,18.3251553 34.8373456,19.282814 33.39659,19.282814 C31.8863119,19.282814 29.867903,18.1802909 29.1805437,17.0934278 C29.023074,16.8998758 28.8062428,16.590495 28.5899098,16.197029 C28.3052267,15.6792481 28.1028492,15.1542636 28.0156981,14.632958 C27.9654557,14.6209548 27.9158379,14.6046198 27.8675668,14.5837213 C27.4627681,14.4084679 27.2319839,13.9819051 27.187906,13.3815403 C27.16391,13.1653228 27.1406465,12.9305517 27.1178026,12.6769856 C27.0664045,12.1064688 26.9553875,10.5903511 26.9628198,10.6796431 C26.931913,10.3083271 27.1127637,10.0252715 27.3888837,9.89768223 C27.2617577,9.67787914 27.1848161,9.45426052 27.1848161,9.21894973 C27.1848161,9.18756615 27.1811438,9.15482963 27.1727518,9.11312581 C27.1670449,9.08476587 27.1592725,9.05262808 27.1473925,9.00785419 C27.1434539,8.99300985 27.1166996,8.89457248 27.1082258,8.86233458 C27.0346704,8.58249591 26.998365,8.34259928 26.998365,8.02426286 L26.998365,5.33621741 C26.998365,4.96334448 27.1732789,4.71090818 27.4466184,4.59861461 C27.5928285,3.96901112 28.1565136,3.37015553 29.0723326,3.2220012 C29.373104,2.06152038 30.7786366,1.12810021 32.8268925,1.09655727 C33.694986,1.0788203 34.2584107,1.23084486 35.1588723,1.62349674 C35.0972936,1.59664497 35.3132641,1.69095327 35.3604043,1.71134259 C35.9581318,1.96987453 36.3101917,2.06713468 36.7900005,2.06713468 C36.8713627,2.06713468 37.0179072,2.03334545 37.140937,1.97926899 C37.2015552,1.95262491 37.2507518,1.92374886 37.2824464,1.89785572 C37.288775,1.89268555 37.504488,1.32359014 37.9295854,0.190569504 L38.2577666,1.99768313 C38.3248615,2.36713807 38.2436396,2.89663849 38.0641592,3.35247492 C38.7637376,3.58669644 39.1941181,4.11041483 39.3133527,4.65402577 C39.5820409,4.76793524 39.7575247,5.00777878 39.7575247,5.37355138 L39.7575247,8.06159683 C39.7575247,8.37993325 39.7212193,8.61982988 39.6476639,8.89966855 C39.6391901,8.93190644 39.6124358,9.03034382 39.6084972,9.04518816 C39.5966172,9.08996205 39.5888448,9.12209984 39.5831379,9.15045977 C39.5747459,9.19216359 39.5710736,9.22490011 39.5710736,9.25628369 C39.5710736,9.48914624 39.4957247,9.71055865 39.3709576,9.92815426 C39.6456706,10.0617607 39.8236769,10.3492627 39.7930699,10.7169771 C39.7888259,10.7679645 39.6893853,11.9128727 39.6521957,12.3596715 C39.6421691,12.4801321 39.6325919,12.5966833 39.6234397,12.709742 C39.6032673,12.9589353 39.5853213,13.1891574 39.5696933,13.4003826 C39.5239058,14.0192391 39.2931216,14.4458019 38.8883229,14.6210553 C38.8448745,14.6398658 38.8003351,14.6549792 38.7552312,14.6665644 C38.6315677,15.7010445 38.1668351,16.5583453 37.517855,17.1962139 Z M39.1814958,10.0867992 C39.1815693,10.0849512 39.1815979,10.0832894 39.1815979,10.0817791 C39.1815979,10.0824383 39.1816002,10.0831124 39.1816049,10.0838074 L39.1814958,10.0867992 Z M39.0939322,4.59138179 C39.0923843,4.59092654 39.0911337,4.59065405 39.0900174,4.5904374 C39.0908809,4.59060224 39.091737,4.59076584 39.0925859,4.59092827 L39.0939322,4.59138179 Z M27.6840017,4.53858451 C27.6884944,4.53796947 27.6933936,4.5373033 27.6987958,4.53657076 C27.6969101,4.53682647 27.6950114,4.53711191 27.692931,4.53753751 L27.6840017,4.53858451 Z M28.9806495,12.8488673 L28.9806495,14.0723651 C28.9806495,14.5777503 29.1652468,15.1414322 29.4773573,15.7090981 C29.5897828,15.9135773 29.7105674,16.1034315 29.8309514,16.2728364 C29.9017647,16.3724852 29.9551146,16.4412856 29.9821775,16.4737991 L30.0256639,16.5346845 C30.5072384,17.3267706 32.2213605,18.2700753 33.39659,18.2700753 C34.4908811,18.2700753 35.8361938,17.4290619 36.8079505,16.4739431 C37.388126,15.903701 37.7752402,15.1023478 37.7752402,14.1096991 L37.7752402,12.8862013 L38.514079,13.6259067 C38.5299236,13.5711407 38.5485073,13.4771411 38.5597152,13.325657 C38.575529,13.1119203 38.593653,12.8794142 38.614003,12.6280272 C38.6232193,12.514177 38.632859,12.3968658 38.6429471,12.275666 C38.6803379,11.8264497 38.7797785,10.6815415 38.7838213,10.6329716 C38.7755355,10.7325179 38.8972962,10.8558067 39.0022566,10.8590906 C39.0752817,10.8613753 39.1688155,10.8046489 39.1930938,10.6345017 L38.1854326,10.5629725 C38.1854326,10.4655727 38.1828491,10.3819412 38.1778442,10.2867356 C38.1717455,10.1833124 38.1688592,10.1284083 38.1688592,10.0817791 C38.1688592,9.90752354 38.1932154,9.78559991 38.333535,9.64511571 C38.4179658,9.56058584 38.5583349,9.3386905 38.5583349,9.25628369 C38.5583349,9.15312785 38.5693869,9.05460528 38.5903013,8.95067208 C38.6007299,8.89884745 38.612936,8.84837719 38.6296292,8.78546294 C38.6347306,8.7662363 38.6610685,8.66933124 38.6681958,8.64221576 C38.7211607,8.44071295 38.744786,8.28460289 38.744786,8.06159683 L38.744786,5.54645735 C38.7026289,5.53147557 38.6631997,5.51190704 38.6160997,5.48217876 C38.4365275,5.36883738 38.3345935,5.17739787 38.3345935,4.96287777 C38.3345935,4.65288711 37.9886153,4.23722629 37.2374832,4.23722629 L35.7952555,4.23722629 L36.9209307,3.33562988 C36.979955,3.28835504 37.0414109,3.1826074 37.0959896,3.05115265 C36.9917816,3.07009164 36.8885418,3.07987339 36.7900005,3.07987339 C36.1439012,3.07987339 35.6718737,2.94947099 34.9583647,2.64086067 C34.909327,2.61965063 34.6903945,2.52404889 34.7540728,2.55181622 C33.975834,2.21246037 33.5402565,2.09493182 32.8450351,2.10913025 C31.0300513,2.13708583 30.0247759,2.93868682 30.0247759,3.69352297 L30.0247759,4.19989233 L29.5184065,4.19989233 C28.7672744,4.19989233 28.4212962,4.61555315 28.4212962,4.9255438 C28.4212962,5.14466202 28.314297,5.34154481 28.12287,5.4512852 C28.0814623,5.47502319 28.0465166,5.49139438 28.0111037,5.50361371 L28.0111037,8.02426286 C28.0111037,8.24726893 28.034729,8.40337899 28.0876939,8.60488179 C28.0948212,8.63199728 28.1211591,8.72890234 28.1262605,8.74812897 C28.1429537,8.81104322 28.1551598,8.86151349 28.1655884,8.91333812 C28.1865028,9.01727131 28.1975548,9.11579389 28.1975548,9.21894973 C28.1975548,9.30135653 28.3379239,9.52325187 28.4223547,9.60778174 C28.5626743,9.74826595 28.5870305,9.87018958 28.5870305,10.0444452 C28.5870305,10.0910743 28.5841442,10.1459785 28.5780455,10.2494016 C28.5730406,10.3446073 28.5704571,10.4282388 28.5704571,10.5256385 L27.5645923,10.6087902 C27.5837866,10.7240911 27.6404621,10.7916809 27.6966197,10.8241175 C27.7124323,10.8332508 27.7227674,10.8360045 27.7377982,10.8360045 C27.8391844,10.8360045 27.9666842,10.7193588 27.9723139,10.6135215 C27.9763477,10.6648314 28.0785401,12.0542476 28.1264563,12.5861156 C28.14871,12.8331299 28.1712983,13.061087 28.1961745,13.2883231 C28.2073824,13.4398071 28.2259661,13.5338068 28.2418107,13.5885727 L28.9806495,12.8488673 Z M27.9723139,10.6135215 C27.9726332,10.6075177 27.9725604,10.6015486 27.9720684,10.5956376 C27.9718412,10.592908 27.971923,10.5988693 27.9723139,10.6135215 Z" id="Shape" fill="#000000" fill-rule="nonzero"></path>
                            <g id="noun_980184_cc-copy" transform="translate(0.000000, 17.824644)">
                                <g id="Group">
                                    <g>
                                        <path d="M23.1859242,16.5717725 C22.412665,19.2800374 21.9435591,22.3984298 21.8842591,26.2233169 L21.8765301,26.7218366 L16.9116598,26.7218366 L16.9197052,26.2075467 C17.0600395,17.2368959 17.3278985,14.4269211 18.6054925,11.2057921 C20.1386702,7.3101377 20.0034672,7.64405535 20.3990546,6.88087705 C20.7865476,6.1333146 21.1819255,5.59716822 21.7390044,5.06712752 C21.7606296,5.04655194 21.7825334,5.02595229 21.8047295,5.0053144 C23.1488066,3.75559032 25.748293,2.14029829 26.548086,2.13043287 C26.6524378,2.11554387 26.6916145,2.10318512 26.7379135,2.08875107 C26.8857146,2.04267297 27.055162,1.99143637 27.243805,1.93633047 C27.7818504,1.7791581 28.3670159,1.62207546 28.9798344,1.47540141 C29.9334325,1.24716401 30.8652246,1.06550719 31.743903,0.947707532 C32.4611833,0.851545649 33.1267478,0.800366217 33.7313078,0.800366217 C34.3372783,0.800366217 35.0046925,0.851783935 35.7241757,0.948377077 C36.6017799,1.06619853 37.532414,1.24759508 38.4848748,1.47538036 C39.0981571,1.62204961 39.6838213,1.77912697 40.2223659,1.93629368 C40.4111827,1.99139723 40.5807913,2.04263142 40.7287365,2.08870708 C40.7800099,2.10467551 40.8225566,2.11810356 40.8559145,2.12874911 C40.9071042,2.13690117 40.9439174,2.15395397 41.0033391,2.18440251 C41.0928206,2.23541189 41.131827,2.25972464 41.183849,2.29290255 C41.2260819,2.31983726 41.2758114,2.35191187 41.3487524,2.39919233 C41.366713,2.41083447 41.5102973,2.50400699 41.5571526,2.53436201 C41.9953685,2.81825862 42.3363174,3.03375856 42.6994955,3.25218753 C42.8642343,3.35126764 43.0230762,3.44438399 43.1759466,3.5312582 C43.3973558,3.65708206 43.6040839,3.76858403 43.7928523,3.86347777 C45.1103901,4.51959919 47.3128159,7.89639337 48.1901806,10.2516209 C48.8889614,12.127452 49.3029323,14.6361314 49.5126851,17.8176262 C49.6661908,20.145973 49.6983173,22.1167385 49.6983173,26.2151046 L49.6983173,26.721474 L45.5871448,26.721474 L45.579089,26.2232917 C45.5084207,21.8530602 45.1075011,18.2871816 44.4496634,15.5201169 C44.4037164,16.2713451 44.3554514,17.1610525 44.305704,18.1607007 C44.2488324,19.3035068 44.1930266,20.5282216 44.140647,21.7529757 C44.1223129,22.1816704 44.1057172,22.5797348 44.0911543,22.9369477 C44.0860582,23.0619488 44.0815806,23.1729064 44.0777582,23.268543 C44.073901,23.3654046 44.073901,23.3654046 44.0734954,23.365797 L44.0734954,26.721474 L23.3931197,26.721474 L23.3931197,26.2151046 L23.3935805,23.3441988 C23.3953436,23.3029006 23.3986599,23.2237169 23.4033074,23.1103369 C23.4110593,22.9212211 23.4196988,22.7052833 23.4290039,22.4662135 C23.4555935,21.7830679 23.482184,21.0516366 23.5070001,20.3014611 C23.5326032,19.5274911 23.5548519,18.7769421 23.5727708,18.0660892 C23.6008522,16.9520851 23.6172452,15.9798935 23.6199655,15.184415 C23.465503,15.6380687 23.3239106,16.0884887 23.1859242,16.5717725 Z M44.6503618,13.1220949 C44.6512825,13.1191022 44.6518827,13.1163672 44.6524945,13.1133926 C44.6521623,13.115008 44.6518282,13.1166566 44.6514923,13.1183383 L44.6503618,13.1220949 Z M22.2121013,16.2937282 C22.4294756,15.532396 22.6553774,14.8502626 22.9226943,14.118014 C22.9510811,14.0402554 23.3496296,12.9768658 23.4190036,12.7683036 C23.4487605,12.6788438 23.4805506,12.6059032 23.5253269,12.5385609 C23.6546503,12.3440624 23.8711015,12.2096141 24.1643162,12.318457 C24.3600466,12.3911132 24.4418076,12.5133313 24.4995701,12.6737718 C24.522204,12.7366396 24.5383587,12.8053927 24.5518754,12.8861974 C24.5912608,13.12165 24.6141927,13.5139958 24.6253305,14.0692556 C24.6440768,15.0038273 24.6282635,16.3827762 24.5851879,18.0916098 C24.5671974,18.8053047 24.5448713,19.5584645 24.5191851,20.3349444 C24.4942996,21.0872203 24.4676385,21.8205907 24.4409764,22.5056017 C24.4316434,22.7453867 24.4229762,22.9620192 24.4151964,23.1518147 C24.4105248,23.2657814 24.4071846,23.3455367 24.4058584,23.365797 L24.4058584,25.7087353 L43.0608255,25.7087353 L43.0611466,23.3459279 C43.0619556,23.325328 43.0619556,23.325328 43.0658274,23.2280977 C43.0696604,23.1321963 43.0741489,23.0209698 43.0792562,22.8956945 C43.0938455,22.5378322 43.1104691,22.1390986 43.1288332,21.709703 C43.1813059,20.4827705 43.2372146,19.2557989 43.294217,18.1103642 C43.3461155,17.0674913 43.3964355,16.1433085 43.4442893,15.3692386 C43.4959702,14.5332634 43.5438725,13.8868973 43.5876006,13.4537279 C43.6123927,13.2081385 43.6359074,13.0290392 43.6605183,12.9093757 C43.6843927,12.7932928 43.7071604,12.7189731 43.7665194,12.6307763 C43.8964521,12.4377196 44.1432776,12.3095968 44.4293674,12.454221 C44.5838927,12.5323366 44.6449722,12.6296572 44.6908806,12.7559268 C45.7784766,15.7634833 46.4572538,20.0755649 46.5821529,25.7087318 L48.6854006,25.7087353 C48.6826648,21.9728626 48.647276,20.0856439 48.5021403,17.8842504 C48.2983023,14.7924712 47.8985313,12.3698438 47.2411516,10.6051513 C46.4465532,8.47210427 44.3641651,5.27935385 43.339702,4.76917686 C43.1327245,4.66513385 42.9111119,4.54560368 42.6755744,4.41175085 C42.5151046,4.320558 42.3491262,4.22325808 42.1775287,4.12005291 C41.8027104,3.89462315 41.4533904,3.67383214 41.0065092,3.38432173 C40.9592612,3.35371231 40.8155322,3.26044588 40.7978963,3.24901425 C40.726896,3.20299175 40.6788969,3.17203322 40.6392821,3.1467682 C40.6018705,3.12290834 40.5736184,3.10522338 40.554266,3.0935223 C40.5296263,3.08764042 40.4846301,3.07339984 40.4275982,3.05563801 C40.2853137,3.01132531 40.1214982,2.96184105 39.9386473,2.90847857 C39.4152842,2.75574235 38.8454729,2.60291678 38.2493164,2.46034329 C37.3279048,2.23998355 36.4299131,2.06494956 35.5894209,1.95211053 C34.9118094,1.86113879 34.2883183,1.81310492 33.7313078,1.81310492 C33.1756245,1.81310492 32.55393,1.86091091 31.8784715,1.95146598 C31.0370433,2.06427169 30.1380089,2.23954226 29.2155686,2.46032224 C28.6199028,2.60289093 28.0506154,2.75571122 27.5277756,2.90844178 C27.3451089,2.9618019 27.1814646,3.01128376 27.0393341,3.05559402 C26.9548291,3.08193911 26.8967811,3.10053614 26.8676755,3.1100919 L26.7097229,3.13535743 C26.6307524,3.14012194 26.6150521,3.14113979 26.5783549,3.14256946 C26.0962916,3.14869604 23.6618607,4.66142438 22.4943381,5.74698789 C21.9637057,6.25123612 21.6352845,6.69658684 21.2981828,7.34693297 C20.9280707,8.06096366 21.0513323,7.75653832 19.5473809,11.5779266 C18.3558464,14.582083 18.0812447,17.2761206 17.9406242,25.7090979 L20.8817376,25.7090979 C20.9741791,22.0195005 21.4488095,18.9670832 22.2121013,16.2937282 Z M40.554266,3.0935223 C40.5511337,3.09162843 40.5482345,3.08989132 40.5455674,3.08831015 C40.5467111,3.08898814 40.5478394,3.08965743 40.5489529,3.09031813 L40.554266,3.0935223 Z" id="Shape" fill="#000000" fill-rule="nonzero"></path>
                                        <rect id="Rectangle-11" stroke="#B2824F" fill="#B2824F" x="36.5" y="8.5" width="5" height="2" rx="1"></rect>
                                        <path d="M81.2759149,15.0458625 L81.2759149,26.721474 L59.1746059,26.721474 L59.1746059,15.0458625 L72.9305349,15.0458625 L72.9305349,10.8607997 L68.5673824,10.8607997 L68.5673824,4.58969772 L80.4880023,4.58969772 L80.4880023,10.8607997 L76.6702439,10.8607997 L76.6702439,15.0458625 L81.2759149,15.0458625 Z M75.6575052,16.0586012 L75.6575052,9.84806101 L79.4752636,9.84806101 L79.4752636,5.60243643 L69.5801211,5.60243643 L69.5801211,9.84806101 L73.9432736,9.84806101 L73.9432736,16.0586012 L60.1873446,16.0586012 L60.1873446,25.7087353 L80.2631762,25.7087353 L80.2631762,16.0586012 L75.6575052,16.0586012 Z" id="Shape" fill="#000000" fill-rule="nonzero"></path>
                                        <path d="M0.794535112,25.6066334 L98.339477,25.6066334 L98.339477,60.2464168 L0.794535112,60.2464168 L0.794535112,25.6066334 Z M1.80727382,26.6193721 L1.80727382,59.2336781 L97.3267383,59.2336781 L97.3267383,26.6193721 L1.80727382,26.6193721 Z" id="Shape" fill="#000000" fill-rule="nonzero"></path>
                                        <g id="KOHL'S-Logo" transform="translate(34.974466, 40.797714)" fill="#454545">
                                            <polygon id="Clip-2" points="3.55322223 0.196364757 2.02217527 1.56200053 2.00839149 1.56200053 2.00839149 0.196364757 5.8909022e-06 0.196364757 5.8909022e-06 4.16843331 2.00839149 4.16843331 2.00839149 2.54196317 2.02217527 2.54196317 3.55322223 4.16843331 6.09461602 4.16843331 3.95727793 1.87102869 5.80354632 0.196364757"></polygon>
                                            <path d="M8.99625567,0.0865759904 C11.2756224,0.0865759904 11.8966417,0.564373676 11.8966417,2.19408504 C11.8966417,3.82457603 11.2756224,4.30315499 8.99625567,4.30315499 C6.71588762,4.30315499 6.09545776,3.82457603 6.09545776,2.19408504 C6.09545776,0.564373676 6.71588762,0.0865759904 8.99625567,0.0865759904 Z M8.99625567,3.47923581 C9.88849277,3.47923581 9.83005414,2.48168692 9.83005414,2.15327276 C9.83005414,1.82329769 9.83977411,0.908992331 8.99625567,0.908992331 C8.15144124,0.908992331 8.16122145,1.82329769 8.16122145,2.15327276 C8.16122145,2.48168692 8.10131099,3.47923581 8.99625567,3.47923581 Z" id="Clip-5"></path>
                                            <polygon id="Clip-8" points="16.2277978 2.67687561 16.2277978 4.19531528 18.2895482 4.19531528 18.2895482 0.223306439 16.2277978 0.223306439 16.2277978 1.5887614 14.7488284 1.5887614 14.7488284 0.223306439 12.6864821 0.223306439 12.6864821 4.19531528 14.7488284 4.19531528 14.7488284 2.67687561"></polygon>
                                            <path d="M19.2636934,0.223313074 L21.3740973,0.223313074 L21.3740973,3.24986824 C21.3740973,3.24986824 23.0571973,3.25460899 23.2815217,3.25460899 C23.5052599,3.25460899 23.6375621,3.05337078 23.6375621,3.05337078 L23.6375621,4.19532025 L19.2636934,4.19532025 L19.2636934,0.223313074 Z" id="Clip-11"></path>
                                            <path d="M22.4629446,1.84337374 L22.6070996,1.58877965 C22.1734135,1.37343695 22.0451002,0.825959465 22.2656636,0.514169454 C22.5025408,0.17759084 23.1632051,0.0333096864 23.5183663,0.553599988 C23.8211016,0.997608604 23.5323195,1.37343695 23.3998382,1.48080889 C23.2686431,1.58877965 22.4629446,1.84337374 22.4629446,1.84337374 Z" id="Clip-17"></path>
                                            <path d="M28.5563021,1.53859367 C28.1200761,1.18857242 27.7461751,1.07195783 27.3442376,1.0645166 C26.9504896,1.05791471 26.5913232,1.19469327 26.5913232,1.43458239 C26.5913232,1.62291706 26.8597211,1.70202031 27.7993174,1.89719739 C28.5706622,2.05876289 29.0837687,2.45361728 29.0837687,3.18840929 C29.0837687,4.01694979 27.7074743,4.4853854 26.4742115,4.4853854 C25.6095419,4.4853854 24.9457028,4.32921919 24.3515478,4.06250284 L24.3515478,2.94966139 C24.7187897,3.33299234 25.5405742,3.53693102 26.1702388,3.53693102 C26.51892,3.53693102 26.6901184,3.48597538 26.6901184,3.20845548 C26.6901184,3.03626558 26.4727462,2.87872094 25.8135472,2.75790469 C24.5649147,2.52869968 24.1424139,2.17069644 24.1424139,1.55869958 C24.1424139,0.679805565 25.2346478,0.156872848 26.5794215,0.156872848 C27.3046576,0.156872848 27.9706296,0.17950008 28.5563021,0.451919272 L28.5563021,1.53859367 Z" id="Clip-14"></path>
                                        </g>
                                    </g>
                                </g>
                            </g>
                        </g>
                        <rect id="Rectangle-27" fill="#FFFFFF" x="102.087387" y="68.4889992" width="5" height="3"></rect>
                        <rect id="Rectangle-27-Copy" fill="#FFFFFF" x="68.6424793" y="32.7315758" width="5" height="3"></rect>
                    </g>
                    <rect id="Rectangle-10" fill="#FFFFFF" x="690.042048" y="65.5803191" width="5" height="5"></rect>
                </g>
                <text id="ENTER-THE-STORE" font-family="PTSans-Regular, PT Sans" font-size="12" font-weight="normal" fill="#B2824F">
                    <tspan x="47.5477447" y="398.633297">ENTER THE STORE</tspan>
                </text>
                <text id="CHOOSE-A-SHOPPING-CA" font-family="PTSans-Regular, PT Sans" font-size="12" font-weight="normal" fill="#B2824F">
                    <tspan x="215.651405" y="398.633297">CHOOSE A SHOPPING CART</tspan>
                </text>
                <text id="BROWSE" font-family="PTSans-Regular, PT Sans" font-size="12" font-weight="normal" fill="#B2824F">
                    <tspan x="394.080333" y="398.633297">BROWSE</tspan>
                </text>
                <text id="MAKE-DECISION" font-family="PTSans-Regular, PT Sans" font-size="12" font-weight="normal" fill="#B2824F">
                    <tspan x="593" y="398.633297">MAKE DECISION</tspan>
                </text>
                <text id="CHECK-OUT" font-family="PTSans-Regular, PT Sans" font-size="12" font-weight="normal" fill="#B2824F">
                    <tspan x="763.000692" y="398.633297">CHECK OUT</tspan>
                </text>
                <g id="Group-17" transform="translate(497.040166, 391.133297)">
                    <path d="M2.0803328,3.59763602 L36.0803328,3.59763602" id="Line" stroke="#B2824F" fill="#D8D8D8" stroke-linecap="round"></path>
                    <polygon id="Triangle-3-Copy-2" fill="#B2824F" transform="translate(3.080333, 3.597636) scale(-1, 1) rotate(90.000000) translate(-3.080333, -3.597636) " points="3.0803328 0.597636021 6.0803328 6.59763602 0.0803327988 6.59763602"></polygon>
                    <polygon id="Triangle-3-Copy-2" fill="#B2824F" transform="translate(35.330333, 3.597636) rotate(90.000000) translate(-35.330333, -3.597636) " points="35.3303328 0.597636021 38.3303328 6.59763602 32.3303328 6.59763602"></polygon>
                </g>
            </g>
        </g>
    </g>
</svg>